<svg width="52" height="52" viewBox="0 0 52 52" fill="none" xmlns="http://www.w3.org/2000/svg">
    <g id="code">
        <path fill-rule="evenodd" clip-rule="evenodd"
              d="M39 0H26V13H13H0V26V39V52H13H26V39H39H52V26V13V0H39ZM13 39H26V26H39V13H26V26H13V39Z"/>
    </g>

    <g id="figma">
        <path d="M16 16C16 15.1159 16.3687 14.2681 17.0251 13.643C17.6815 13.0179 18.5717 12.6667 19.5 12.6667C20.4283 12.6667 21.3185 13.0179 21.9749 13.643C22.6313 14.2681 23 15.1159 23 16C23 16.8841 22.6313 17.7319 21.9749 18.357C21.3185 18.9821 20.4283 19.3333 19.5 19.3333C18.5717 19.3333 17.6815 18.9821 17.0251 18.357C16.3687 17.7319 16 16.8841 16 16ZM9 22.6667C9 21.7826 9.36875 20.9348 10.0251 20.3096C10.6815 19.6845 11.5717 19.3333 12.5 19.3333H16V22.6667C16 23.5507 15.6313 24.3986 14.9749 25.0237C14.3185 25.6488 13.4283 26 12.5 26C11.5717 26 10.6815 25.6488 10.0251 25.0237C9.36875 24.3986 9 23.5507 9 22.6667ZM16 6V12.6667H19.5C20.4283 12.6667 21.3185 12.3155 21.9749 11.6904C22.6313 11.0652 23 10.2174 23 9.33333C23 8.44928 22.6313 7.60143 21.9749 6.97631C21.3185 6.35119 20.4283 6 19.5 6H16ZM9 9.33333C9 10.2174 9.36875 11.0652 10.0251 11.6904C10.6815 12.3155 11.5717 12.6667 12.5 12.6667H16V6H12.5C11.5717 6 10.6815 6.35119 10.0251 6.97631C9.36875 7.60143 9 8.44928 9 9.33333ZM9 16C9 16.8841 9.36875 17.7319 10.0251 18.357C10.6815 18.9821 11.5717 19.3333 12.5 19.3333H16V12.6667H12.5C11.5717 12.6667 10.6815 13.0179 10.0251 13.643C9.36875 14.2681 9 15.1159 9 16Z"
              fill="#ABB2BF"/>
    </g>

    <g id="github">
        <path d="M15.5 6C9.69875 6 5 10.5882 5 16.2529C5 20.7899 8.00562 24.6219 12.1794 25.9804C12.7044 26.0701 12.9012 25.7625 12.9012 25.4934C12.9012 25.2499 12.8881 24.4425 12.8881 23.5838C10.25 24.058 9.5675 22.9558 9.3575 22.3791C9.23938 22.0843 8.7275 21.1743 8.28125 20.9308C7.91375 20.7386 7.38875 20.2644 8.26813 20.2516C9.095 20.2388 9.68563 20.9949 9.8825 21.3025C10.8275 22.8533 12.3369 22.4175 12.9406 22.1484C13.0325 21.4819 13.3081 21.0334 13.61 20.777C11.2737 20.5207 8.8325 19.6364 8.8325 15.7147C8.8325 14.5997 9.23938 13.6769 9.90875 12.9592C9.80375 12.7029 9.43625 11.6519 10.0138 10.2422C10.0138 10.2422 10.8931 9.97301 12.9012 11.2931C13.7413 11.0624 14.6338 10.947 15.5263 10.947C16.4188 10.947 17.3113 11.0624 18.1513 11.2931C20.1594 9.9602 21.0387 10.2422 21.0387 10.2422C21.6163 11.6519 21.2488 12.7029 21.1438 12.9592C21.8131 13.6769 22.22 14.5868 22.22 15.7147C22.22 19.6492 19.7656 20.5207 17.4294 20.777C17.81 21.0975 18.1381 21.7126 18.1381 22.6738C18.1381 24.0452 18.125 25.1474 18.125 25.4934C18.125 25.7625 18.3219 26.0829 18.8469 25.9804C20.9314 25.2935 22.7428 23.9854 24.026 22.2403C25.3092 20.4953 25.9996 18.4012 26 16.2529C26 10.5882 21.3013 6 15.5 6Z"
              fill="#ABB2BF"/>
    </g>

    <g id="square">
        <circle cx="2" cy="2" r="2" fill="#ABB2BF"/>
        <circle cx="22" cy="2" r="2" fill="#ABB2BF"/>
        <circle cx="42" cy="2" r="2" fill="#ABB2BF"/>
        <circle cx="62" cy="2" r="2" fill="#ABB2BF"/>
        <circle cx="82" cy="2" r="2" fill="#ABB2BF"/>
        <circle cx="2" cy="22" r="2" fill="#ABB2BF"/>
        <circle cx="22" cy="22" r="2" fill="#ABB2BF"/>
        <circle cx="42" cy="22" r="2" fill="#ABB2BF"/>
        <circle cx="62" cy="22" r="2" fill="#ABB2BF"/>
        <circle cx="82" cy="22" r="2" fill="#ABB2BF"/>
        <circle cx="2" cy="42" r="2" fill="#ABB2BF"/>
        <circle cx="22" cy="42" r="2" fill="#ABB2BF"/>
        <circle cx="42" cy="42" r="2" fill="#ABB2BF"/>
        <circle cx="62" cy="42" r="2" fill="#ABB2BF"/>
        <circle cx="82" cy="42" r="2" fill="#ABB2BF"/>
        <circle cx="2" cy="62" r="2" fill="#ABB2BF"/>
        <circle cx="22" cy="62" r="2" fill="#ABB2BF"/>
        <circle cx="42" cy="62" r="2" fill="#ABB2BF"/>
        <circle cx="62" cy="62" r="2" fill="#ABB2BF"/>
        <circle cx="82" cy="62" r="2" fill="#ABB2BF"/>
        <circle cx="2" cy="82" r="2" fill="#ABB2BF"/>
        <circle cx="22" cy="82" r="2" fill="#ABB2BF"/>
        <circle cx="42" cy="82" r="2" fill="#ABB2BF"/>
        <circle cx="62" cy="82" r="2" fill="#ABB2BF"/>
        <circle cx="82" cy="82" r="2" fill="#ABB2BF"/>
    </g>

    <g id="dribble">
        <path fill-rule="evenodd" clip-rule="evenodd"
              d="M16.5 4C10.152 4 5 9.152 5 15.5C5 21.848 10.152 27 16.5 27C22.8365 27 28 21.848 28 15.5C28 9.152 22.8365 4 16.5 4ZM24.0958 9.3015C25.5115 11.0255 26.2951 13.1817 26.3167 15.4123C25.9918 15.3505 22.7488 14.6892 19.4814 15.1004C19.4066 14.9394 19.3434 14.764 19.2686 14.5901C19.0688 14.1157 18.8446 13.6298 18.6203 13.1669C22.2371 11.6964 23.8844 9.57606 24.0972 9.30006L24.0958 9.3015ZM16.5 5.69625C18.9941 5.69625 21.2768 6.63063 23.0119 8.16587C22.8365 8.416 21.3516 10.3983 17.8599 11.7079C16.2499 8.75238 14.4674 6.33162 14.1928 5.95788C14.9491 5.78129 15.7234 5.69349 16.5 5.69625ZM12.3212 6.61913C13.6375 8.44338 14.8535 10.3379 15.9638 12.2944C11.3739 13.5162 7.32012 13.4918 6.88312 13.4918C7.19917 12.005 7.85438 10.6114 8.79766 9.41949C9.74094 8.22761 10.9468 7.26973 12.3212 6.62056V6.61913ZM6.67181 15.5144V15.2125C7.09588 15.2269 11.8612 15.2887 16.7631 13.8167C17.0491 14.3644 17.3108 14.9264 17.5609 15.4871L17.1728 15.5992C12.1099 17.2336 9.416 21.6985 9.19031 22.0737C7.56856 20.2734 6.67131 17.936 6.67181 15.5129V15.5144ZM16.5 25.3282C14.3172 25.3316 12.1964 24.6027 10.4769 23.2582C10.6494 22.8959 12.6461 19.0549 18.1833 17.1215C18.2092 17.1086 18.2207 17.1086 18.2466 17.0971C19.1801 19.5068 19.8814 22.0002 20.341 24.5433C19.1277 25.0646 17.8205 25.3318 16.5 25.3282ZM21.9769 23.6449C21.8763 23.0454 21.3516 20.1776 20.0679 16.6471C23.1484 16.1613 25.8423 16.9591 26.1787 17.0712C25.9692 18.3975 25.4876 19.6662 24.7643 20.7974C24.0409 21.9287 23.0914 22.8982 21.9754 23.6449H21.9769Z"
              fill="#ABB2BF"/>
    </g>

    <g id="logoSquare">
        <mask id="path-1-inside-1_1103_3692" fill="white">
            <path fill-rule="evenodd" clip-rule="evenodd"
                  d="M0 39.75H38.75H77.5V78.5H38.75V117.25H77.5V156H38.75H0V117.25V78.5V39.75Z"/>
        </mask>
        <path d="M0 39.75V38.75H-1V39.75H0ZM77.5 39.75H78.5V38.75H77.5V39.75ZM77.5 78.5V79.5H78.5V78.5H77.5ZM38.75 78.5V77.5H37.75V78.5H38.75ZM38.75 117.25H37.75V118.25H38.75V117.25ZM77.5 117.25H78.5V116.25H77.5V117.25ZM77.5 156V157H78.5V156H77.5ZM0 156H-1V157H0V156ZM38.75 38.75H0V40.75H38.75V38.75ZM77.5 38.75H38.75V40.75H77.5V38.75ZM78.5 78.5V39.75H76.5V78.5H78.5ZM38.75 79.5H77.5V77.5H38.75V79.5ZM39.75 117.25V78.5H37.75V117.25H39.75ZM38.75 118.25H77.5V116.25H38.75V118.25ZM76.5 117.25V156H78.5V117.25H76.5ZM77.5 155H38.75V157H77.5V155ZM0 157H38.75V155H0V157ZM-1 117.25V156H1V117.25H-1ZM-1 78.5V117.25H1V78.5H-1ZM-1 39.75V78.5H1V39.75H-1Z"
              fill="#C778DD" mask="url(#path-1-inside-1_1103_3692)"/>
        <mask id="path-3-outside-2_1103_3692" maskUnits="userSpaceOnUse" x="76.5" y="0" width="80" height="119"
              fill="black">
            <rect fill="white" x="76.5" width="80" height="119"/>
            <path fill-rule="evenodd" clip-rule="evenodd"
                  d="M77.5 1H116.25H155V39.75V78.5V117.25H116.25H77.5V78.5H116.25V39.75H77.5V1Z"/>
        </mask>
        <path d="M77.5 1V0H76.5V1H77.5ZM155 1H156V0H155V1ZM155 117.25V118.25H156V117.25H155ZM77.5 117.25H76.5V118.25H77.5V117.25ZM77.5 78.5V77.5H76.5V78.5H77.5ZM116.25 78.5V79.5H117.25V78.5H116.25ZM116.25 39.75H117.25V38.75H116.25V39.75ZM77.5 39.75H76.5V40.75H77.5V39.75ZM116.25 0H77.5V2H116.25V0ZM155 0H116.25V2H155V0ZM156 39.75V1H154V39.75H156ZM156 78.5V39.75H154V78.5H156ZM156 117.25V78.5H154V117.25H156ZM116.25 118.25H155V116.25H116.25V118.25ZM116.25 116.25H77.5V118.25H116.25V116.25ZM78.5 117.25V78.5H76.5V117.25H78.5ZM77.5 79.5H116.25V77.5H77.5V79.5ZM115.25 39.75V78.5H117.25V39.75H115.25ZM77.5 40.75H116.25V38.75H77.5V40.75ZM76.5 1V39.75H78.5V1H76.5Z"
              fill="#C778DD" mask="url(#path-3-outside-2_1103_3692)"/>
    </g>

    <g id="iconColor">
        <rect x="0.5" y="1" width="15" height="15" fill="#C778DD" stroke="#C778DD"/>
    </g>

    <g id="qutes">
        <rect width="41.472" height="28.704" fill="#282C33"/>
        <path d="M18.56 19.616C18.56 21.0453 18.0373 22.2507 16.992 23.232C15.968 24.2133 14.72 24.704 13.248 24.704C11.7333 24.704 10.4747 24.2133 9.472 23.232C8.49067 22.2507 8 21.0453 8 19.616C8 18.9333 8.096 18.208 8.288 17.44C8.48 16.672 8.864 15.68 9.44 14.464L14.4 4H19.2L16.544 15.584C17.1413 16.0107 17.6213 16.576 17.984 17.28C18.368 17.9627 18.56 18.7413 18.56 19.616ZM32.8 19.616C32.8 21.0453 32.2773 22.2507 31.232 23.232C30.1867 24.2133 28.9387 24.704 27.488 24.704C26.016 24.704 24.768 24.2133 23.744 23.232C22.7413 22.2507 22.24 21.0453 22.24 19.616C22.24 18.9333 22.336 18.208 22.528 17.44C22.72 16.672 23.1147 15.68 23.712 14.464L28.704 4H33.472L30.784 15.584C31.4027 16.0107 31.8933 16.576 32.256 17.28C32.6187 17.9627 32.8 18.7413 32.8 19.616Z"
              fill="#ABB2BF"/>
    </g>
    <g id="rectangle">
        <rect x="0.5" y="0.5" width="85" height="85" stroke="#ABB2BF"/>
    </g>
    <g id="rectangleMini">
        <rect x="0.5" y="0.5" width="51" height="51" stroke="#ABB2BF"/>
    </g>
    <g id="javascript">
        <g clip-path="url(#clip0_1_405)">
            <path d="M35.4167 1.61203e-05H164.583C169.236 -0.00448106 173.843 0.932018 178.142 2.75592C182.441 4.57981 186.347 7.25531 189.636 10.6293C192.926 14.0032 195.535 18.0094 197.313 22.4186C199.091 26.8277 200.004 31.5533 200 36.3248V163.675C200.004 168.447 199.091 173.172 197.313 177.581C195.535 181.991 192.926 185.997 189.636 189.371C186.347 192.745 182.441 195.42 178.142 197.244C173.843 199.068 169.236 200.004 164.583 200H35.4167C30.7645 200.004 26.157 199.068 21.8581 197.244C17.5592 195.42 13.6532 192.745 10.3635 189.371C7.07392 185.997 4.46532 181.991 2.68702 177.581C0.908717 173.172 -0.00436903 168.447 1.57173e-05 163.675V36.3248C-0.00436903 31.5533 0.908717 26.8277 2.68702 22.4186C4.46532 18.0094 7.07392 14.0032 10.3635 10.6293C13.6532 7.25531 17.5592 4.57981 21.8581 2.75592C26.157 0.932018 30.7645 -0.00448106 35.4167 1.61203e-05Z"
                  fill="#F7DF1E"/>
            <path d="M134.689 156.492C138.717 163.07 143.959 167.905 153.229 167.905C161.016 167.905 165.99 164.013 165.99 158.635C165.99 152.19 160.879 149.908 152.308 146.159L147.61 144.143C134.048 138.365 125.038 131.127 125.038 115.825C125.038 101.73 135.778 91 152.562 91C164.511 91 173.102 95.1587 179.292 106.048L164.657 115.444C161.435 109.667 157.959 107.39 152.562 107.39C147.057 107.39 143.568 110.883 143.568 115.444C143.568 121.083 147.06 123.365 155.124 126.857L159.822 128.87C175.79 135.717 184.806 142.698 184.806 158.394C184.806 175.314 171.514 184.584 153.663 184.584C136.21 184.584 124.933 176.267 119.416 165.365L134.689 156.492ZM68.2984 158.121C71.2508 163.359 73.9365 167.787 80.3937 167.787C86.5683 167.787 90.4635 165.371 90.4635 155.978V92.073H109.257V156.232C109.257 175.692 97.8476 184.549 81.1937 184.549C66.146 184.549 57.4317 176.762 53 167.383L68.2984 158.121Z"
                  fill="black"/>
        </g>
        <defs>
            <clipPath id="clip0_1_405">
                <rect width="200" height="200" fill="white"/>
            </clipPath>
        </defs>
    </g>
    <g id="html">
        <g clip-path="url(#clip0_7_116)">
            <path d="M35.4167 1.61203e-05H164.583C169.236 -0.00448106 173.843 0.932018 178.142 2.75592C182.441 4.57981 186.347 7.25531 189.636 10.6293C192.926 14.0032 195.535 18.0094 197.313 22.4186C199.091 26.8277 200.004 31.5533 200 36.3248V163.675C200.004 168.447 199.091 173.172 197.313 177.581C195.535 181.991 192.926 185.997 189.636 189.371C186.347 192.745 182.441 195.42 178.142 197.244C173.843 199.068 169.236 200.004 164.583 200H35.4167C30.7645 200.004 26.157 199.068 21.8581 197.244C17.5592 195.42 13.6532 192.745 10.3635 189.371C7.07392 185.997 4.46532 181.991 2.68702 177.581C0.908717 173.172 -0.00436903 168.447 1.57173e-05 163.675V36.3248C-0.00436903 31.5533 0.908717 26.8277 2.68702 22.4186C4.46532 18.0094 7.07392 14.0032 10.3635 10.6293C13.6532 7.25531 17.5592 4.57981 21.8581 2.75592C26.157 0.932018 30.7645 -0.00448106 35.4167 1.61203e-05Z"
                  fill="#F16529"/>
            <path d="M68.9996 59.9601H100.066V38H45L45.5253 43.8914L50.9231 104.408H100.066V82.4476H71.0067L68.9996 59.9601ZM73.949 115.388H51.9043L54.9806 149.869L99.9646 162.356L100.066 162.328V139.481L99.9694 139.506L75.5126 132.902L73.949 115.388Z"
                  fill="#EBEBEB"/>
            <path d="M99.9901 104.408H127.032L124.482 132.888L99.9894 139.499V162.346L145.009 149.869L145.339 146.159L150.5 88.3446L151.036 82.4476H99.9901V104.408ZM99.9901 59.9065V59.9601H153.034L153.474 55.0245L154.475 43.8914L155 38H99.9901V59.9072V59.9065Z"
                  fill="white"/>
        </g>
        <defs>
            <clipPath id="clip0_7_116">
                <rect width="200" height="200" fill="white"/>
            </clipPath>
        </defs>
    </g>
    <g id="css">
        <g clip-path="url(#clip0_7_123)">
            <path d="M35.4167 1.61203e-05H164.583C169.236 -0.00448106 173.843 0.932018 178.142 2.75592C182.441 4.57981 186.347 7.25531 189.636 10.6293C192.926 14.0032 195.535 18.0094 197.313 22.4186C199.091 26.8277 200.004 31.5533 200 36.3248V163.675C200.004 168.447 199.091 173.172 197.313 177.581C195.535 181.991 192.926 185.997 189.636 189.371C186.347 192.745 182.441 195.42 178.142 197.244C173.843 199.068 169.236 200.004 164.583 200H35.4167C30.7645 200.004 26.157 199.068 21.8581 197.244C17.5592 195.42 13.6532 192.745 10.3635 189.371C7.07392 185.997 4.46532 181.991 2.68702 177.581C0.908717 173.172 -0.00436903 168.447 1.57173e-05 163.675V36.3248C-0.00436903 31.5533 0.908717 26.8277 2.68702 22.4186C4.46532 18.0094 7.07392 14.0032 10.3635 10.6293C13.6532 7.25531 17.5592 4.57981 21.8581 2.75592C26.157 0.932018 30.7645 -0.00448106 35.4167 1.61203e-05Z"
                  fill="#2965F1"/>
            <path d="M48.9551 82.4476L50.9231 104.408H100.066V82.4476H48.9551ZM45 38L46.9961 59.9601H100.066V38H45ZM100.066 139.481L99.9694 139.506L75.5126 132.902L73.949 115.388H51.9043L54.9806 149.869L99.9646 162.356L100.066 162.328V139.481Z"
                  fill="#EBEBEB"/>
            <path d="M151.036 82.4476L155 38H99.9901V59.9601H130.934L128.936 82.4476H99.9901V104.408H127.032L124.482 132.888L99.9894 139.499V162.346L145.009 149.869L145.339 146.159L150.5 88.3446L151.036 82.4476Z"
                  fill="white"/>
        </g>
        <defs>
            <clipPath id="clip0_7_123">
                <rect width="200" height="200" fill="white"/>
            </clipPath>
        </defs>
    </g>
    <g id="sass">
        <g clip-path="url(#clip0_1_451)">
            <path d="M35.4167 1.61203e-05H164.583C169.236 -0.00448106 173.843 0.932018 178.142 2.75592C182.441 4.57981 186.347 7.25531 189.636 10.6293C192.926 14.0032 195.535 18.0094 197.313 22.4186C199.091 26.8277 200.004 31.5533 200 36.3248V163.675C200.004 168.447 199.091 173.172 197.313 177.581C195.535 181.991 192.926 185.997 189.636 189.371C186.347 192.745 182.441 195.42 178.142 197.244C173.843 199.068 169.236 200.004 164.583 200H35.4167C30.7645 200.004 26.157 199.068 21.8581 197.244C17.5592 195.42 13.6532 192.745 10.3635 189.371C7.07392 185.997 4.46532 181.991 2.68702 177.581C0.908717 173.172 -0.00436903 168.447 1.57173e-05 163.675V36.3248C-0.00436903 31.5533 0.908717 26.8277 2.68702 22.4186C4.46532 18.0094 7.07392 14.0032 10.3635 10.6293C13.6532 7.25531 17.5592 4.57981 21.8581 2.75592C26.157 0.932018 30.7645 -0.00448106 35.4167 1.61203e-05Z"
                  fill="#000B1D"/>
            <g clip-path="url(#clip1_1_451)">
                <path d="M154.801 109.098C149.501 109.126 144.895 110.415 141.038 112.319C139.623 109.49 138.208 106.97 137.958 105.121C137.681 102.965 137.348 101.648 137.681 99.0714C138.014 96.4947 139.512 92.8257 139.484 92.5456C139.457 92.2655 139.151 90.9492 136.099 90.9212C133.047 90.8932 130.411 91.5093 130.106 92.3215C129.801 93.1338 129.218 94.9823 128.829 96.8868C128.302 99.6876 122.725 109.686 119.534 114.924C118.507 112.879 117.62 111.087 117.425 109.658C117.148 107.502 116.815 106.185 117.148 103.609C117.481 101.032 118.979 97.3629 118.951 97.0829C118.924 96.8028 118.618 95.4864 115.566 95.4584C112.514 95.4304 109.878 96.0466 109.573 96.8588C109.268 97.671 108.935 99.5756 108.296 101.424C107.658 103.273 100.25 119.965 98.3074 124.278C97.3085 126.491 96.4483 128.256 95.8378 129.46C95.8378 129.46 95.8101 129.544 95.7269 129.684C95.1997 130.72 94.8944 131.28 94.8944 131.28C94.8944 131.28 94.8944 131.28 94.8944 131.308C94.4782 132.065 94.0343 132.765 93.8123 132.765C93.6458 132.765 93.3406 130.748 93.8678 128.003C94.9777 122.206 97.6137 113.187 97.5859 112.879C97.5859 112.711 98.0854 111.143 95.8656 110.331C93.7013 109.518 92.9244 110.863 92.7301 110.863C92.5359 110.863 92.3972 111.339 92.3972 111.339C92.3972 111.339 94.8112 101.2 87.7911 101.2C83.407 101.2 77.3581 106.045 74.3614 110.415C72.4746 111.451 68.4512 113.663 64.1504 116.044C62.5133 116.968 60.8207 117.893 59.2391 118.761C59.1281 118.649 59.0171 118.509 58.9061 118.397C50.4154 109.238 34.7104 102.768 35.3764 90.473C35.6261 85.9918 37.1522 74.2285 65.5377 59.9445C88.901 48.3213 107.492 51.5422 110.71 58.6842C115.316 68.879 100.749 87.8123 76.6089 90.5571C67.3968 91.5933 62.5688 88.0083 61.3479 86.664C60.0715 85.2636 59.8773 85.1796 59.4056 85.4596C58.6287 85.8798 59.1281 87.1401 59.4056 87.8683C60.127 89.7728 63.096 93.1338 68.1182 94.7862C72.5578 96.2426 83.3515 97.0549 96.4205 91.9574C111.043 86.2439 122.475 70.3634 119.118 57.0597C115.76 43.56 93.5626 39.1067 72.5578 46.6408C60.0715 51.1221 46.5308 58.18 36.7915 67.3666C25.2208 78.2896 23.3895 87.7843 24.1387 91.7614C26.8302 105.877 46.1146 115.064 53.8284 121.87C53.4399 122.094 53.0792 122.29 52.774 122.458C48.9171 124.39 34.211 132.149 30.5483 140.355C26.3862 149.653 31.2143 156.319 34.4052 157.216C44.311 159.988 54.4943 155.003 59.9605 146.769C65.4268 138.534 64.7608 127.835 62.2358 122.934C62.2081 122.878 62.1803 122.822 62.1248 122.766C63.1237 122.178 64.1504 121.562 65.1493 120.974C67.1193 119.797 69.0616 118.705 70.7265 117.809C69.7831 120.413 69.0894 123.522 68.7564 128.003C68.3402 133.269 70.4768 140.103 73.2793 142.792C74.5279 143.968 75.9985 143.996 76.9419 143.996C80.2161 143.996 81.6867 141.251 83.3238 138.002C85.3216 134.025 87.1252 129.404 87.1252 129.404C87.1252 129.404 84.8776 141.895 90.9821 141.895C93.2019 141.895 95.4494 138.983 96.4483 137.498C96.4483 137.526 96.4483 137.526 96.4483 137.526C96.4483 137.526 96.5038 137.442 96.6148 137.246C96.8368 136.882 96.9755 136.658 96.9755 136.658C96.9755 136.658 96.9755 136.63 96.9755 136.602C97.8634 135.033 99.8612 131.476 102.83 125.567C106.659 117.949 110.35 108.426 110.35 108.426C110.35 108.426 110.683 110.751 111.82 114.616C112.486 116.884 113.874 119.377 114.984 121.786C114.096 123.046 113.541 123.746 113.541 123.746C113.541 123.746 113.541 123.746 113.568 123.774C112.847 124.727 112.07 125.763 111.21 126.771C108.185 130.412 104.578 134.585 104.079 135.79C103.496 137.218 103.635 138.254 104.745 139.095C105.549 139.711 106.992 139.795 108.463 139.711C111.182 139.515 113.097 138.842 114.04 138.422C115.511 137.89 117.231 137.078 118.84 135.874C121.809 133.661 123.613 130.496 123.446 126.323C123.363 124.026 122.614 121.73 121.698 119.573C121.976 119.181 122.226 118.789 122.503 118.397C127.192 111.479 130.827 103.889 130.827 103.889C130.827 103.889 131.16 106.213 132.298 110.078C132.853 112.039 133.99 114.168 134.989 116.24C130.578 119.853 127.858 124.054 126.887 126.799C125.139 131.897 126.499 134.193 129.079 134.725C130.245 134.977 131.909 134.417 133.13 133.885C134.684 133.381 136.515 132.513 138.264 131.224C141.233 129.012 144.09 125.931 143.924 121.758C143.841 119.853 143.341 117.977 142.648 116.156C146.394 114.588 151.222 113.719 157.381 114.448C170.589 116.016 173.197 124.334 172.698 127.835C172.199 131.336 169.424 133.241 168.508 133.829C167.593 134.417 167.287 134.613 167.371 135.033C167.482 135.65 167.925 135.622 168.702 135.51C169.785 135.313 175.639 132.681 175.889 126.239C176.305 118.005 168.536 109.014 154.801 109.098ZM52.9127 143.772C48.5286 148.589 42.4242 150.41 39.7882 148.869C36.958 147.217 38.0679 140.103 43.4508 135.005C46.725 131.897 50.9426 129.012 53.7451 127.247C54.3833 126.855 55.3267 126.295 56.4644 125.595C56.6586 125.483 56.7696 125.427 56.7696 125.427C56.9916 125.287 57.2135 125.147 57.4355 125.007C59.4056 132.289 57.5188 138.702 52.9127 143.772ZM84.8221 121.87C83.296 125.623 80.1051 135.229 78.1628 134.697C76.4979 134.249 75.4713 126.967 77.8298 119.769C79.023 116.156 81.548 111.843 83.0186 110.163C85.4048 107.474 88.0408 106.578 88.679 107.67C89.4837 109.098 85.7656 119.517 84.8221 121.87ZM111.154 134.585C110.516 134.921 109.906 135.145 109.628 134.977C109.434 134.865 109.906 134.417 109.906 134.417C109.906 134.417 113.208 130.832 114.512 129.208C115.261 128.256 116.149 127.135 117.092 125.875C117.092 125.987 117.092 126.127 117.092 126.239C117.092 130.524 112.986 133.409 111.154 134.585ZM131.465 129.908C130.994 129.572 131.077 128.452 132.659 124.951C133.269 123.578 134.712 121.282 137.181 119.069C137.459 119.965 137.653 120.833 137.625 121.646C137.598 127.051 133.768 129.068 131.465 129.908Z"
                      fill="#CD6799"/>
            </g>
        </g>
        <defs>
            <clipPath id="clip0_1_451">
                <rect width="200" height="200" fill="white"/>
            </clipPath>
            <clipPath id="clip1_1_451">
                <rect width="152" height="115" fill="white" transform="translate(24 43)"/>
            </clipPath>
        </defs>
    </g>
    <g id="ts">
        <g clip-path="url(#clip0_126_1545)">
            <path d="M158.904 2.73972H41.0959C19.9124 2.73972 2.73975 19.9124 2.73975 41.0959V158.904C2.73975 180.088 19.9124 197.26 41.0959 197.26H158.904C180.088 197.26 197.26 180.088 197.26 158.904V41.0959C197.26 19.9124 180.088 2.73972 158.904 2.73972Z"
                  fill="white" stroke="#003355" stroke-width="21.9178"/>
            <path d="M158.904 2.73972H41.0959C19.9124 2.73972 2.73975 19.9124 2.73975 41.0959V158.904C2.73975 180.088 19.9124 197.26 41.0959 197.26H158.904C180.088 197.26 197.26 180.088 197.26 158.904V41.0959C197.26 19.9124 180.088 2.73972 158.904 2.73972Z"
                  stroke="#003355" stroke-width="21.9178"/>
            <mask id="mask0_126_1545" style="mask-type:luminance" maskUnits="userSpaceOnUse" x="5" y="5" width="190"
                  height="190">
                <path d="M156.164 5.47943H43.8357C22.6521 5.47943 5.47949 22.6521 5.47949 43.8356V156.164C5.47949 177.348 22.6521 194.521 43.8357 194.521H156.164C177.348 194.521 194.521 177.348 194.521 156.164V43.8356C194.521 22.6521 177.348 5.47943 156.164 5.47943Z"
                      fill="white"/>
            </mask>
            <g mask="url(#mask0_126_1545)">
                <path d="M-5.47949 94.5205L-5.47949 194.521H94.5205H194.521L194.521 94.5205L194.521 -5.47946H94.5205H-5.47949L-5.47949 94.5205ZM155.695 86.5523C160.774 87.8221 164.647 90.0761 168.203 93.7586C170.044 95.7269 172.774 99.3142 172.997 100.171C173.06 100.425 164.362 106.267 159.092 109.536C158.901 109.663 158.14 108.838 157.282 107.568C154.711 103.822 152.013 102.203 147.886 101.917C141.822 101.505 137.917 104.679 137.949 109.981C137.949 111.536 138.171 112.457 138.806 113.727C140.14 116.489 142.616 118.14 150.394 121.505C164.711 127.663 170.838 131.727 174.647 137.505C178.901 143.949 179.854 154.235 176.965 161.886C173.79 170.203 165.917 175.854 154.838 177.727C151.409 178.33 143.282 178.235 139.6 177.568C131.568 176.14 123.949 172.171 119.251 166.965C117.409 164.933 113.822 159.632 114.044 159.251C114.14 159.124 114.965 158.616 115.886 158.076C116.774 157.568 120.14 155.632 123.314 153.79L129.06 150.457L130.267 152.235C131.949 154.806 135.632 158.33 137.854 159.505C144.235 162.87 152.997 162.394 157.314 158.521C159.155 156.838 159.917 155.092 159.917 152.521C159.917 150.203 159.632 149.187 158.425 147.441C156.87 145.219 153.695 143.346 144.679 139.441C134.362 134.997 129.917 132.235 125.854 127.854C123.505 125.314 121.282 121.251 120.362 117.854C119.6 115.028 119.409 107.949 120.013 105.092C122.14 95.1237 129.663 88.1713 140.521 86.1078C144.044 85.4412 152.235 85.6951 155.695 86.5523ZM108.743 94.9015L108.806 103.092H95.7904H82.7745L82.7745 140.076L82.7745 177.06H73.5681H64.3618L64.3618 140.076L64.3618 103.092H51.3459H38.33L38.33 95.0602C38.33 90.6158 38.4253 86.9015 38.5523 86.8062C38.6475 86.6793 54.4888 86.6158 73.6951 86.6475L108.647 86.7428L108.743 94.9015Z"
                      fill="#007ACC"/>
            </g>
        </g>
        <defs>
            <clipPath id="clip0_126_1545">
                <rect width="200" height="200" fill="white"/>
            </clipPath>
        </defs>
    </g>
    <g id="bootstrap">
        <g clip-path="url(#clip0_126_1556)">
            <path d="M0 174.212C0 188.456 11.5457 200 25.7881 200H174.212C188.456 200 200 188.454 200 174.212V25.7881C200 11.5442 188.454 0 174.212 0H25.7881C11.5442 0 0 11.5457 0 25.7881V174.212Z"
                  fill="#563D7C"/>
            <path d="M82.9357 88.4673V60.1442H107.867C110.241 60.1442 112.531 60.3421 114.735 60.7378C116.94 61.1335 118.891 61.8402 120.587 62.8578C122.283 63.8754 123.639 65.2887 124.657 67.0978C125.675 68.9068 126.183 71.2247 126.183 74.0513C126.183 79.1393 124.657 82.814 121.604 85.0753C118.551 87.3366 114.651 88.4673 109.902 88.4673H82.9357ZM56.3086 39.4531V160.547H114.99C120.417 160.547 125.703 159.868 130.847 158.512C135.992 157.155 140.571 155.063 144.585 152.237C148.599 149.41 151.793 145.764 154.167 141.297C156.542 136.831 157.729 131.545 157.729 125.44C157.729 117.864 155.892 111.391 152.217 106.021C148.542 100.65 142.974 96.8907 135.511 94.7424C140.939 92.1419 145.037 88.8065 147.807 84.7361C150.577 80.6657 151.962 75.5778 151.962 69.4722C151.962 63.8188 151.03 59.0701 149.164 55.2258C147.299 51.3816 144.67 48.3006 141.278 45.9827C137.886 43.6648 133.815 41.9971 129.067 40.9795C124.318 39.9619 119.06 39.4531 113.294 39.4531H56.3086ZM82.9357 139.856V106.614H111.937C117.703 106.614 122.339 107.943 125.844 110.6C129.349 113.257 131.102 117.695 131.102 123.913C131.102 127.079 130.565 129.68 129.491 131.715C128.416 133.75 126.975 135.361 125.166 136.549C123.357 137.736 121.265 138.584 118.891 139.093C116.516 139.601 114.029 139.856 111.428 139.856H82.9357Z"
                  fill="white"/>
        </g>
        <defs>
            <clipPath id="clip0_126_1556">
                <rect width="200" height="200" fill="white"/>
            </clipPath>
        </defs>
    </g>
</svg>




