<svg width="52" height="52" viewBox="0 0 52 52" fill="none" xmlns="http://www.w3.org/2000/svg">
    <g id="code">
        <path fill-rule="evenodd" clip-rule="evenodd"
              d="M39 0H26V13H13H0V26V39V52H13H26V39H39H52V26V13V0H39ZM13 39H26V26H39V13H26V26H13V39Z"/>
    </g>

    <g id="figma">
        <path d="M16 16C16 15.1159 16.3687 14.2681 17.0251 13.643C17.6815 13.0179 18.5717 12.6667 19.5 12.6667C20.4283 12.6667 21.3185 13.0179 21.9749 13.643C22.6313 14.2681 23 15.1159 23 16C23 16.8841 22.6313 17.7319 21.9749 18.357C21.3185 18.9821 20.4283 19.3333 19.5 19.3333C18.5717 19.3333 17.6815 18.9821 17.0251 18.357C16.3687 17.7319 16 16.8841 16 16ZM9 22.6667C9 21.7826 9.36875 20.9348 10.0251 20.3096C10.6815 19.6845 11.5717 19.3333 12.5 19.3333H16V22.6667C16 23.5507 15.6313 24.3986 14.9749 25.0237C14.3185 25.6488 13.4283 26 12.5 26C11.5717 26 10.6815 25.6488 10.0251 25.0237C9.36875 24.3986 9 23.5507 9 22.6667ZM16 6V12.6667H19.5C20.4283 12.6667 21.3185 12.3155 21.9749 11.6904C22.6313 11.0652 23 10.2174 23 9.33333C23 8.44928 22.6313 7.60143 21.9749 6.97631C21.3185 6.35119 20.4283 6 19.5 6H16ZM9 9.33333C9 10.2174 9.36875 11.0652 10.0251 11.6904C10.6815 12.3155 11.5717 12.6667 12.5 12.6667H16V6H12.5C11.5717 6 10.6815 6.35119 10.0251 6.97631C9.36875 7.60143 9 8.44928 9 9.33333ZM9 16C9 16.8841 9.36875 17.7319 10.0251 18.357C10.6815 18.9821 11.5717 19.3333 12.5 19.3333H16V12.6667H12.5C11.5717 12.6667 10.6815 13.0179 10.0251 13.643C9.36875 14.2681 9 15.1159 9 16Z"
              fill="#ABB2BF"/>
    </g>

    <g id="github">
        <path d="M15.5 6C9.69875 6 5 10.5882 5 16.2529C5 20.7899 8.00562 24.6219 12.1794 25.9804C12.7044 26.0701 12.9012 25.7625 12.9012 25.4934C12.9012 25.2499 12.8881 24.4425 12.8881 23.5838C10.25 24.058 9.5675 22.9558 9.3575 22.3791C9.23938 22.0843 8.7275 21.1743 8.28125 20.9308C7.91375 20.7386 7.38875 20.2644 8.26813 20.2516C9.095 20.2388 9.68563 20.9949 9.8825 21.3025C10.8275 22.8533 12.3369 22.4175 12.9406 22.1484C13.0325 21.4819 13.3081 21.0334 13.61 20.777C11.2737 20.5207 8.8325 19.6364 8.8325 15.7147C8.8325 14.5997 9.23938 13.6769 9.90875 12.9592C9.80375 12.7029 9.43625 11.6519 10.0138 10.2422C10.0138 10.2422 10.8931 9.97301 12.9012 11.2931C13.7413 11.0624 14.6338 10.947 15.5263 10.947C16.4188 10.947 17.3113 11.0624 18.1513 11.2931C20.1594 9.9602 21.0387 10.2422 21.0387 10.2422C21.6163 11.6519 21.2488 12.7029 21.1438 12.9592C21.8131 13.6769 22.22 14.5868 22.22 15.7147C22.22 19.6492 19.7656 20.5207 17.4294 20.777C17.81 21.0975 18.1381 21.7126 18.1381 22.6738C18.1381 24.0452 18.125 25.1474 18.125 25.4934C18.125 25.7625 18.3219 26.0829 18.8469 25.9804C20.9314 25.2935 22.7428 23.9854 24.026 22.2403C25.3092 20.4953 25.9996 18.4012 26 16.2529C26 10.5882 21.3013 6 15.5 6Z"
              fill="#ABB2BF"/>
    </g>

    <g id="square">
        <circle cx="2" cy="2" r="2" fill="#ABB2BF"/>
        <circle cx="22" cy="2" r="2" fill="#ABB2BF"/>
        <circle cx="42" cy="2" r="2" fill="#ABB2BF"/>
        <circle cx="62" cy="2" r="2" fill="#ABB2BF"/>
        <circle cx="82" cy="2" r="2" fill="#ABB2BF"/>
        <circle cx="2" cy="22" r="2" fill="#ABB2BF"/>
        <circle cx="22" cy="22" r="2" fill="#ABB2BF"/>
        <circle cx="42" cy="22" r="2" fill="#ABB2BF"/>
        <circle cx="62" cy="22" r="2" fill="#ABB2BF"/>
        <circle cx="82" cy="22" r="2" fill="#ABB2BF"/>
        <circle cx="2" cy="42" r="2" fill="#ABB2BF"/>
        <circle cx="22" cy="42" r="2" fill="#ABB2BF"/>
        <circle cx="42" cy="42" r="2" fill="#ABB2BF"/>
        <circle cx="62" cy="42" r="2" fill="#ABB2BF"/>
        <circle cx="82" cy="42" r="2" fill="#ABB2BF"/>
        <circle cx="2" cy="62" r="2" fill="#ABB2BF"/>
        <circle cx="22" cy="62" r="2" fill="#ABB2BF"/>
        <circle cx="42" cy="62" r="2" fill="#ABB2BF"/>
        <circle cx="62" cy="62" r="2" fill="#ABB2BF"/>
        <circle cx="82" cy="62" r="2" fill="#ABB2BF"/>
        <circle cx="2" cy="82" r="2" fill="#ABB2BF"/>
        <circle cx="22" cy="82" r="2" fill="#ABB2BF"/>
        <circle cx="42" cy="82" r="2" fill="#ABB2BF"/>
        <circle cx="62" cy="82" r="2" fill="#ABB2BF"/>
        <circle cx="82" cy="82" r="2" fill="#ABB2BF"/>
    </g>

    <g id="dribble">
        <path fill-rule="evenodd" clip-rule="evenodd"
              d="M16.5 4C10.152 4 5 9.152 5 15.5C5 21.848 10.152 27 16.5 27C22.8365 27 28 21.848 28 15.5C28 9.152 22.8365 4 16.5 4ZM24.0958 9.3015C25.5115 11.0255 26.2951 13.1817 26.3167 15.4123C25.9918 15.3505 22.7488 14.6892 19.4814 15.1004C19.4066 14.9394 19.3434 14.764 19.2686 14.5901C19.0688 14.1157 18.8446 13.6298 18.6203 13.1669C22.2371 11.6964 23.8844 9.57606 24.0972 9.30006L24.0958 9.3015ZM16.5 5.69625C18.9941 5.69625 21.2768 6.63063 23.0119 8.16587C22.8365 8.416 21.3516 10.3983 17.8599 11.7079C16.2499 8.75238 14.4674 6.33162 14.1928 5.95788C14.9491 5.78129 15.7234 5.69349 16.5 5.69625ZM12.3212 6.61913C13.6375 8.44338 14.8535 10.3379 15.9638 12.2944C11.3739 13.5162 7.32012 13.4918 6.88312 13.4918C7.19917 12.005 7.85438 10.6114 8.79766 9.41949C9.74094 8.22761 10.9468 7.26973 12.3212 6.62056V6.61913ZM6.67181 15.5144V15.2125C7.09588 15.2269 11.8612 15.2887 16.7631 13.8167C17.0491 14.3644 17.3108 14.9264 17.5609 15.4871L17.1728 15.5992C12.1099 17.2336 9.416 21.6985 9.19031 22.0737C7.56856 20.2734 6.67131 17.936 6.67181 15.5129V15.5144ZM16.5 25.3282C14.3172 25.3316 12.1964 24.6027 10.4769 23.2582C10.6494 22.8959 12.6461 19.0549 18.1833 17.1215C18.2092 17.1086 18.2207 17.1086 18.2466 17.0971C19.1801 19.5068 19.8814 22.0002 20.341 24.5433C19.1277 25.0646 17.8205 25.3318 16.5 25.3282ZM21.9769 23.6449C21.8763 23.0454 21.3516 20.1776 20.0679 16.6471C23.1484 16.1613 25.8423 16.9591 26.1787 17.0712C25.9692 18.3975 25.4876 19.6662 24.7643 20.7974C24.0409 21.9287 23.0914 22.8982 21.9754 23.6449H21.9769Z"
              fill="#ABB2BF"/>
    </g>

    <g id="logoSquare">
        <mask id="path-1-inside-1_1103_3692" fill="white">
            <path fill-rule="evenodd" clip-rule="evenodd"
                  d="M0 39.75H38.75H77.5V78.5H38.75V117.25H77.5V156H38.75H0V117.25V78.5V39.75Z"/>
        </mask>
        <path d="M0 39.75V38.75H-1V39.75H0ZM77.5 39.75H78.5V38.75H77.5V39.75ZM77.5 78.5V79.5H78.5V78.5H77.5ZM38.75 78.5V77.5H37.75V78.5H38.75ZM38.75 117.25H37.75V118.25H38.75V117.25ZM77.5 117.25H78.5V116.25H77.5V117.25ZM77.5 156V157H78.5V156H77.5ZM0 156H-1V157H0V156ZM38.75 38.75H0V40.75H38.75V38.75ZM77.5 38.75H38.75V40.75H77.5V38.75ZM78.5 78.5V39.75H76.5V78.5H78.5ZM38.75 79.5H77.5V77.5H38.75V79.5ZM39.75 117.25V78.5H37.75V117.25H39.75ZM38.75 118.25H77.5V116.25H38.75V118.25ZM76.5 117.25V156H78.5V117.25H76.5ZM77.5 155H38.75V157H77.5V155ZM0 157H38.75V155H0V157ZM-1 117.25V156H1V117.25H-1ZM-1 78.5V117.25H1V78.5H-1ZM-1 39.75V78.5H1V39.75H-1Z"
              fill="#C778DD" mask="url(#path-1-inside-1_1103_3692)"/>
        <mask id="path-3-outside-2_1103_3692" maskUnits="userSpaceOnUse" x="76.5" y="0" width="80" height="119"
              fill="black">
            <rect fill="white" x="76.5" width="80" height="119"/>
            <path fill-rule="evenodd" clip-rule="evenodd"
                  d="M77.5 1H116.25H155V39.75V78.5V117.25H116.25H77.5V78.5H116.25V39.75H77.5V1Z"/>
        </mask>
        <path d="M77.5 1V0H76.5V1H77.5ZM155 1H156V0H155V1ZM155 117.25V118.25H156V117.25H155ZM77.5 117.25H76.5V118.25H77.5V117.25ZM77.5 78.5V77.5H76.5V78.5H77.5ZM116.25 78.5V79.5H117.25V78.5H116.25ZM116.25 39.75H117.25V38.75H116.25V39.75ZM77.5 39.75H76.5V40.75H77.5V39.75ZM116.25 0H77.5V2H116.25V0ZM155 0H116.25V2H155V0ZM156 39.75V1H154V39.75H156ZM156 78.5V39.75H154V78.5H156ZM156 117.25V78.5H154V117.25H156ZM116.25 118.25H155V116.25H116.25V118.25ZM116.25 116.25H77.5V118.25H116.25V116.25ZM78.5 117.25V78.5H76.5V117.25H78.5ZM77.5 79.5H116.25V77.5H77.5V79.5ZM115.25 39.75V78.5H117.25V39.75H115.25ZM77.5 40.75H116.25V38.75H77.5V40.75ZM76.5 1V39.75H78.5V1H76.5Z"
              fill="#C778DD" mask="url(#path-3-outside-2_1103_3692)"/>
    </g>

    <g id="iconColor">
        <rect x="0.5" y="1" width="15" height="15" fill="#C778DD" stroke="#C778DD"/>
    </g>

    <g id="qutes">
        <rect width="41.472" height="28.704" fill="#282C33"/>
        <path d="M18.56 19.616C18.56 21.0453 18.0373 22.2507 16.992 23.232C15.968 24.2133 14.72 24.704 13.248 24.704C11.7333 24.704 10.4747 24.2133 9.472 23.232C8.49067 22.2507 8 21.0453 8 19.616C8 18.9333 8.096 18.208 8.288 17.44C8.48 16.672 8.864 15.68 9.44 14.464L14.4 4H19.2L16.544 15.584C17.1413 16.0107 17.6213 16.576 17.984 17.28C18.368 17.9627 18.56 18.7413 18.56 19.616ZM32.8 19.616C32.8 21.0453 32.2773 22.2507 31.232 23.232C30.1867 24.2133 28.9387 24.704 27.488 24.704C26.016 24.704 24.768 24.2133 23.744 23.232C22.7413 22.2507 22.24 21.0453 22.24 19.616C22.24 18.9333 22.336 18.208 22.528 17.44C22.72 16.672 23.1147 15.68 23.712 14.464L28.704 4H33.472L30.784 15.584C31.4027 16.0107 31.8933 16.576 32.256 17.28C32.6187 17.9627 32.8 18.7413 32.8 19.616Z"
              fill="#ABB2BF"/>
    </g>
    <g id="rectangle">
        <rect x="0.5" y="0.5" width="85" height="85" stroke="#ABB2BF"/>
    </g>
    <g id="rectangleMini">
        <rect x="0.5" y="0.5" width="51" height="51" stroke="#ABB2BF"/>
    </g>
    <g id="javascript">
        <g clip-path="url(#clip0_1_405)">
            <path d="M35.4167 1.61203e-05H164.583C169.236 -0.00448106 173.843 0.932018 178.142 2.75592C182.441 4.57981 186.347 7.25531 189.636 10.6293C192.926 14.0032 195.535 18.0094 197.313 22.4186C199.091 26.8277 200.004 31.5533 200 36.3248V163.675C200.004 168.447 199.091 173.172 197.313 177.581C195.535 181.991 192.926 185.997 189.636 189.371C186.347 192.745 182.441 195.42 178.142 197.244C173.843 199.068 169.236 200.004 164.583 200H35.4167C30.7645 200.004 26.157 199.068 21.8581 197.244C17.5592 195.42 13.6532 192.745 10.3635 189.371C7.07392 185.997 4.46532 181.991 2.68702 177.581C0.908717 173.172 -0.00436903 168.447 1.57173e-05 163.675V36.3248C-0.00436903 31.5533 0.908717 26.8277 2.68702 22.4186C4.46532 18.0094 7.07392 14.0032 10.3635 10.6293C13.6532 7.25531 17.5592 4.57981 21.8581 2.75592C26.157 0.932018 30.7645 -0.00448106 35.4167 1.61203e-05Z"
                  fill="#F7DF1E"/>
            <path d="M134.689 156.492C138.717 163.07 143.959 167.905 153.229 167.905C161.016 167.905 165.99 164.013 165.99 158.635C165.99 152.19 160.879 149.908 152.308 146.159L147.61 144.143C134.048 138.365 125.038 131.127 125.038 115.825C125.038 101.73 135.778 91 152.562 91C164.511 91 173.102 95.1587 179.292 106.048L164.657 115.444C161.435 109.667 157.959 107.39 152.562 107.39C147.057 107.39 143.568 110.883 143.568 115.444C143.568 121.083 147.06 123.365 155.124 126.857L159.822 128.87C175.79 135.717 184.806 142.698 184.806 158.394C184.806 175.314 171.514 184.584 153.663 184.584C136.21 184.584 124.933 176.267 119.416 165.365L134.689 156.492ZM68.2984 158.121C71.2508 163.359 73.9365 167.787 80.3937 167.787C86.5683 167.787 90.4635 165.371 90.4635 155.978V92.073H109.257V156.232C109.257 175.692 97.8476 184.549 81.1937 184.549C66.146 184.549 57.4317 176.762 53 167.383L68.2984 158.121Z"
                  fill="black"/>
        </g>
        <defs>
            <clipPath id="clip0_1_405">
                <rect width="200" height="200" fill="white"/>
            </clipPath>
        </defs>
    </g>
    <g id="html">
        <g clip-path="url(#clip0_7_116)">
            <path d="M35.4167 1.61203e-05H164.583C169.236 -0.00448106 173.843 0.932018 178.142 2.75592C182.441 4.57981 186.347 7.25531 189.636 10.6293C192.926 14.0032 195.535 18.0094 197.313 22.4186C199.091 26.8277 200.004 31.5533 200 36.3248V163.675C200.004 168.447 199.091 173.172 197.313 177.581C195.535 181.991 192.926 185.997 189.636 189.371C186.347 192.745 182.441 195.42 178.142 197.244C173.843 199.068 169.236 200.004 164.583 200H35.4167C30.7645 200.004 26.157 199.068 21.8581 197.244C17.5592 195.42 13.6532 192.745 10.3635 189.371C7.07392 185.997 4.46532 181.991 2.68702 177.581C0.908717 173.172 -0.00436903 168.447 1.57173e-05 163.675V36.3248C-0.00436903 31.5533 0.908717 26.8277 2.68702 22.4186C4.46532 18.0094 7.07392 14.0032 10.3635 10.6293C13.6532 7.25531 17.5592 4.57981 21.8581 2.75592C26.157 0.932018 30.7645 -0.00448106 35.4167 1.61203e-05Z"
                  fill="#F16529"/>
            <path d="M68.9996 59.9601H100.066V38H45L45.5253 43.8914L50.9231 104.408H100.066V82.4476H71.0067L68.9996 59.9601ZM73.949 115.388H51.9043L54.9806 149.869L99.9646 162.356L100.066 162.328V139.481L99.9694 139.506L75.5126 132.902L73.949 115.388Z"
                  fill="#EBEBEB"/>
            <path d="M99.9901 104.408H127.032L124.482 132.888L99.9894 139.499V162.346L145.009 149.869L145.339 146.159L150.5 88.3446L151.036 82.4476H99.9901V104.408ZM99.9901 59.9065V59.9601H153.034L153.474 55.0245L154.475 43.8914L155 38H99.9901V59.9072V59.9065Z"
                  fill="white"/>
        </g>
        <defs>
            <clipPath id="clip0_7_116">
                <rect width="200" height="200" fill="white"/>
            </clipPath>
        </defs>
    </g>
    <g id="css">
        <g clip-path="url(#clip0_7_123)">
            <path d="M35.4167 1.61203e-05H164.583C169.236 -0.00448106 173.843 0.932018 178.142 2.75592C182.441 4.57981 186.347 7.25531 189.636 10.6293C192.926 14.0032 195.535 18.0094 197.313 22.4186C199.091 26.8277 200.004 31.5533 200 36.3248V163.675C200.004 168.447 199.091 173.172 197.313 177.581C195.535 181.991 192.926 185.997 189.636 189.371C186.347 192.745 182.441 195.42 178.142 197.244C173.843 199.068 169.236 200.004 164.583 200H35.4167C30.7645 200.004 26.157 199.068 21.8581 197.244C17.5592 195.42 13.6532 192.745 10.3635 189.371C7.07392 185.997 4.46532 181.991 2.68702 177.581C0.908717 173.172 -0.00436903 168.447 1.57173e-05 163.675V36.3248C-0.00436903 31.5533 0.908717 26.8277 2.68702 22.4186C4.46532 18.0094 7.07392 14.0032 10.3635 10.6293C13.6532 7.25531 17.5592 4.57981 21.8581 2.75592C26.157 0.932018 30.7645 -0.00448106 35.4167 1.61203e-05Z"
                  fill="#2965F1"/>
            <path d="M48.9551 82.4476L50.9231 104.408H100.066V82.4476H48.9551ZM45 38L46.9961 59.9601H100.066V38H45ZM100.066 139.481L99.9694 139.506L75.5126 132.902L73.949 115.388H51.9043L54.9806 149.869L99.9646 162.356L100.066 162.328V139.481Z"
                  fill="#EBEBEB"/>
            <path d="M151.036 82.4476L155 38H99.9901V59.9601H130.934L128.936 82.4476H99.9901V104.408H127.032L124.482 132.888L99.9894 139.499V162.346L145.009 149.869L145.339 146.159L150.5 88.3446L151.036 82.4476Z"
                  fill="white"/>
        </g>
        <defs>
            <clipPath id="clip0_7_123">
                <rect width="200" height="200" fill="white"/>
            </clipPath>
        </defs>
    </g>
    <g id="sass">
        <g clip-path="url(#clip0_1_451)">
            <path d="M35.4167 1.61203e-05H164.583C169.236 -0.00448106 173.843 0.932018 178.142 2.75592C182.441 4.57981 186.347 7.25531 189.636 10.6293C192.926 14.0032 195.535 18.0094 197.313 22.4186C199.091 26.8277 200.004 31.5533 200 36.3248V163.675C200.004 168.447 199.091 173.172 197.313 177.581C195.535 181.991 192.926 185.997 189.636 189.371C186.347 192.745 182.441 195.42 178.142 197.244C173.843 199.068 169.236 200.004 164.583 200H35.4167C30.7645 200.004 26.157 199.068 21.8581 197.244C17.5592 195.42 13.6532 192.745 10.3635 189.371C7.07392 185.997 4.46532 181.991 2.68702 177.581C0.908717 173.172 -0.00436903 168.447 1.57173e-05 163.675V36.3248C-0.00436903 31.5533 0.908717 26.8277 2.68702 22.4186C4.46532 18.0094 7.07392 14.0032 10.3635 10.6293C13.6532 7.25531 17.5592 4.57981 21.8581 2.75592C26.157 0.932018 30.7645 -0.00448106 35.4167 1.61203e-05Z"
                  fill="#000B1D"/>
            <g clip-path="url(#clip1_1_451)">
                <path d="M154.801 109.098C149.501 109.126 144.895 110.415 141.038 112.319C139.623 109.49 138.208 106.97 137.958 105.121C137.681 102.965 137.348 101.648 137.681 99.0714C138.014 96.4947 139.512 92.8257 139.484 92.5456C139.457 92.2655 139.151 90.9492 136.099 90.9212C133.047 90.8932 130.411 91.5093 130.106 92.3215C129.801 93.1338 129.218 94.9823 128.829 96.8868C128.302 99.6876 122.725 109.686 119.534 114.924C118.507 112.879 117.62 111.087 117.425 109.658C117.148 107.502 116.815 106.185 117.148 103.609C117.481 101.032 118.979 97.3629 118.951 97.0829C118.924 96.8028 118.618 95.4864 115.566 95.4584C112.514 95.4304 109.878 96.0466 109.573 96.8588C109.268 97.671 108.935 99.5756 108.296 101.424C107.658 103.273 100.25 119.965 98.3074 124.278C97.3085 126.491 96.4483 128.256 95.8378 129.46C95.8378 129.46 95.8101 129.544 95.7269 129.684C95.1997 130.72 94.8944 131.28 94.8944 131.28C94.8944 131.28 94.8944 131.28 94.8944 131.308C94.4782 132.065 94.0343 132.765 93.8123 132.765C93.6458 132.765 93.3406 130.748 93.8678 128.003C94.9777 122.206 97.6137 113.187 97.5859 112.879C97.5859 112.711 98.0854 111.143 95.8656 110.331C93.7013 109.518 92.9244 110.863 92.7301 110.863C92.5359 110.863 92.3972 111.339 92.3972 111.339C92.3972 111.339 94.8112 101.2 87.7911 101.2C83.407 101.2 77.3581 106.045 74.3614 110.415C72.4746 111.451 68.4512 113.663 64.1504 116.044C62.5133 116.968 60.8207 117.893 59.2391 118.761C59.1281 118.649 59.0171 118.509 58.9061 118.397C50.4154 109.238 34.7104 102.768 35.3764 90.473C35.6261 85.9918 37.1522 74.2285 65.5377 59.9445C88.901 48.3213 107.492 51.5422 110.71 58.6842C115.316 68.879 100.749 87.8123 76.6089 90.5571C67.3968 91.5933 62.5688 88.0083 61.3479 86.664C60.0715 85.2636 59.8773 85.1796 59.4056 85.4596C58.6287 85.8798 59.1281 87.1401 59.4056 87.8683C60.127 89.7728 63.096 93.1338 68.1182 94.7862C72.5578 96.2426 83.3515 97.0549 96.4205 91.9574C111.043 86.2439 122.475 70.3634 119.118 57.0597C115.76 43.56 93.5626 39.1067 72.5578 46.6408C60.0715 51.1221 46.5308 58.18 36.7915 67.3666C25.2208 78.2896 23.3895 87.7843 24.1387 91.7614C26.8302 105.877 46.1146 115.064 53.8284 121.87C53.4399 122.094 53.0792 122.29 52.774 122.458C48.9171 124.39 34.211 132.149 30.5483 140.355C26.3862 149.653 31.2143 156.319 34.4052 157.216C44.311 159.988 54.4943 155.003 59.9605 146.769C65.4268 138.534 64.7608 127.835 62.2358 122.934C62.2081 122.878 62.1803 122.822 62.1248 122.766C63.1237 122.178 64.1504 121.562 65.1493 120.974C67.1193 119.797 69.0616 118.705 70.7265 117.809C69.7831 120.413 69.0894 123.522 68.7564 128.003C68.3402 133.269 70.4768 140.103 73.2793 142.792C74.5279 143.968 75.9985 143.996 76.9419 143.996C80.2161 143.996 81.6867 141.251 83.3238 138.002C85.3216 134.025 87.1252 129.404 87.1252 129.404C87.1252 129.404 84.8776 141.895 90.9821 141.895C93.2019 141.895 95.4494 138.983 96.4483 137.498C96.4483 137.526 96.4483 137.526 96.4483 137.526C96.4483 137.526 96.5038 137.442 96.6148 137.246C96.8368 136.882 96.9755 136.658 96.9755 136.658C96.9755 136.658 96.9755 136.63 96.9755 136.602C97.8634 135.033 99.8612 131.476 102.83 125.567C106.659 117.949 110.35 108.426 110.35 108.426C110.35 108.426 110.683 110.751 111.82 114.616C112.486 116.884 113.874 119.377 114.984 121.786C114.096 123.046 113.541 123.746 113.541 123.746C113.541 123.746 113.541 123.746 113.568 123.774C112.847 124.727 112.07 125.763 111.21 126.771C108.185 130.412 104.578 134.585 104.079 135.79C103.496 137.218 103.635 138.254 104.745 139.095C105.549 139.711 106.992 139.795 108.463 139.711C111.182 139.515 113.097 138.842 114.04 138.422C115.511 137.89 117.231 137.078 118.84 135.874C121.809 133.661 123.613 130.496 123.446 126.323C123.363 124.026 122.614 121.73 121.698 119.573C121.976 119.181 122.226 118.789 122.503 118.397C127.192 111.479 130.827 103.889 130.827 103.889C130.827 103.889 131.16 106.213 132.298 110.078C132.853 112.039 133.99 114.168 134.989 116.24C130.578 119.853 127.858 124.054 126.887 126.799C125.139 131.897 126.499 134.193 129.079 134.725C130.245 134.977 131.909 134.417 133.13 133.885C134.684 133.381 136.515 132.513 138.264 131.224C141.233 129.012 144.09 125.931 143.924 121.758C143.841 119.853 143.341 117.977 142.648 116.156C146.394 114.588 151.222 113.719 157.381 114.448C170.589 116.016 173.197 124.334 172.698 127.835C172.199 131.336 169.424 133.241 168.508 133.829C167.593 134.417 167.287 134.613 167.371 135.033C167.482 135.65 167.925 135.622 168.702 135.51C169.785 135.313 175.639 132.681 175.889 126.239C176.305 118.005 168.536 109.014 154.801 109.098ZM52.9127 143.772C48.5286 148.589 42.4242 150.41 39.7882 148.869C36.958 147.217 38.0679 140.103 43.4508 135.005C46.725 131.897 50.9426 129.012 53.7451 127.247C54.3833 126.855 55.3267 126.295 56.4644 125.595C56.6586 125.483 56.7696 125.427 56.7696 125.427C56.9916 125.287 57.2135 125.147 57.4355 125.007C59.4056 132.289 57.5188 138.702 52.9127 143.772ZM84.8221 121.87C83.296 125.623 80.1051 135.229 78.1628 134.697C76.4979 134.249 75.4713 126.967 77.8298 119.769C79.023 116.156 81.548 111.843 83.0186 110.163C85.4048 107.474 88.0408 106.578 88.679 107.67C89.4837 109.098 85.7656 119.517 84.8221 121.87ZM111.154 134.585C110.516 134.921 109.906 135.145 109.628 134.977C109.434 134.865 109.906 134.417 109.906 134.417C109.906 134.417 113.208 130.832 114.512 129.208C115.261 128.256 116.149 127.135 117.092 125.875C117.092 125.987 117.092 126.127 117.092 126.239C117.092 130.524 112.986 133.409 111.154 134.585ZM131.465 129.908C130.994 129.572 131.077 128.452 132.659 124.951C133.269 123.578 134.712 121.282 137.181 119.069C137.459 119.965 137.653 120.833 137.625 121.646C137.598 127.051 133.768 129.068 131.465 129.908Z"
                      fill="#CD6799"/>
            </g>
        </g>
        <defs>
            <clipPath id="clip0_1_451">
                <rect width="200" height="200" fill="white"/>
            </clipPath>
            <clipPath id="clip1_1_451">
                <rect width="152" height="115" fill="white" transform="translate(24 43)"/>
            </clipPath>
        </defs>
    </g>
    <g id="ts">
        <g clip-path="url(#clip0_126_1545)">
            <path d="M158.904 2.73972H41.0959C19.9124 2.73972 2.73975 19.9124 2.73975 41.0959V158.904C2.73975 180.088 19.9124 197.26 41.0959 197.26H158.904C180.088 197.26 197.26 180.088 197.26 158.904V41.0959C197.26 19.9124 180.088 2.73972 158.904 2.73972Z"
                  fill="white" stroke="#003355" stroke-width="21.9178"/>
            <path d="M158.904 2.73972H41.0959C19.9124 2.73972 2.73975 19.9124 2.73975 41.0959V158.904C2.73975 180.088 19.9124 197.26 41.0959 197.26H158.904C180.088 197.26 197.26 180.088 197.26 158.904V41.0959C197.26 19.9124 180.088 2.73972 158.904 2.73972Z"
                  stroke="#003355" stroke-width="21.9178"/>
            <mask id="mask0_126_1545" style="mask-type:luminance" maskUnits="userSpaceOnUse" x="5" y="5" width="190"
                  height="190">
                <path d="M156.164 5.47943H43.8357C22.6521 5.47943 5.47949 22.6521 5.47949 43.8356V156.164C5.47949 177.348 22.6521 194.521 43.8357 194.521H156.164C177.348 194.521 194.521 177.348 194.521 156.164V43.8356C194.521 22.6521 177.348 5.47943 156.164 5.47943Z"
                      fill="white"/>
            </mask>
            <g mask="url(#mask0_126_1545)">
                <path d="M-5.47949 94.5205L-5.47949 194.521H94.5205H194.521L194.521 94.5205L194.521 -5.47946H94.5205H-5.47949L-5.47949 94.5205ZM155.695 86.5523C160.774 87.8221 164.647 90.0761 168.203 93.7586C170.044 95.7269 172.774 99.3142 172.997 100.171C173.06 100.425 164.362 106.267 159.092 109.536C158.901 109.663 158.14 108.838 157.282 107.568C154.711 103.822 152.013 102.203 147.886 101.917C141.822 101.505 137.917 104.679 137.949 109.981C137.949 111.536 138.171 112.457 138.806 113.727C140.14 116.489 142.616 118.14 150.394 121.505C164.711 127.663 170.838 131.727 174.647 137.505C178.901 143.949 179.854 154.235 176.965 161.886C173.79 170.203 165.917 175.854 154.838 177.727C151.409 178.33 143.282 178.235 139.6 177.568C131.568 176.14 123.949 172.171 119.251 166.965C117.409 164.933 113.822 159.632 114.044 159.251C114.14 159.124 114.965 158.616 115.886 158.076C116.774 157.568 120.14 155.632 123.314 153.79L129.06 150.457L130.267 152.235C131.949 154.806 135.632 158.33 137.854 159.505C144.235 162.87 152.997 162.394 157.314 158.521C159.155 156.838 159.917 155.092 159.917 152.521C159.917 150.203 159.632 149.187 158.425 147.441C156.87 145.219 153.695 143.346 144.679 139.441C134.362 134.997 129.917 132.235 125.854 127.854C123.505 125.314 121.282 121.251 120.362 117.854C119.6 115.028 119.409 107.949 120.013 105.092C122.14 95.1237 129.663 88.1713 140.521 86.1078C144.044 85.4412 152.235 85.6951 155.695 86.5523ZM108.743 94.9015L108.806 103.092H95.7904H82.7745L82.7745 140.076L82.7745 177.06H73.5681H64.3618L64.3618 140.076L64.3618 103.092H51.3459H38.33L38.33 95.0602C38.33 90.6158 38.4253 86.9015 38.5523 86.8062C38.6475 86.6793 54.4888 86.6158 73.6951 86.6475L108.647 86.7428L108.743 94.9015Z"
                      fill="#007ACC"/>
            </g>
        </g>
        <defs>
            <clipPath id="clip0_126_1545">
                <rect width="200" height="200" fill="white"/>
            </clipPath>
        </defs>
    </g>
    <g id="bootstrap">
        <g clip-path="url(#clip0_126_1556)">
            <path d="M0 174.212C0 188.456 11.5457 200 25.7881 200H174.212C188.456 200 200 188.454 200 174.212V25.7881C200 11.5442 188.454 0 174.212 0H25.7881C11.5442 0 0 11.5457 0 25.7881V174.212Z"
                  fill="#563D7C"/>
            <path d="M82.9357 88.4673V60.1442H107.867C110.241 60.1442 112.531 60.3421 114.735 60.7378C116.94 61.1335 118.891 61.8402 120.587 62.8578C122.283 63.8754 123.639 65.2887 124.657 67.0978C125.675 68.9068 126.183 71.2247 126.183 74.0513C126.183 79.1393 124.657 82.814 121.604 85.0753C118.551 87.3366 114.651 88.4673 109.902 88.4673H82.9357ZM56.3086 39.4531V160.547H114.99C120.417 160.547 125.703 159.868 130.847 158.512C135.992 157.155 140.571 155.063 144.585 152.237C148.599 149.41 151.793 145.764 154.167 141.297C156.542 136.831 157.729 131.545 157.729 125.44C157.729 117.864 155.892 111.391 152.217 106.021C148.542 100.65 142.974 96.8907 135.511 94.7424C140.939 92.1419 145.037 88.8065 147.807 84.7361C150.577 80.6657 151.962 75.5778 151.962 69.4722C151.962 63.8188 151.03 59.0701 149.164 55.2258C147.299 51.3816 144.67 48.3006 141.278 45.9827C137.886 43.6648 133.815 41.9971 129.067 40.9795C124.318 39.9619 119.06 39.4531 113.294 39.4531H56.3086ZM82.9357 139.856V106.614H111.937C117.703 106.614 122.339 107.943 125.844 110.6C129.349 113.257 131.102 117.695 131.102 123.913C131.102 127.079 130.565 129.68 129.491 131.715C128.416 133.75 126.975 135.361 125.166 136.549C123.357 137.736 121.265 138.584 118.891 139.093C116.516 139.601 114.029 139.856 111.428 139.856H82.9357Z"
                  fill="white"/>
        </g>
        <defs>
            <clipPath id="clip0_126_1556">
                <rect width="200" height="200" fill="white"/>
            </clipPath>
        </defs>
    </g>
    <g id="view">
        <path d="M4.84 11.24L7.48 1.96H9.36L5.864 13H3.736L0.24 1.96H2.224L4.84 11.24ZM15.6338 4.552V11.688H17.9298V13H11.3138V11.688H13.8418V5.864H11.3938V4.552H15.6338ZM14.3858 0.415999C14.7378 0.415999 15.0204 0.522666 15.2338 0.735999C15.4524 0.949333 15.5618 1.216 15.5618 1.536C15.5618 1.856 15.4524 2.12533 15.2338 2.344C15.0204 2.56267 14.7378 2.672 14.3858 2.672C14.0444 2.672 13.7644 2.56267 13.5458 2.344C13.3271 2.12533 13.2178 1.856 13.2178 1.536C13.2178 1.216 13.3271 0.949333 13.5458 0.735999C13.7644 0.522666 14.0444 0.415999 14.3858 0.415999ZM22.0995 9.352C22.1368 9.928 22.2595 10.4 22.4675 10.768C22.6755 11.1307 22.9475 11.3973 23.2835 11.568C23.6248 11.7387 23.9982 11.824 24.4035 11.824C24.8195 11.824 25.2035 11.76 25.5555 11.632C25.9075 11.504 26.2622 11.3227 26.6195 11.088L27.3955 12.16C27.0008 12.48 26.5395 12.736 26.0115 12.928C25.4835 13.12 24.9182 13.216 24.3155 13.216C23.4408 13.216 22.6995 13.0293 22.0915 12.656C21.4888 12.2827 21.0302 11.7627 20.7155 11.096C20.4008 10.4293 20.2435 9.65867 20.2435 8.784C20.2435 7.936 20.3982 7.17867 20.7075 6.512C21.0168 5.84 21.4595 5.30933 22.0355 4.92C22.6115 4.52533 23.2995 4.328 24.0995 4.328C24.8515 4.328 25.4968 4.49867 26.0355 4.84C26.5795 5.18133 26.9982 5.66667 27.2915 6.296C27.5902 6.92 27.7395 7.672 27.7395 8.552C27.7395 8.696 27.7342 8.84 27.7235 8.984C27.7182 9.12267 27.7102 9.24533 27.6995 9.352H22.0995ZM24.1155 5.656C23.5555 5.656 23.0915 5.856 22.7235 6.256C22.3608 6.656 22.1502 7.28 22.0915 8.128H26.0035C25.9875 7.33333 25.8168 6.72267 25.4915 6.296C25.1715 5.86933 24.7128 5.656 24.1155 5.656ZM36.8133 13H34.5733L33.6213 7L32.5973 13H30.4053L28.9733 4.552H30.7013L31.5813 11.888L32.7573 5.624H34.5493L35.6453 11.888L36.5253 4.552H38.1892L36.8133 13ZM55.8488 10.928C55.8488 11.2587 55.8994 11.5013 56.0008 11.656C56.1021 11.8053 56.2648 11.9173 56.4888 11.992L56.0888 13.208C55.6728 13.16 55.3154 13.0453 55.0168 12.864C54.7181 12.6827 54.4914 12.408 54.3368 12.04C54.0274 12.4293 53.6354 12.7227 53.1608 12.92C52.6861 13.1173 52.1794 13.216 51.6408 13.216C50.7874 13.216 50.1101 12.976 49.6088 12.496C49.1128 12.0107 48.8648 11.376 48.8648 10.592C48.8648 9.70133 49.2114 9.016 49.9048 8.536C50.5981 8.056 51.5901 7.816 52.8808 7.816H54.0888V7.264C54.0888 6.72 53.9234 6.328 53.5928 6.088C53.2674 5.848 52.8061 5.728 52.2088 5.728C51.9314 5.728 51.5954 5.76533 51.2008 5.84C50.8061 5.90933 50.3928 6.01867 49.9608 6.168L49.5208 4.904C50.0488 4.70667 50.5661 4.56267 51.0728 4.472C51.5794 4.376 52.0488 4.328 52.4808 4.328C53.6114 4.328 54.4541 4.57867 55.0088 5.08C55.5688 5.58133 55.8488 6.27467 55.8488 7.16V10.928ZM52.1848 11.896C52.5474 11.896 52.9021 11.8 53.2488 11.608C53.5954 11.416 53.8754 11.1467 54.0888 10.8V8.936H53.0968C52.2541 8.936 51.6514 9.07733 51.2888 9.36C50.9261 9.63733 50.7448 10.0213 50.7448 10.512C50.7448 10.96 50.8648 11.304 51.1048 11.544C51.3501 11.7787 51.7101 11.896 52.1848 11.896ZM62.6985 1.16V10.696C62.6985 11.0853 62.8158 11.3627 63.0505 11.528C63.2905 11.688 63.5998 11.768 63.9785 11.768C64.2238 11.768 64.4558 11.7413 64.6745 11.688C64.8932 11.6347 65.1065 11.568 65.3145 11.488L65.7705 12.736C65.5198 12.864 65.2105 12.976 64.8425 13.072C64.4798 13.168 64.0638 13.216 63.5945 13.216C62.7465 13.216 62.0852 12.9787 61.6105 12.504C61.1412 12.024 60.9065 11.368 60.9065 10.536V2.48H58.3545V1.16H62.6985ZM72.2923 1.16V10.696C72.2923 11.0853 72.4096 11.3627 72.6443 11.528C72.8843 11.688 73.1936 11.768 73.5723 11.768C73.8176 11.768 74.0496 11.7413 74.2683 11.688C74.4869 11.6347 74.7003 11.568 74.9083 11.488L75.3643 12.736C75.1136 12.864 74.8043 12.976 74.4363 13.072C74.0736 13.168 73.6576 13.216 73.1883 13.216C72.3403 13.216 71.6789 12.9787 71.2043 12.504C70.7349 12.024 70.5003 11.368 70.5003 10.536V2.48H67.9483V1.16H72.2923ZM109.283 8.088C109.491 8.088 109.67 8.04 109.819 7.944C109.969 7.848 110.115 7.728 110.259 7.584C110.409 7.44 110.579 7.30133 110.771 7.168C110.963 7.02933 111.203 6.92 111.491 6.84C111.779 6.75467 112.142 6.72533 112.579 6.752V8.376C112.307 8.38133 112.083 8.42933 111.907 8.52C111.731 8.60533 111.569 8.712 111.419 8.84C111.27 8.96267 111.107 9.088 110.931 9.216C110.755 9.33867 110.537 9.44267 110.275 9.528C110.019 9.61333 109.689 9.656 109.283 9.656C108.889 9.656 108.555 9.6 108.283 9.488C108.017 9.37067 107.787 9.22933 107.595 9.064C107.409 8.89333 107.238 8.72533 107.083 8.56C106.934 8.38933 106.779 8.248 106.619 8.136C106.465 8.01867 106.286 7.96 106.083 7.96C105.881 7.96 105.702 8.01333 105.547 8.12C105.393 8.22667 105.238 8.36 105.083 8.52C104.929 8.68 104.758 8.84 104.571 9C104.379 9.16 104.15 9.29333 103.883 9.4C103.617 9.50667 103.283 9.56 102.883 9.56C102.483 9.56 102.147 9.50933 101.875 9.408C101.598 9.30667 101.366 9.184 101.179 9.04C100.993 8.89067 100.827 8.74133 100.683 8.592C100.534 8.44267 100.382 8.32 100.227 8.224C100.073 8.12267 99.8912 8.072 99.6832 8.072C99.4752 8.072 99.2939 8.12533 99.1392 8.232C98.9792 8.33867 98.8246 8.472 98.6752 8.632C98.5206 8.78667 98.3499 8.944 98.1632 9.104C97.9712 9.25867 97.7446 9.38933 97.4832 9.496C97.2166 9.60267 96.8832 9.656 96.4832 9.656C96.0886 9.656 95.7579 9.6 95.4912 9.488C95.2192 9.37067 94.9899 9.22933 94.8032 9.064C94.6112 8.89333 94.4406 8.72533 94.2912 8.56C94.1366 8.38933 93.9819 8.248 93.8272 8.136C93.6672 8.01867 93.4859 7.96 93.2832 7.96C93.0806 7.96 92.9019 8.01333 92.7472 8.12C92.5926 8.22667 92.4379 8.36 92.2832 8.52C92.1286 8.68 91.9579 8.84 91.7712 9C91.5792 9.16 91.3499 9.29333 91.0832 9.4C90.8166 9.50667 90.4832 9.56 90.0832 9.56C89.6992 9.56 89.3126 9.45867 88.9232 9.256C88.5339 9.048 88.1872 8.78667 87.8832 8.472C87.5792 8.152 87.3632 7.82133 87.2352 7.48L88.6432 6.816C88.8032 7.16267 89.0166 7.46133 89.2832 7.712C89.5446 7.96267 89.8112 8.088 90.0832 8.088C90.2912 8.088 90.4726 8.03467 90.6272 7.928C90.7766 7.82133 90.9286 7.688 91.0832 7.528C91.2379 7.368 91.4112 7.208 91.6032 7.048C91.7899 6.888 92.0192 6.75467 92.2912 6.648C92.5579 6.54133 92.8886 6.488 93.2832 6.488C93.6832 6.488 94.0166 6.54133 94.2832 6.648C94.5499 6.75467 94.7792 6.888 94.9712 7.048C95.1579 7.208 95.3286 7.368 95.4832 7.528C95.6379 7.688 95.7926 7.82133 95.9472 7.928C96.1019 8.03467 96.2806 8.088 96.4832 8.088C96.6859 8.088 96.8646 8.03467 97.0192 7.928C97.1739 7.82133 97.3286 7.688 97.4832 7.528C97.6379 7.368 97.8112 7.208 98.0032 7.048C98.1899 6.888 98.4192 6.75467 98.6912 6.648C98.9579 6.54133 99.2886 6.488 99.6832 6.488C100.089 6.488 100.427 6.54133 100.699 6.648C100.971 6.75467 101.201 6.888 101.387 7.048C101.574 7.208 101.742 7.368 101.891 7.528C102.041 7.688 102.193 7.82133 102.347 7.928C102.497 8.03467 102.675 8.088 102.883 8.088C103.091 8.088 103.273 8.03467 103.427 7.928C103.577 7.82133 103.729 7.688 103.883 7.528C104.038 7.368 104.211 7.208 104.403 7.048C104.59 6.888 104.819 6.75467 105.091 6.648C105.358 6.54133 105.689 6.488 106.083 6.488C106.478 6.488 106.809 6.54133 107.075 6.648C107.347 6.75467 107.577 6.888 107.763 7.048C107.955 7.208 108.129 7.368 108.283 7.528C108.438 7.688 108.593 7.82133 108.747 7.928C108.902 8.03467 109.081 8.088 109.283 8.088ZM109.963 2.928L114.499 7.992L109.963 13.056L108.715 11.992L110.563 9.968C110.819 9.69067 111.046 9.45867 111.243 9.272C111.446 9.08 111.673 8.90667 111.923 8.752V7.232C111.673 7.07733 111.446 6.90667 111.243 6.72C111.046 6.528 110.819 6.29333 110.563 6.016L108.715 3.992L109.963 2.928Z"
              fill="white"/>
    </g>
    <g id="Buttom">
        <path d="M0.912 13V1.96H2.768V11.448H7.712L7.512 13H0.912ZM14.6338 4.552V11.688H16.9298V13H10.3138V11.688H12.8418V5.864H10.3938V4.552H14.6338ZM13.3858 0.415999C13.7378 0.415999 14.0204 0.522666 14.2338 0.735999C14.4524 0.949333 14.5618 1.216 14.5618 1.536C14.5618 1.856 14.4524 2.12533 14.2338 2.344C14.0204 2.56267 13.7378 2.672 13.3858 2.672C13.0444 2.672 12.7644 2.56267 12.5458 2.344C12.3271 2.12533 12.2178 1.856 12.2178 1.536C12.2178 1.216 12.3271 0.949333 12.5458 0.735999C12.7644 0.522666 13.0444 0.415999 13.3858 0.415999ZM27.0115 4.552L24.0355 13H21.9395L18.9635 4.552H20.8835L23.0275 11.512L25.1795 4.552H27.0115ZM30.6933 9.352C30.7306 9.928 30.8533 10.4 31.0613 10.768C31.2693 11.1307 31.5413 11.3973 31.8773 11.568C32.2186 11.7387 32.5919 11.824 32.9973 11.824C33.4133 11.824 33.7973 11.76 34.1493 11.632C34.5013 11.504 34.8559 11.3227 35.2133 11.088L35.9893 12.16C35.5946 12.48 35.1333 12.736 34.6053 12.928C34.0773 13.12 33.5119 13.216 32.9093 13.216C32.0346 13.216 31.2933 13.0293 30.6853 12.656C30.0826 12.2827 29.6239 11.7627 29.3093 11.096C28.9946 10.4293 28.8372 9.65867 28.8372 8.784C28.8372 7.936 28.9919 7.17867 29.3013 6.512C29.6106 5.84 30.0533 5.30933 30.6293 4.92C31.2053 4.52533 31.8933 4.328 32.6933 4.328C33.4453 4.328 34.0906 4.49867 34.6293 4.84C35.1733 5.18133 35.5919 5.66667 35.8853 6.296C36.1839 6.92 36.3333 7.672 36.3333 8.552C36.3333 8.696 36.3279 8.84 36.3173 8.984C36.3119 9.12267 36.3039 9.24533 36.2933 9.352H30.6933ZM32.7093 5.656C32.1493 5.656 31.6853 5.856 31.3173 6.256C30.9546 6.656 30.7439 7.28 30.6853 8.128H34.5973C34.5813 7.33333 34.4106 6.72267 34.0853 6.296C33.7653 5.86933 33.3066 5.656 32.7093 5.656ZM56.0442 3.384L56.8682 4.68L51.3962 7.984L56.8682 11.288L55.9882 12.576L49.8522 8.752V7.216L56.0442 3.384ZM66.6842 3.384L72.8683 7.208V8.752L66.7323 12.576L65.8522 11.312L71.3323 7.984L65.8522 4.704L66.6842 3.384ZM67.5163 6.696L68.6523 7.24C68.4709 7.61867 68.2576 7.976 68.0123 8.312C67.7723 8.648 67.4843 8.92267 67.1483 9.136C66.8176 9.34933 66.4149 9.456 65.9402 9.456C65.5616 9.456 65.2336 9.376 64.9562 9.216C64.6736 9.056 64.4202 8.86933 64.1962 8.656C63.9669 8.44267 63.7456 8.256 63.5322 8.096C63.3136 7.936 63.0789 7.856 62.8282 7.856C62.5829 7.856 62.3589 7.936 62.1562 8.096C61.9482 8.256 61.7376 8.44267 61.5242 8.656C61.3109 8.86933 61.0709 9.056 60.8042 9.216C60.5322 9.376 60.2069 9.456 59.8282 9.456C59.4496 9.456 59.1216 9.376 58.8442 9.216C58.5616 9.056 58.3082 8.86933 58.0842 8.656C57.8549 8.44267 57.6336 8.256 57.4202 8.096C57.2016 7.936 56.9669 7.856 56.7162 7.856C56.3856 7.856 56.1029 7.98133 55.8682 8.232C55.6282 8.47733 55.4042 8.792 55.1962 9.176L54.0602 8.64C54.2469 8.272 54.4602 7.92 54.7002 7.584C54.9349 7.24267 55.2202 6.96267 55.5562 6.744C55.8922 6.52 56.2976 6.408 56.7722 6.408C57.1722 6.408 57.5136 6.488 57.7962 6.648C58.0789 6.808 58.3322 6.99467 58.5562 7.208C58.7802 7.42133 58.9962 7.608 59.2042 7.768C59.4122 7.928 59.6389 8.008 59.8842 8.008C60.1242 8.008 60.3429 7.928 60.5402 7.768C60.7376 7.608 60.9429 7.42133 61.1562 7.208C61.3642 6.99467 61.6042 6.808 61.8762 6.648C62.1482 6.488 62.4842 6.408 62.8842 6.408C63.2842 6.408 63.6256 6.488 63.9082 6.648C64.1909 6.808 64.4442 6.99467 64.6682 7.208C64.8922 7.42133 65.1082 7.608 65.3162 7.768C65.5242 7.928 65.7509 8.008 65.9962 8.008C66.3163 8.008 66.5963 7.888 66.8363 7.648C67.0816 7.40267 67.3083 7.08533 67.5163 6.696Z"
              fill="white"/>
    </g>
    <g id="group36">
        <circle cx="2" cy="40" r="2" fill="#ABB2BF"/>
        <circle cx="16.75" cy="40" r="2" fill="#ABB2BF"/>
        <circle cx="31.5" cy="40" r="2" fill="#ABB2BF"/>
        <circle cx="46.25" cy="40" r="2" fill="#ABB2BF"/>
        <circle cx="61" cy="40" r="2" fill="#ABB2BF"/>
        <circle cx="2" cy="54.75" r="2" fill="#ABB2BF"/>
        <circle cx="16.75" cy="54.75" r="2" fill="#ABB2BF"/>
        <circle cx="31.5" cy="54.75" r="2" fill="#ABB2BF"/>
        <circle cx="46.25" cy="54.75" r="2" fill="#ABB2BF"/>
        <circle cx="61" cy="54.75" r="2" fill="#ABB2BF"/>
        <circle cx="2" cy="69.5" r="2" fill="#ABB2BF"/>
        <circle cx="16.75" cy="69.5" r="2" fill="#ABB2BF"/>
        <circle cx="31.5" cy="69.5" r="2" fill="#ABB2BF"/>
        <circle cx="46.25" cy="69.5" r="2" fill="#ABB2BF"/>
        <circle cx="61" cy="69.5" r="2" fill="#ABB2BF"/>
        <circle cx="2" cy="84.25" r="2" fill="#ABB2BF"/>
        <circle cx="16.75" cy="84.25" r="2" fill="#ABB2BF"/>
        <circle cx="31.5" cy="84.25" r="2" fill="#ABB2BF"/>
        <circle cx="46.25" cy="84.25" r="2" fill="#ABB2BF"/>
        <circle cx="61" cy="84.25" r="2" fill="#ABB2BF"/>
        <circle cx="2" cy="99" r="2" fill="#ABB2BF"/>
        <circle cx="16.75" cy="99" r="2" fill="#ABB2BF"/>
        <circle cx="31.5" cy="99" r="2" fill="#ABB2BF"/>
        <circle cx="46.25" cy="99" r="2" fill="#ABB2BF"/>
        <circle cx="61" cy="99" r="2" fill="#ABB2BF"/>
        <circle cx="179" cy="145" r="2" fill="#ABB2BF"/>
        <circle cx="193.75" cy="145" r="2" fill="#ABB2BF"/>
        <circle cx="208.5" cy="145" r="2" fill="#ABB2BF"/>
        <circle cx="223.25" cy="145" r="2" fill="#ABB2BF"/>
        <circle cx="238" cy="145" r="2" fill="#ABB2BF"/>
        <circle cx="179" cy="159.75" r="2" fill="#ABB2BF"/>
        <circle cx="193.75" cy="159.75" r="2" fill="#ABB2BF"/>
        <circle cx="208.5" cy="159.75" r="2" fill="#ABB2BF"/>
        <circle cx="223.25" cy="159.75" r="2" fill="#ABB2BF"/>
        <circle cx="238" cy="159.75" r="2" fill="#ABB2BF"/>
        <circle cx="179" cy="174.5" r="2" fill="#ABB2BF"/>
        <circle cx="193.75" cy="174.5" r="2" fill="#ABB2BF"/>
        <circle cx="208.5" cy="174.5" r="2" fill="#ABB2BF"/>
        <circle cx="223.25" cy="174.5" r="2" fill="#ABB2BF"/>
        <circle cx="238" cy="174.5" r="2" fill="#ABB2BF"/>
        <circle cx="179" cy="189.25" r="2" fill="#ABB2BF"/>
        <circle cx="193.75" cy="189.25" r="2" fill="#ABB2BF"/>
        <circle cx="208.5" cy="189.25" r="2" fill="#ABB2BF"/>
        <circle cx="223.25" cy="189.25" r="2" fill="#ABB2BF"/>
        <circle cx="238" cy="189.25" r="2" fill="#ABB2BF"/>
        <circle cx="179" cy="204" r="2" fill="#ABB2BF"/>
        <circle cx="193.75" cy="204" r="2" fill="#ABB2BF"/>
        <circle cx="208.5" cy="204" r="2" fill="#ABB2BF"/>
        <circle cx="223.25" cy="204" r="2" fill="#ABB2BF"/>
        <circle cx="238" cy="204" r="2" fill="#ABB2BF"/>
        <rect x="297.5" y="193.5" width="51" height="51" stroke="#ABB2BF"/>
        <rect x="227.5" y="0.5" width="85" height="85" stroke="#ABB2BF"/>
        <mask id="path-53-inside-1_29_201" fill="white">
            <path fill-rule="evenodd" clip-rule="evenodd"
                  d="M71.5 169H99.75H128V197.25V225.5V253.75H99.75H71.5V225.5H99.75V197.25H71.5V169Z"/>
        </mask>
        <path d="M71.5 169V168H70.5V169H71.5ZM128 169H129V168H128V169ZM128 253.75V254.75H129V253.75H128ZM71.5 253.75H70.5V254.75H71.5V253.75ZM71.5 225.5V224.5H70.5V225.5H71.5ZM99.75 225.5V226.5H100.75V225.5H99.75ZM99.75 197.25H100.75V196.25H99.75V197.25ZM71.5 197.25H70.5V198.25H71.5V197.25ZM99.75 168H71.5V170H99.75V168ZM128 168H99.75V170H128V168ZM129 197.25V169H127V197.25H129ZM129 225.5V197.25H127V225.5H129ZM129 253.75V225.5H127V253.75H129ZM99.75 254.75H128V252.75H99.75V254.75ZM99.75 252.75H71.5V254.75H99.75V252.75ZM72.5 253.75V225.5H70.5V253.75H72.5ZM71.5 226.5H99.75V224.5H71.5V226.5ZM98.75 197.25V225.5H100.75V197.25H98.75ZM71.5 198.25H99.75V196.25H71.5V198.25ZM70.5 169V197.25H72.5V169H70.5Z"
              fill="#C778DD" mask="url(#path-53-inside-1_29_201)"/>
        <mask id="path-55-outside-2_29_201" maskUnits="userSpaceOnUse" x="14" y="196.25" width="59" height="87"
              fill="black">
            <rect fill="white" x="14" y="196.25" width="59" height="87"/>
            <path fill-rule="evenodd" clip-rule="evenodd"
                  d="M15 197.25H43.25H71.5V225.5H43.25V253.75H71.5V282H43.25H15V253.75V225.5V197.25Z"/>
        </mask>
        <path d="M15 197.25V196.25H14V197.25H15ZM71.5 197.25H72.5V196.25H71.5V197.25ZM71.5 225.5V226.5H72.5V225.5H71.5ZM43.25 225.5V224.5H42.25V225.5H43.25ZM43.25 253.75H42.25V254.75H43.25V253.75ZM71.5 253.75H72.5V252.75H71.5V253.75ZM71.5 282V283H72.5V282H71.5ZM15 282H14V283H15V282ZM43.25 196.25H15V198.25H43.25V196.25ZM71.5 196.25H43.25V198.25H71.5V196.25ZM72.5 225.5V197.25H70.5V225.5H72.5ZM43.25 226.5H71.5V224.5H43.25V226.5ZM44.25 253.75V225.5H42.25V253.75H44.25ZM43.25 254.75H71.5V252.75H43.25V254.75ZM70.5 253.75V282H72.5V253.75H70.5ZM71.5 281H43.25V283H71.5V281ZM15 283H43.25V281H15V283ZM14 253.75V282H16V253.75H14ZM14 225.5V253.75H16V225.5H14ZM14 197.25V225.5H16V197.25H14Z"
              fill="#C778DD" mask="url(#path-55-outside-2_29_201)"/>
    </g>
    <g id="quote">
        <rect x="0.5" y="14.5" width="711" height="94" fill="#282C33"/>
        <rect x="0.5" y="14.5" width="711" height="94" stroke="#ABB2BF"/>
        <path d="M46.352 53.44L44.06 70H40.808L39.176 57.748L37.484 70H34.16L32.048 53.44H34.736L36.044 67.312L37.796 55.36H40.664L42.32 67.312L43.868 53.44H46.352ZM55.4506 57.328V68.032H58.8946V70H48.9706V68.032H52.7626V59.296H49.0906V57.328H55.4506ZM53.5786 51.124C54.1066 51.124 54.5306 51.284 54.8506 51.604C55.1786 51.924 55.3426 52.324 55.3426 52.804C55.3426 53.284 55.1786 53.688 54.8506 54.016C54.5306 54.344 54.1066 54.508 53.5786 54.508C53.0666 54.508 52.6466 54.344 52.3186 54.016C51.9906 53.688 51.8266 53.284 51.8266 52.804C51.8266 52.324 51.9906 51.924 52.3186 51.604C52.6466 51.284 53.0666 51.124 53.5786 51.124ZM73.5013 69.328C73.0373 69.624 72.4813 69.864 71.8333 70.048C71.1853 70.232 70.5093 70.324 69.8053 70.324C68.3333 70.324 67.2133 69.944 66.4453 69.184C65.6853 68.416 65.3053 67.408 65.3053 66.16V59.284H62.4853V57.328H65.3053V54.496L67.9933 54.172V57.328H72.2653L71.9653 59.284H67.9933V66.136C67.9933 66.816 68.1613 67.324 68.4973 67.66C68.8413 67.988 69.4013 68.152 70.1773 68.152C70.6413 68.152 71.0693 68.096 71.4613 67.984C71.8533 67.872 72.2093 67.728 72.5293 67.552L73.5013 69.328ZM79.9959 51.976V58.876C80.5079 58.252 81.1079 57.784 81.7959 57.472C82.4839 57.152 83.1919 56.992 83.9199 56.992C85.1119 56.992 85.9999 57.324 86.5839 57.988C87.1679 58.644 87.4599 59.568 87.4599 60.76V70H84.7719V61.18C84.7719 60.42 84.6279 59.876 84.3399 59.548C84.0519 59.212 83.5879 59.044 82.9479 59.044C82.5479 59.044 82.1639 59.136 81.7959 59.32C81.4359 59.496 81.0999 59.728 80.7879 60.016C80.4839 60.304 80.2199 60.612 79.9959 60.94V70H77.3079V52.264L79.9959 51.976ZM116.757 55.72L117.477 57.952C116.973 58.12 116.417 58.232 115.809 58.288C115.209 58.344 114.537 58.372 113.793 58.372C114.553 58.708 115.125 59.14 115.509 59.668C115.893 60.188 116.085 60.828 116.085 61.588C116.085 62.412 115.885 63.148 115.485 63.796C115.085 64.444 114.513 64.952 113.769 65.32C113.025 65.688 112.133 65.872 111.093 65.872C110.725 65.872 110.405 65.856 110.133 65.824C109.869 65.792 109.609 65.74 109.353 65.668C109.193 65.78 109.057 65.932 108.945 66.124C108.841 66.308 108.789 66.504 108.789 66.712C108.789 66.968 108.893 67.192 109.101 67.384C109.317 67.568 109.741 67.66 110.373 67.66H112.581C113.485 67.66 114.281 67.816 114.969 68.128C115.665 68.432 116.209 68.852 116.601 69.388C117.001 69.916 117.201 70.516 117.201 71.188C117.201 72.452 116.657 73.432 115.569 74.128C114.481 74.824 112.913 75.172 110.865 75.172C109.417 75.172 108.281 75.024 107.457 74.728C106.633 74.432 106.053 73.992 105.717 73.408C105.381 72.824 105.213 72.108 105.213 71.26H107.625C107.625 71.7 107.709 72.064 107.877 72.352C108.053 72.64 108.377 72.856 108.849 73C109.321 73.144 110.001 73.216 110.889 73.216C111.777 73.216 112.481 73.14 113.001 72.988C113.529 72.844 113.909 72.632 114.141 72.352C114.381 72.08 114.501 71.752 114.501 71.368C114.501 70.856 114.277 70.46 113.829 70.18C113.381 69.9 112.781 69.76 112.029 69.76H109.857C108.657 69.76 107.777 69.516 107.217 69.028C106.665 68.54 106.389 67.972 106.389 67.324C106.389 66.892 106.509 66.476 106.749 66.076C106.997 65.676 107.349 65.328 107.805 65.032C107.045 64.632 106.489 64.148 106.137 63.58C105.793 63.004 105.621 62.308 105.621 61.492C105.621 60.596 105.845 59.812 106.293 59.14C106.741 58.468 107.361 57.944 108.153 57.568C108.953 57.192 109.873 57.004 110.913 57.004C111.929 57.004 112.777 56.952 113.457 56.848C114.137 56.736 114.729 56.58 115.233 56.38C115.745 56.18 116.253 55.96 116.757 55.72ZM110.937 58.852C110.081 58.852 109.437 59.096 109.005 59.584C108.573 60.064 108.357 60.692 108.357 61.468C108.357 62.268 108.577 62.912 109.017 63.4C109.465 63.88 110.117 64.12 110.973 64.12C111.765 64.12 112.369 63.888 112.785 63.424C113.209 62.96 113.421 62.3 113.421 61.444C113.421 60.58 113.213 59.932 112.797 59.5C112.381 59.068 111.761 58.852 110.937 58.852ZM120.6 70V68.08H122.46V59.236H120.6V57.328H124.512L125.004 60.268C125.476 59.204 126.06 58.396 126.756 57.844C127.46 57.284 128.364 57.004 129.468 57.004C129.844 57.004 130.18 57.036 130.476 57.1C130.78 57.156 131.08 57.232 131.376 57.328L130.572 59.632C130.316 59.56 130.076 59.508 129.852 59.476C129.628 59.436 129.38 59.416 129.108 59.416C128.188 59.416 127.392 59.76 126.72 60.448C126.056 61.136 125.532 62.112 125.148 63.376V68.08H127.704V70H120.6ZM129 61.996V58.876L129.336 57.328H131.376L130.92 61.996H129ZM137.102 64.528C137.158 65.392 137.342 66.1 137.654 66.652C137.966 67.196 138.374 67.596 138.878 67.852C139.39 68.108 139.95 68.236 140.558 68.236C141.182 68.236 141.758 68.14 142.286 67.948C142.814 67.756 143.346 67.484 143.882 67.132L145.046 68.74C144.454 69.22 143.762 69.604 142.97 69.892C142.178 70.18 141.33 70.324 140.426 70.324C139.114 70.324 138.002 70.044 137.09 69.484C136.186 68.924 135.498 68.144 135.026 67.144C134.554 66.144 134.318 64.988 134.318 63.676C134.318 62.404 134.55 61.268 135.014 60.268C135.478 59.26 136.142 58.464 137.006 57.88C137.87 57.288 138.902 56.992 140.102 56.992C141.23 56.992 142.198 57.248 143.006 57.76C143.822 58.272 144.45 59 144.89 59.944C145.338 60.88 145.562 62.008 145.562 63.328C145.562 63.544 145.554 63.76 145.538 63.976C145.53 64.184 145.518 64.368 145.502 64.528H137.102ZM140.126 58.984C139.286 58.984 138.59 59.284 138.038 59.884C137.494 60.484 137.178 61.42 137.09 62.692H142.958C142.934 61.5 142.678 60.584 142.19 59.944C141.71 59.304 141.022 58.984 140.126 58.984ZM158.945 66.892C158.945 67.388 159.021 67.752 159.173 67.984C159.325 68.208 159.569 68.376 159.905 68.488L159.305 70.312C158.681 70.24 158.145 70.068 157.697 69.796C157.249 69.524 156.909 69.112 156.677 68.56C156.213 69.144 155.625 69.584 154.913 69.88C154.201 70.176 153.441 70.324 152.633 70.324C151.353 70.324 150.337 69.964 149.585 69.244C148.841 68.516 148.469 67.564 148.469 66.388C148.469 65.052 148.989 64.024 150.029 63.304C151.069 62.584 152.557 62.224 154.493 62.224H156.305V61.396C156.305 60.58 156.057 59.992 155.561 59.632C155.073 59.272 154.381 59.092 153.485 59.092C153.069 59.092 152.565 59.148 151.973 59.26C151.381 59.364 150.761 59.528 150.113 59.752L149.453 57.856C150.245 57.56 151.021 57.344 151.781 57.208C152.541 57.064 153.245 56.992 153.893 56.992C155.589 56.992 156.853 57.368 157.685 58.12C158.525 58.872 158.945 59.912 158.945 61.24V66.892ZM153.449 68.344C153.993 68.344 154.525 68.2 155.045 67.912C155.565 67.624 155.985 67.22 156.305 66.7V63.904H154.817C153.553 63.904 152.649 64.116 152.105 64.54C151.561 64.956 151.289 65.532 151.289 66.268C151.289 66.94 151.469 67.456 151.829 67.816C152.197 68.168 152.737 68.344 153.449 68.344ZM174.236 69.328C173.772 69.624 173.216 69.864 172.568 70.048C171.92 70.232 171.244 70.324 170.54 70.324C169.068 70.324 167.948 69.944 167.18 69.184C166.42 68.416 166.04 67.408 166.04 66.16V59.284H163.22V57.328H166.04V54.496L168.728 54.172V57.328H173L172.7 59.284H168.728V66.136C168.728 66.816 168.896 67.324 169.232 67.66C169.576 67.988 170.136 68.152 170.912 68.152C171.376 68.152 171.804 68.096 172.196 67.984C172.588 67.872 172.944 67.728 173.264 67.552L174.236 69.328ZM198.613 56.992C199.733 56.992 200.629 57.268 201.301 57.82C201.973 58.364 202.461 59.136 202.765 60.136C203.069 61.128 203.221 62.296 203.221 63.64C203.221 64.928 203.037 66.076 202.669 67.084C202.301 68.092 201.753 68.884 201.025 69.46C200.305 70.036 199.409 70.324 198.337 70.324C197.009 70.324 195.937 69.856 195.121 68.92V74.872L192.433 75.172V57.328H194.773L194.941 58.96C195.421 58.304 195.977 57.812 196.609 57.484C197.249 57.156 197.917 56.992 198.613 56.992ZM197.869 59.068C197.269 59.068 196.741 59.248 196.285 59.608C195.829 59.968 195.441 60.392 195.121 60.88V66.808C195.425 67.264 195.785 67.616 196.201 67.864C196.625 68.104 197.101 68.224 197.629 68.224C198.533 68.224 199.221 67.86 199.693 67.132C200.165 66.404 200.401 65.244 200.401 63.652C200.401 62.572 200.305 61.696 200.113 61.024C199.929 60.344 199.649 59.848 199.273 59.536C198.905 59.224 198.437 59.068 197.869 59.068ZM211.9 56.992C213.14 56.992 214.184 57.268 215.032 57.82C215.88 58.372 216.52 59.144 216.952 60.136C217.392 61.128 217.612 62.296 217.612 63.64C217.612 64.976 217.388 66.148 216.94 67.156C216.5 68.156 215.852 68.936 214.996 69.496C214.148 70.048 213.112 70.324 211.888 70.324C210.664 70.324 209.624 70.056 208.768 69.52C207.92 68.976 207.272 68.204 206.824 67.204C206.384 66.204 206.164 65.024 206.164 63.664C206.164 62.344 206.384 61.184 206.824 60.184C207.272 59.184 207.924 58.404 208.78 57.844C209.636 57.276 210.676 56.992 211.9 56.992ZM211.9 59.08C210.932 59.08 210.204 59.452 209.716 60.196C209.228 60.932 208.984 62.088 208.984 63.664C208.984 65.232 209.224 66.388 209.704 67.132C210.192 67.876 210.92 68.248 211.888 68.248C212.856 68.248 213.58 67.876 214.06 67.132C214.548 66.388 214.792 65.224 214.792 63.64C214.792 62.08 214.552 60.932 214.072 60.196C213.592 59.452 212.868 59.08 211.9 59.08ZM231.126 70H227.766L226.338 61L224.802 70H221.514L219.366 57.328H221.958L223.278 68.332L225.042 58.936H227.73L229.374 68.332L230.694 57.328H233.19L231.126 70ZM237.837 64.528C237.893 65.392 238.077 66.1 238.389 66.652C238.701 67.196 239.109 67.596 239.613 67.852C240.125 68.108 240.685 68.236 241.293 68.236C241.917 68.236 242.493 68.14 243.021 67.948C243.549 67.756 244.081 67.484 244.617 67.132L245.781 68.74C245.189 69.22 244.497 69.604 243.705 69.892C242.913 70.18 242.065 70.324 241.161 70.324C239.849 70.324 238.737 70.044 237.825 69.484C236.921 68.924 236.233 68.144 235.761 67.144C235.289 66.144 235.053 64.988 235.053 63.676C235.053 62.404 235.285 61.268 235.749 60.268C236.213 59.26 236.877 58.464 237.741 57.88C238.605 57.288 239.637 56.992 240.837 56.992C241.965 56.992 242.933 57.248 243.741 57.76C244.557 58.272 245.185 59 245.625 59.944C246.073 60.88 246.297 62.008 246.297 63.328C246.297 63.544 246.289 63.76 246.273 63.976C246.265 64.184 246.253 64.368 246.237 64.528H237.837ZM240.861 58.984C240.021 58.984 239.325 59.284 238.773 59.884C238.229 60.484 237.913 61.42 237.825 62.692H243.693C243.669 61.5 243.413 60.584 242.925 59.944C242.445 59.304 241.757 58.984 240.861 58.984ZM250.115 70V68.08H251.975V59.236H250.115V57.328H254.027L254.519 60.268C254.991 59.204 255.575 58.396 256.271 57.844C256.975 57.284 257.879 57.004 258.983 57.004C259.359 57.004 259.695 57.036 259.991 57.1C260.295 57.156 260.595 57.232 260.891 57.328L260.087 59.632C259.831 59.56 259.591 59.508 259.367 59.476C259.143 59.436 258.895 59.416 258.623 59.416C257.703 59.416 256.907 59.76 256.235 60.448C255.571 61.136 255.047 62.112 254.663 63.376V68.08H257.219V70H250.115ZM258.515 61.996V58.876L258.851 57.328H260.891L260.435 61.996H258.515ZM284.885 68.116C285.477 68.116 286.029 68.016 286.541 67.816C287.053 67.608 287.541 67.34 288.005 67.012L289.253 68.74C288.701 69.212 288.029 69.596 287.237 69.892C286.453 70.18 285.641 70.324 284.801 70.324C283.505 70.324 282.397 70.052 281.477 69.508C280.557 68.956 279.853 68.184 279.365 67.192C278.877 66.2 278.633 65.044 278.633 63.724C278.633 62.436 278.877 61.288 279.365 60.28C279.861 59.264 280.573 58.464 281.501 57.88C282.429 57.288 283.545 56.992 284.849 56.992C285.713 56.992 286.509 57.12 287.237 57.376C287.965 57.632 288.633 58.012 289.241 58.516L288.005 60.208C287.509 59.864 287.001 59.604 286.481 59.428C285.969 59.244 285.441 59.152 284.897 59.152C283.897 59.152 283.077 59.52 282.437 60.256C281.805 60.992 281.489 62.148 281.489 63.724C281.489 64.78 281.633 65.632 281.921 66.28C282.217 66.92 282.621 67.388 283.133 67.684C283.645 67.972 284.229 68.116 284.885 68.116ZM298.243 56.992C299.483 56.992 300.527 57.268 301.375 57.82C302.223 58.372 302.863 59.144 303.295 60.136C303.735 61.128 303.955 62.296 303.955 63.64C303.955 64.976 303.731 66.148 303.283 67.156C302.843 68.156 302.195 68.936 301.339 69.496C300.491 70.048 299.455 70.324 298.231 70.324C297.007 70.324 295.967 70.056 295.111 69.52C294.263 68.976 293.615 68.204 293.167 67.204C292.727 66.204 292.507 65.024 292.507 63.664C292.507 62.344 292.727 61.184 293.167 60.184C293.615 59.184 294.267 58.404 295.123 57.844C295.979 57.276 297.019 56.992 298.243 56.992ZM298.243 59.08C297.275 59.08 296.547 59.452 296.059 60.196C295.571 60.932 295.327 62.088 295.327 63.664C295.327 65.232 295.567 66.388 296.047 67.132C296.535 67.876 297.263 68.248 298.231 68.248C299.199 68.248 299.923 67.876 300.403 67.132C300.891 66.388 301.135 65.224 301.135 63.64C301.135 62.08 300.895 60.932 300.415 60.196C299.935 59.452 299.211 59.08 298.243 59.08ZM316.294 56.992C316.774 56.992 317.206 57.096 317.59 57.304C317.974 57.512 318.274 57.876 318.49 58.396C318.714 58.916 318.826 59.644 318.826 60.58V70H316.438V60.952C316.438 60.288 316.39 59.812 316.294 59.524C316.206 59.236 315.97 59.092 315.586 59.092C315.282 59.092 314.974 59.188 314.662 59.38C314.35 59.564 314.034 59.884 313.714 60.34V70H311.542V60.952C311.542 60.288 311.494 59.812 311.398 59.524C311.31 59.236 311.074 59.092 310.69 59.092C310.378 59.092 310.066 59.188 309.754 59.38C309.45 59.564 309.138 59.884 308.818 60.34V70H306.418V57.328H308.446L308.626 58.696C308.986 58.192 309.378 57.784 309.802 57.472C310.226 57.152 310.738 56.992 311.338 56.992C311.818 56.992 312.254 57.112 312.646 57.352C313.038 57.592 313.326 58.012 313.51 58.612C313.862 58.132 314.262 57.744 314.71 57.448C315.158 57.144 315.686 56.992 316.294 56.992ZM324.181 64.528C324.237 65.392 324.421 66.1 324.733 66.652C325.045 67.196 325.453 67.596 325.957 67.852C326.469 68.108 327.029 68.236 327.637 68.236C328.261 68.236 328.837 68.14 329.365 67.948C329.893 67.756 330.425 67.484 330.961 67.132L332.125 68.74C331.533 69.22 330.841 69.604 330.049 69.892C329.257 70.18 328.409 70.324 327.505 70.324C326.193 70.324 325.081 70.044 324.169 69.484C323.265 68.924 322.577 68.144 322.105 67.144C321.633 66.144 321.396 64.988 321.396 63.676C321.396 62.404 321.629 61.268 322.093 60.268C322.557 59.26 323.221 58.464 324.085 57.88C324.949 57.288 325.981 56.992 327.181 56.992C328.309 56.992 329.277 57.248 330.085 57.76C330.901 58.272 331.529 59 331.969 59.944C332.417 60.88 332.641 62.008 332.641 63.328C332.641 63.544 332.633 63.76 332.617 63.976C332.609 64.184 332.597 64.368 332.581 64.528H324.181ZM327.205 58.984C326.365 58.984 325.669 59.284 325.117 59.884C324.573 60.484 324.257 61.42 324.169 62.692H330.037C330.013 61.5 329.757 60.584 329.269 59.944C328.789 59.304 328.101 58.984 327.205 58.984ZM340.947 68.26C341.787 68.26 342.455 68.112 342.951 67.816C343.447 67.512 343.695 67.096 343.695 66.568C343.695 66.224 343.623 65.932 343.479 65.692C343.335 65.444 343.047 65.22 342.615 65.02C342.183 64.812 341.527 64.596 340.647 64.372C339.815 64.156 339.083 63.9 338.451 63.604C337.827 63.308 337.343 62.924 336.999 62.452C336.655 61.98 336.483 61.372 336.483 60.628C336.483 59.9 336.687 59.264 337.095 58.72C337.503 58.176 338.087 57.752 338.847 57.448C339.615 57.144 340.515 56.992 341.547 56.992C342.611 56.992 343.539 57.132 344.331 57.412C345.123 57.692 345.799 58.04 346.359 58.456L345.231 60.148C344.735 59.82 344.191 59.552 343.599 59.344C343.015 59.136 342.355 59.032 341.619 59.032C340.763 59.032 340.147 59.16 339.771 59.416C339.403 59.672 339.219 60.012 339.219 60.436C339.219 60.748 339.311 61.012 339.495 61.228C339.687 61.436 340.015 61.632 340.479 61.816C340.943 61.992 341.599 62.2 342.447 62.44C343.271 62.664 343.987 62.928 344.595 63.232C345.211 63.536 345.687 63.94 346.023 64.444C346.367 64.94 346.539 65.588 346.539 66.388C346.539 67.3 346.275 68.048 345.747 68.632C345.227 69.208 344.539 69.636 343.683 69.916C342.835 70.188 341.923 70.324 340.947 70.324C339.771 70.324 338.755 70.156 337.899 69.82C337.043 69.476 336.323 69.048 335.739 68.536L337.167 66.904C337.663 67.304 338.231 67.632 338.871 67.888C339.511 68.136 340.203 68.26 340.947 68.26ZM375.788 55.72L376.508 57.952C376.004 58.12 375.448 58.232 374.84 58.288C374.24 58.344 373.568 58.372 372.824 58.372C373.584 58.708 374.156 59.14 374.54 59.668C374.924 60.188 375.116 60.828 375.116 61.588C375.116 62.412 374.916 63.148 374.516 63.796C374.116 64.444 373.544 64.952 372.8 65.32C372.056 65.688 371.164 65.872 370.124 65.872C369.756 65.872 369.436 65.856 369.164 65.824C368.9 65.792 368.64 65.74 368.384 65.668C368.224 65.78 368.088 65.932 367.976 66.124C367.872 66.308 367.82 66.504 367.82 66.712C367.82 66.968 367.924 67.192 368.132 67.384C368.348 67.568 368.772 67.66 369.404 67.66H371.612C372.516 67.66 373.312 67.816 374 68.128C374.696 68.432 375.24 68.852 375.632 69.388C376.032 69.916 376.232 70.516 376.232 71.188C376.232 72.452 375.688 73.432 374.6 74.128C373.512 74.824 371.944 75.172 369.896 75.172C368.448 75.172 367.312 75.024 366.488 74.728C365.664 74.432 365.084 73.992 364.748 73.408C364.412 72.824 364.244 72.108 364.244 71.26H366.656C366.656 71.7 366.74 72.064 366.908 72.352C367.084 72.64 367.408 72.856 367.88 73C368.352 73.144 369.032 73.216 369.92 73.216C370.808 73.216 371.512 73.14 372.032 72.988C372.56 72.844 372.94 72.632 373.172 72.352C373.412 72.08 373.532 71.752 373.532 71.368C373.532 70.856 373.308 70.46 372.86 70.18C372.412 69.9 371.812 69.76 371.06 69.76H368.888C367.688 69.76 366.808 69.516 366.248 69.028C365.696 68.54 365.42 67.972 365.42 67.324C365.42 66.892 365.54 66.476 365.78 66.076C366.028 65.676 366.38 65.328 366.836 65.032C366.076 64.632 365.52 64.148 365.168 63.58C364.824 63.004 364.652 62.308 364.652 61.492C364.652 60.596 364.876 59.812 365.324 59.14C365.772 58.468 366.392 57.944 367.184 57.568C367.984 57.192 368.904 57.004 369.944 57.004C370.96 57.004 371.808 56.952 372.488 56.848C373.168 56.736 373.76 56.58 374.264 56.38C374.776 56.18 375.284 55.96 375.788 55.72ZM369.968 58.852C369.112 58.852 368.468 59.096 368.036 59.584C367.604 60.064 367.388 60.692 367.388 61.468C367.388 62.268 367.608 62.912 368.048 63.4C368.496 63.88 369.148 64.12 370.004 64.12C370.796 64.12 371.4 63.888 371.816 63.424C372.24 62.96 372.452 62.3 372.452 61.444C372.452 60.58 372.244 59.932 371.828 59.5C371.412 59.068 370.792 58.852 369.968 58.852ZM379.631 70V68.08H381.491V59.236H379.631V57.328H383.543L384.035 60.268C384.507 59.204 385.091 58.396 385.787 57.844C386.491 57.284 387.395 57.004 388.499 57.004C388.875 57.004 389.211 57.036 389.507 57.1C389.811 57.156 390.111 57.232 390.407 57.328L389.603 59.632C389.347 59.56 389.107 59.508 388.883 59.476C388.659 59.436 388.411 59.416 388.139 59.416C387.219 59.416 386.423 59.76 385.751 60.448C385.087 61.136 384.563 62.112 384.179 63.376V68.08H386.735V70H379.631ZM388.031 61.996V58.876L388.367 57.328H390.407L389.951 61.996H388.031ZM396.134 64.528C396.19 65.392 396.374 66.1 396.686 66.652C396.998 67.196 397.406 67.596 397.91 67.852C398.422 68.108 398.982 68.236 399.59 68.236C400.214 68.236 400.79 68.14 401.318 67.948C401.846 67.756 402.378 67.484 402.914 67.132L404.078 68.74C403.486 69.22 402.794 69.604 402.002 69.892C401.21 70.18 400.362 70.324 399.458 70.324C398.146 70.324 397.034 70.044 396.122 69.484C395.218 68.924 394.53 68.144 394.058 67.144C393.586 66.144 393.35 64.988 393.35 63.676C393.35 62.404 393.582 61.268 394.046 60.268C394.51 59.26 395.174 58.464 396.038 57.88C396.902 57.288 397.934 56.992 399.134 56.992C400.262 56.992 401.23 57.248 402.038 57.76C402.854 58.272 403.482 59 403.922 59.944C404.37 60.88 404.594 62.008 404.594 63.328C404.594 63.544 404.586 63.76 404.57 63.976C404.562 64.184 404.55 64.368 404.534 64.528H396.134ZM399.158 58.984C398.318 58.984 397.622 59.284 397.07 59.884C396.526 60.484 396.21 61.42 396.122 62.692H401.99C401.966 61.5 401.71 60.584 401.222 59.944C400.742 59.304 400.054 58.984 399.158 58.984ZM417.976 66.892C417.976 67.388 418.052 67.752 418.204 67.984C418.356 68.208 418.6 68.376 418.936 68.488L418.336 70.312C417.712 70.24 417.176 70.068 416.728 69.796C416.28 69.524 415.94 69.112 415.708 68.56C415.244 69.144 414.656 69.584 413.944 69.88C413.232 70.176 412.472 70.324 411.664 70.324C410.384 70.324 409.368 69.964 408.616 69.244C407.872 68.516 407.5 67.564 407.5 66.388C407.5 65.052 408.02 64.024 409.06 63.304C410.1 62.584 411.588 62.224 413.524 62.224H415.336V61.396C415.336 60.58 415.088 59.992 414.592 59.632C414.104 59.272 413.412 59.092 412.516 59.092C412.1 59.092 411.596 59.148 411.004 59.26C410.412 59.364 409.792 59.528 409.144 59.752L408.484 57.856C409.276 57.56 410.052 57.344 410.812 57.208C411.572 57.064 412.276 56.992 412.924 56.992C414.62 56.992 415.884 57.368 416.716 58.12C417.556 58.872 417.976 59.912 417.976 61.24V66.892ZM412.48 68.344C413.024 68.344 413.556 68.2 414.076 67.912C414.596 67.624 415.016 67.22 415.336 66.7V63.904H413.848C412.584 63.904 411.68 64.116 411.136 64.54C410.592 64.956 410.32 65.532 410.32 66.268C410.32 66.94 410.5 67.456 410.86 67.816C411.228 68.168 411.768 68.344 412.48 68.344ZM433.267 69.328C432.803 69.624 432.247 69.864 431.599 70.048C430.951 70.232 430.275 70.324 429.571 70.324C428.099 70.324 426.979 69.944 426.211 69.184C425.451 68.416 425.071 67.408 425.071 66.16V59.284H422.251V57.328H425.071V54.496L427.759 54.172V57.328H432.031L431.731 59.284H427.759V66.136C427.759 66.816 427.927 67.324 428.263 67.66C428.607 67.988 429.167 68.152 429.943 68.152C430.407 68.152 430.835 68.096 431.227 67.984C431.619 67.872 431.975 67.728 432.295 67.552L433.267 69.328ZM453.696 64.528C453.752 65.392 453.936 66.1 454.248 66.652C454.56 67.196 454.968 67.596 455.472 67.852C455.984 68.108 456.544 68.236 457.152 68.236C457.776 68.236 458.352 68.14 458.88 67.948C459.408 67.756 459.94 67.484 460.476 67.132L461.64 68.74C461.048 69.22 460.356 69.604 459.564 69.892C458.772 70.18 457.924 70.324 457.02 70.324C455.708 70.324 454.596 70.044 453.684 69.484C452.78 68.924 452.092 68.144 451.62 67.144C451.148 66.144 450.912 64.988 450.912 63.676C450.912 62.404 451.144 61.268 451.608 60.268C452.072 59.26 452.736 58.464 453.6 57.88C454.464 57.288 455.496 56.992 456.696 56.992C457.824 56.992 458.792 57.248 459.6 57.76C460.416 58.272 461.044 59 461.484 59.944C461.932 60.88 462.156 62.008 462.156 63.328C462.156 63.544 462.148 63.76 462.132 63.976C462.124 64.184 462.112 64.368 462.096 64.528H453.696ZM456.72 58.984C455.88 58.984 455.184 59.284 454.632 59.884C454.088 60.484 453.772 61.42 453.684 62.692H459.552C459.528 61.5 459.272 60.584 458.784 59.944C458.304 59.304 457.616 58.984 456.72 58.984ZM471.423 52.24V66.544C471.423 67.128 471.599 67.544 471.951 67.792C472.311 68.032 472.775 68.152 473.343 68.152C473.711 68.152 474.059 68.112 474.387 68.032C474.715 67.952 475.035 67.852 475.347 67.732L476.031 69.604C475.655 69.796 475.191 69.964 474.639 70.108C474.095 70.252 473.471 70.324 472.767 70.324C471.495 70.324 470.503 69.968 469.791 69.256C469.087 68.536 468.735 67.552 468.735 66.304V54.22H464.907V52.24H471.423ZM482.477 64.528C482.533 65.392 482.717 66.1 483.029 66.652C483.341 67.196 483.749 67.596 484.253 67.852C484.765 68.108 485.325 68.236 485.933 68.236C486.557 68.236 487.133 68.14 487.661 67.948C488.189 67.756 488.721 67.484 489.257 67.132L490.421 68.74C489.829 69.22 489.137 69.604 488.345 69.892C487.553 70.18 486.705 70.324 485.801 70.324C484.489 70.324 483.377 70.044 482.465 69.484C481.561 68.924 480.873 68.144 480.401 67.144C479.929 66.144 479.693 64.988 479.693 63.676C479.693 62.404 479.925 61.268 480.389 60.268C480.853 59.26 481.517 58.464 482.381 57.88C483.245 57.288 484.277 56.992 485.477 56.992C486.605 56.992 487.573 57.248 488.381 57.76C489.197 58.272 489.825 59 490.265 59.944C490.713 60.88 490.937 62.008 490.937 63.328C490.937 63.544 490.929 63.76 490.913 63.976C490.905 64.184 490.893 64.368 490.877 64.528H482.477ZM485.501 58.984C484.661 58.984 483.965 59.284 483.413 59.884C482.869 60.484 482.553 61.42 482.465 62.692H488.333C488.309 61.5 488.053 60.584 487.565 59.944C487.085 59.304 486.397 58.984 485.501 58.984ZM500.744 68.116C501.336 68.116 501.888 68.016 502.4 67.816C502.912 67.608 503.4 67.34 503.864 67.012L505.112 68.74C504.56 69.212 503.888 69.596 503.096 69.892C502.312 70.18 501.5 70.324 500.66 70.324C499.364 70.324 498.256 70.052 497.336 69.508C496.416 68.956 495.712 68.184 495.224 67.192C494.736 66.2 494.492 65.044 494.492 63.724C494.492 62.436 494.736 61.288 495.224 60.28C495.72 59.264 496.432 58.464 497.36 57.88C498.288 57.288 499.404 56.992 500.708 56.992C501.572 56.992 502.368 57.12 503.096 57.376C503.824 57.632 504.492 58.012 505.1 58.516L503.864 60.208C503.368 59.864 502.86 59.604 502.34 59.428C501.828 59.244 501.3 59.152 500.756 59.152C499.756 59.152 498.936 59.52 498.296 60.256C497.664 60.992 497.348 62.148 497.348 63.724C497.348 64.78 497.492 65.632 497.78 66.28C498.076 66.92 498.48 67.388 498.992 67.684C499.504 67.972 500.088 68.116 500.744 68.116ZM519.611 69.328C519.147 69.624 518.591 69.864 517.943 70.048C517.295 70.232 516.619 70.324 515.915 70.324C514.443 70.324 513.323 69.944 512.555 69.184C511.795 68.416 511.415 67.408 511.415 66.16V59.284H508.595V57.328H511.415V54.496L514.103 54.172V57.328H518.375L518.075 59.284H514.103V66.136C514.103 66.816 514.271 67.324 514.607 67.66C514.951 67.988 515.511 68.152 516.287 68.152C516.751 68.152 517.179 68.096 517.571 67.984C517.963 67.872 518.319 67.728 518.639 67.552L519.611 69.328ZM523.537 70V68.08H525.397V59.236H523.537V57.328H527.449L527.941 60.268C528.413 59.204 528.997 58.396 529.693 57.844C530.397 57.284 531.301 57.004 532.405 57.004C532.781 57.004 533.117 57.036 533.413 57.1C533.717 57.156 534.017 57.232 534.313 57.328L533.509 59.632C533.253 59.56 533.013 59.508 532.789 59.476C532.565 59.436 532.317 59.416 532.045 59.416C531.125 59.416 530.329 59.76 529.657 60.448C528.993 61.136 528.469 62.112 528.085 63.376V68.08H530.641V70H523.537ZM531.937 61.996V58.876L532.273 57.328H534.313L533.857 61.996H531.937ZM544.732 57.328V68.032H548.176V70H538.252V68.032H542.044V59.296H538.372V57.328H544.732ZM542.86 51.124C543.388 51.124 543.812 51.284 544.132 51.604C544.46 51.924 544.624 52.324 544.624 52.804C544.624 53.284 544.46 53.688 544.132 54.016C543.812 54.344 543.388 54.508 542.86 54.508C542.348 54.508 541.928 54.344 541.6 54.016C541.272 53.688 541.108 53.284 541.108 52.804C541.108 52.324 541.272 51.924 541.6 51.604C541.928 51.284 542.348 51.124 542.86 51.124ZM558.307 68.116C558.899 68.116 559.451 68.016 559.963 67.816C560.475 67.608 560.963 67.34 561.427 67.012L562.674 68.74C562.123 69.212 561.451 69.596 560.659 69.892C559.875 70.18 559.063 70.324 558.223 70.324C556.927 70.324 555.819 70.052 554.899 69.508C553.979 68.956 553.275 68.184 552.787 67.192C552.299 66.2 552.055 65.044 552.055 63.724C552.055 62.436 552.299 61.288 552.787 60.28C553.283 59.264 553.995 58.464 554.923 57.88C555.851 57.288 556.967 56.992 558.271 56.992C559.135 56.992 559.931 57.12 560.659 57.376C561.387 57.632 562.055 58.012 562.663 58.516L561.427 60.208C560.931 59.864 560.423 59.604 559.903 59.428C559.391 59.244 558.863 59.152 558.319 59.152C557.319 59.152 556.499 59.52 555.859 60.256C555.227 60.992 554.911 62.148 554.911 63.724C554.911 64.78 555.055 65.632 555.343 66.28C555.639 66.92 556.043 67.388 556.555 67.684C557.067 67.972 557.651 68.116 558.307 68.116ZM573.513 57.328V68.032H576.957V70H567.033V68.032H570.825V59.296H567.153V57.328H573.513ZM571.641 51.124C572.169 51.124 572.593 51.284 572.913 51.604C573.241 51.924 573.405 52.324 573.405 52.804C573.405 53.284 573.241 53.688 572.913 54.016C572.593 54.344 572.169 54.508 571.641 54.508C571.129 54.508 570.709 54.344 570.381 54.016C570.053 53.688 569.889 53.284 569.889 52.804C569.889 52.324 570.053 51.924 570.381 51.604C570.709 51.284 571.129 51.124 571.641 51.124ZM591.564 69.328C591.1 69.624 590.544 69.864 589.896 70.048C589.248 70.232 588.572 70.324 587.868 70.324C586.396 70.324 585.276 69.944 584.508 69.184C583.748 68.416 583.368 67.408 583.368 66.16V59.284H580.548V57.328H583.368V54.496L586.056 54.172V57.328H590.328L590.028 59.284H586.056V66.136C586.056 66.816 586.224 67.324 586.56 67.66C586.904 67.988 587.464 68.152 588.24 68.152C588.704 68.152 589.132 68.096 589.524 67.984C589.916 67.872 590.272 67.728 590.592 67.552L591.564 69.328ZM606.458 57.328L602.09 70.048C601.762 71.008 601.342 71.852 600.83 72.58C600.318 73.316 599.662 73.908 598.862 74.356C598.062 74.804 597.07 75.08 595.886 75.184L595.538 73.168C596.394 73.032 597.074 72.832 597.578 72.568C598.09 72.312 598.494 71.972 598.79 71.548C599.094 71.124 599.362 70.608 599.594 70H598.682L594.41 57.328H597.266L600.458 68.128L603.698 57.328H606.458ZM626.84 58.84C627.28 58.264 627.792 57.812 628.376 57.484C628.968 57.156 629.616 56.992 630.32 56.992C631.432 56.992 632.332 57.268 633.02 57.82C633.716 58.364 634.224 59.136 634.544 60.136C634.872 61.128 635.036 62.296 635.036 63.64C635.036 64.928 634.844 66.076 634.46 67.084C634.076 68.092 633.508 68.884 632.756 69.46C632.012 70.036 631.092 70.324 629.996 70.324C628.58 70.324 627.468 69.8 626.66 68.752L626.516 70H624.152V52.24L626.84 51.94V58.84ZM629.324 68.272C630.236 68.272 630.94 67.9 631.436 67.156C631.94 66.412 632.192 65.244 632.192 63.652C632.192 62.572 632.092 61.696 631.892 61.024C631.692 60.344 631.396 59.848 631.004 59.536C630.62 59.224 630.148 59.068 629.588 59.068C628.988 59.068 628.46 59.248 628.004 59.608C627.548 59.968 627.16 60.392 626.84 60.88V66.808C627.136 67.264 627.492 67.624 627.908 67.888C628.332 68.144 628.804 68.272 629.324 68.272ZM645.466 57.328V68.032H648.91V70H638.986V68.032H642.778V59.296H639.106V57.328H645.466ZM643.594 51.124C644.122 51.124 644.546 51.284 644.866 51.604C645.194 51.924 645.358 52.324 645.358 52.804C645.358 53.284 645.194 53.688 644.866 54.016C644.546 54.344 644.122 54.508 643.594 54.508C643.082 54.508 642.662 54.344 642.334 54.016C642.006 53.688 641.842 53.284 641.842 52.804C641.842 52.324 642.006 51.924 642.334 51.604C642.662 51.284 643.082 51.124 643.594 51.124ZM658.501 52.24V66.544C658.501 67.128 658.677 67.544 659.029 67.792C659.389 68.032 659.853 68.152 660.421 68.152C660.789 68.152 661.137 68.112 661.465 68.032C661.793 67.952 662.113 67.852 662.425 67.732L663.109 69.604C662.733 69.796 662.269 69.964 661.717 70.108C661.173 70.252 660.549 70.324 659.845 70.324C658.573 70.324 657.581 69.968 656.869 69.256C656.165 68.536 655.813 67.552 655.813 66.304V54.22H651.985V52.24H658.501ZM672.892 52.24V66.544C672.892 67.128 673.068 67.544 673.42 67.792C673.78 68.032 674.244 68.152 674.812 68.152C675.18 68.152 675.528 68.112 675.856 68.032C676.184 67.952 676.504 67.852 676.816 67.732L677.5 69.604C677.124 69.796 676.66 69.964 676.108 70.108C675.564 70.252 674.94 70.324 674.236 70.324C672.964 70.324 671.972 69.968 671.26 69.256C670.556 68.536 670.204 67.552 670.204 66.304V54.22H666.376V52.24H672.892Z"
              fill="white"/>
        <rect width="41.472" height="28.704" transform="translate(11)" fill="#282C33"/>
        <path d="M29.56 19.616C29.56 21.0453 29.0373 22.2507 27.992 23.232C26.968 24.2133 25.72 24.704 24.248 24.704C22.7333 24.704 21.4747 24.2133 20.472 23.232C19.4907 22.2507 19 21.0453 19 19.616C19 18.9333 19.096 18.208 19.288 17.44C19.48 16.672 19.864 15.68 20.44 14.464L25.4 4H30.2L27.544 15.584C28.1413 16.0107 28.6213 16.576 28.984 17.28C29.368 17.9627 29.56 18.7413 29.56 19.616ZM43.8 19.616C43.8 21.0453 43.2773 22.2507 42.232 23.232C41.1867 24.2133 39.9387 24.704 38.488 24.704C37.016 24.704 35.768 24.2133 34.744 23.232C33.7413 22.2507 33.24 21.0453 33.24 19.616C33.24 18.9333 33.336 18.208 33.528 17.44C33.72 16.672 34.1147 15.68 34.712 14.464L39.704 4H44.472L41.784 15.584C42.4027 16.0107 42.8933 16.576 43.256 17.28C43.6187 17.9627 43.8 18.7413 43.8 19.616Z"
              fill="#ABB2BF"/>
        <rect x="548.5" y="108.5" width="163" height="64" stroke="#ABB2BF"/>
        <path d="M567.388 142.364V140.612H577.012V142.364H567.388ZM604.821 140.66C604.821 139.22 604.669 138.068 604.365 137.204C604.061 136.34 603.661 135.692 603.165 135.26C602.669 134.828 602.125 134.54 601.533 134.396C600.949 134.252 600.373 134.18 599.805 134.18H597.861V147.332H599.829C600.421 147.332 601.009 147.24 601.593 147.056C602.185 146.864 602.725 146.528 603.213 146.048C603.701 145.56 604.089 144.884 604.377 144.02C604.673 143.148 604.821 142.028 604.821 140.66ZM607.041 140.66C607.041 142.036 606.893 143.212 606.597 144.188C606.309 145.156 605.913 145.956 605.409 146.588C604.905 147.22 604.329 147.712 603.681 148.064C603.041 148.408 602.365 148.652 601.653 148.796C600.949 148.932 600.257 149 599.577 149H595.785V132.476H599.313C600.281 132.476 601.221 132.584 602.133 132.8C603.053 133.016 603.881 133.416 604.617 134C605.361 134.576 605.949 135.4 606.381 136.472C606.821 137.544 607.041 138.94 607.041 140.66ZM610.704 149V147.452H612.672V137.912H610.704V136.364H614.208L614.58 139.352C615.068 138.312 615.66 137.508 616.356 136.94C617.052 136.372 617.972 136.088 619.116 136.088C619.468 136.088 619.78 136.116 620.052 136.172C620.332 136.22 620.616 136.284 620.904 136.364L620.316 138.164C620.052 138.092 619.812 138.04 619.596 138.008C619.38 137.968 619.132 137.948 618.852 137.948C617.884 137.948 617.052 138.292 616.356 138.98C615.66 139.668 615.104 140.708 614.688 142.1V147.452H617.256V149H610.704ZM618.96 140.636V137.888L619.164 136.364H620.904L620.616 140.636H618.96ZM627.639 147.152C627.639 146.76 627.731 146.408 627.915 146.096C628.099 145.776 628.347 145.524 628.659 145.34C628.979 145.148 629.339 145.052 629.739 145.052C630.147 145.052 630.511 145.148 630.831 145.34C631.151 145.524 631.403 145.776 631.587 146.096C631.771 146.408 631.863 146.76 631.863 147.152C631.863 147.544 631.771 147.904 631.587 148.232C631.403 148.552 631.151 148.808 630.831 149C630.511 149.184 630.147 149.276 629.739 149.276C629.339 149.276 628.979 149.184 628.659 149C628.347 148.808 628.099 148.552 627.915 148.232C627.731 147.904 627.639 147.544 627.639 147.152ZM665.636 132.476L663.116 149H660.38L658.484 136.532L656.576 149H653.78L651.452 132.476H653.54L655.304 146.708L657.284 134.396H659.84L661.724 146.708L663.704 132.476H665.636ZM670.162 131.084V138.092C670.658 137.428 671.266 136.932 671.986 136.604C672.714 136.268 673.45 136.1 674.194 136.1C675.426 136.1 676.326 136.428 676.894 137.084C677.462 137.74 677.746 138.652 677.746 139.82V149H675.73V139.868C675.73 139.108 675.554 138.556 675.202 138.212C674.85 137.86 674.298 137.684 673.546 137.684C673.066 137.684 672.61 137.792 672.178 138.008C671.746 138.224 671.358 138.492 671.014 138.812C670.67 139.132 670.386 139.46 670.162 139.796V149H668.146V131.3L670.162 131.084ZM687.349 136.1C688.541 136.1 689.537 136.372 690.337 136.916C691.145 137.452 691.749 138.212 692.149 139.196C692.557 140.18 692.761 141.34 692.761 142.676C692.761 143.964 692.553 145.104 692.137 146.096C691.721 147.088 691.109 147.868 690.301 148.436C689.501 148.996 688.509 149.276 687.325 149.276C686.141 149.276 685.145 149.004 684.337 148.46C683.529 147.916 682.917 147.152 682.501 146.168C682.093 145.176 681.889 144.02 681.889 142.7C681.889 141.396 682.097 140.248 682.513 139.256C682.929 138.264 683.541 137.492 684.349 136.94C685.165 136.38 686.165 136.1 687.349 136.1ZM687.349 137.744C686.261 137.744 685.437 138.148 684.877 138.956C684.325 139.756 684.049 141.004 684.049 142.7C684.049 144.364 684.321 145.6 684.865 146.408C685.417 147.216 686.237 147.62 687.325 147.62C688.413 147.62 689.229 147.216 689.773 146.408C690.325 145.6 690.601 144.356 690.601 142.676C690.601 140.996 690.329 139.756 689.785 138.956C689.241 138.148 688.429 137.744 687.349 137.744Z"
              fill="white"/>
        <rect width="41.472" height="28.704" transform="translate(654 94)" fill="#282C33"/>
        <path d="M672.56 113.616C672.56 115.045 672.037 116.251 670.992 117.232C669.968 118.213 668.72 118.704 667.248 118.704C665.733 118.704 664.475 118.213 663.472 117.232C662.491 116.251 662 115.045 662 113.616C662 112.933 662.096 112.208 662.288 111.44C662.48 110.672 662.864 109.68 663.44 108.464L668.4 98H673.2L670.544 109.584C671.141 110.011 671.621 110.576 671.984 111.28C672.368 111.963 672.56 112.741 672.56 113.616ZM686.8 113.616C686.8 115.045 686.277 116.251 685.232 117.232C684.187 118.213 682.939 118.704 681.488 118.704C680.016 118.704 678.768 118.213 677.744 117.232C676.741 116.251 676.24 115.045 676.24 113.616C676.24 112.933 676.336 112.208 676.528 111.44C676.72 110.672 677.115 109.68 677.712 108.464L682.704 98H687.472L684.784 109.584C685.403 110.011 685.893 110.576 686.256 111.28C686.619 111.963 686.8 112.741 686.8 113.616Z"
              fill="#ABB2BF"/>
    </g>
    <g id="email"><path d="M5.07187 9.20292C5.2168 8.57709 5.57307 8.01832 6.08232 7.6181C6.59158 7.21789 7.22365 6.99996 7.875 7H25.125C25.7764 6.99996 26.4084 7.21789 26.9177 7.6181C27.4269 8.01832 27.7832 8.57709 27.9281 9.20292L16.5 16.0865L5.07187 9.20292ZM5 10.8207V20.8847L13.3418 15.8442L5 10.8207ZM14.7189 16.6758L5.27456 22.3807C5.50791 22.8657 5.87619 23.2753 6.33656 23.5619C6.79693 23.8486 7.33044 24.0005 7.875 24H25.125C25.6695 24.0001 26.2028 23.8479 26.6629 23.561C27.123 23.274 27.491 22.8643 27.724 22.3793L18.2796 16.6744L16.5 17.7468L14.7189 16.6744V16.6758ZM19.6582 15.8457L28 20.8847V10.8207L19.6582 15.8442V15.8457Z" fill="#ABB2BF"/></g>
    <g id="discord"><path d="M24.1641 7.65906C22.543 6.87826 20.8325 6.32099 19.0751 6.00114C19.0592 5.99832 19.0428 6.00076 19.0283 6.0081C19.0137 6.01544 19.0017 6.02733 18.9938 6.04214C18.7735 6.45211 18.5298 6.98835 18.3595 7.40816C16.4651 7.10643 14.5383 7.10643 12.6439 7.40816C12.4539 6.9405 12.239 6.48443 12.0002 6.04214C11.9922 6.02749 11.9801 6.01574 11.9656 6.00842C11.9511 6.0011 11.9348 5.99856 11.9189 6.00114C10.1611 6.31928 8.45021 6.87684 6.82991 7.65906C6.81605 7.66461 6.80445 7.67504 6.7971 7.68858C3.55651 12.7706 2.66745 17.7279 3.10339 22.623C3.10495 22.6459 3.11901 22.6689 3.1362 22.6836C5.02325 24.1507 7.13396 25.2708 9.37832 25.9962C9.39417 26.0014 9.4112 26.0013 9.42693 25.9957C9.44267 25.99 9.45629 25.9793 9.46582 25.965C9.94707 25.2763 10.3752 24.5498 10.7439 23.7856C10.7516 23.7699 10.7543 23.752 10.7514 23.7345C10.7486 23.7171 10.7405 23.7011 10.7283 23.6889C10.7202 23.6809 10.7107 23.6747 10.7002 23.6708C10.027 23.3993 9.37503 23.0731 8.7502 22.6951C8.73275 22.6847 8.71977 22.6677 8.71395 22.6476C8.70814 22.6274 8.70993 22.6057 8.71895 22.5869C8.72427 22.5747 8.73231 22.564 8.74239 22.5557C8.87364 22.4524 9.00489 22.3442 9.12989 22.236C9.14093 22.2266 9.15418 22.2206 9.16821 22.2186C9.18225 22.2166 9.19655 22.2186 9.20957 22.2245C13.3017 24.1858 17.7314 24.1858 21.7735 22.2245C21.787 22.2183 21.8018 22.2162 21.8164 22.2182C21.831 22.2202 21.8448 22.2264 21.8563 22.236C21.9813 22.3442 22.1126 22.4524 22.2438 22.5557C22.2544 22.5639 22.263 22.5747 22.2687 22.5872C22.2744 22.5996 22.277 22.6134 22.2764 22.6272C22.2758 22.641 22.2719 22.6544 22.2651 22.6663C22.2584 22.6781 22.2489 22.688 22.2376 22.6951C21.6142 23.0765 20.9614 23.4024 20.286 23.6692C20.2752 23.6733 20.2655 23.6798 20.2574 23.6883C20.2493 23.6968 20.243 23.7071 20.2391 23.7184C20.2355 23.7294 20.2341 23.741 20.2349 23.7525C20.2357 23.7641 20.2387 23.7754 20.2438 23.7856C20.6188 24.5482 21.0485 25.2763 21.5204 25.965C21.5299 25.9793 21.5435 25.99 21.5593 25.9957C21.575 26.0013 21.592 26.0014 21.6079 25.9962C23.856 25.2731 25.9701 24.1528 27.8594 22.6836C27.8688 22.6768 27.8767 22.6677 27.8824 22.6572C27.8881 22.6467 27.8914 22.635 27.8922 22.623C28.4141 16.9637 27.0188 12.0474 24.1954 7.69022C24.1925 7.68302 24.1883 7.67653 24.1829 7.67116C24.1775 7.66579 24.1711 7.66167 24.1641 7.65906ZM11.3549 19.6417C10.1221 19.6417 9.10801 18.4544 9.10801 16.9982C9.10801 15.5403 10.1033 14.353 11.3549 14.353C12.6158 14.353 13.6205 15.5502 13.6017 16.9982C13.6017 18.4544 12.6064 19.6417 11.3549 19.6417ZM19.661 19.6417C18.4298 19.6417 17.4142 18.4544 17.4142 16.9982C17.4142 15.5403 18.4095 14.353 19.661 14.353C20.922 14.353 21.9282 15.5502 21.9079 16.9982C21.9079 18.4544 20.922 19.6417 19.661 19.6417Z" fill="#ABB2BF"/></g>
    <g id="arrow">
        <g id="SVGRepo_bgCarrier" stroke-width="0"/>

        <g id="SVGRepo_tracerCarrier" stroke-linecap="round" stroke-linejoin="round"/>

        <g id="SVGRepo_iconCarrier">
            <g id="icomoon-ignore"></g>
            <path d="M26.221 16c0-7.243-5.871-13.113-13.113-13.113s-13.113 5.87-13.113 13.113c0 7.242 5.871 13.113 13.113 13.113s13.113-5.871 13.113-13.113zM1.045 16c0-6.652 5.412-12.064 12.064-12.064s12.064 5.412 12.064 12.064c0 6.652-5.411 12.064-12.064 12.064-6.652 0-12.064-5.412-12.064-12.064z"
                  fill="#FFFFFF"></path>
            <path d="M18.746 15.204l0.742-0.742-6.379-6.379-6.378 6.379 0.742 0.742 5.112-5.112v12.727h1.049v-12.727z"
                  fill="#FFFFFF"></path>
        </g>
    </g>
</svg>




