<svg width="52" height="52" viewBox="0 0 52 52" fill="none" xmlns="http://www.w3.org/2000/svg">
    <g id="code">
        <path fill-rule="evenodd" clip-rule="evenodd"
              d="M39 0H26V13H13H0V26V39V52H13H26V39H39H52V26V13V0H39ZM13 39H26V26H39V13H26V26H13V39Z"/>
    </g>

    <g id="figma">
        <path d="M16 16C16 15.1159 16.3687 14.2681 17.0251 13.643C17.6815 13.0179 18.5717 12.6667 19.5 12.6667C20.4283 12.6667 21.3185 13.0179 21.9749 13.643C22.6313 14.2681 23 15.1159 23 16C23 16.8841 22.6313 17.7319 21.9749 18.357C21.3185 18.9821 20.4283 19.3333 19.5 19.3333C18.5717 19.3333 17.6815 18.9821 17.0251 18.357C16.3687 17.7319 16 16.8841 16 16ZM9 22.6667C9 21.7826 9.36875 20.9348 10.0251 20.3096C10.6815 19.6845 11.5717 19.3333 12.5 19.3333H16V22.6667C16 23.5507 15.6313 24.3986 14.9749 25.0237C14.3185 25.6488 13.4283 26 12.5 26C11.5717 26 10.6815 25.6488 10.0251 25.0237C9.36875 24.3986 9 23.5507 9 22.6667ZM16 6V12.6667H19.5C20.4283 12.6667 21.3185 12.3155 21.9749 11.6904C22.6313 11.0652 23 10.2174 23 9.33333C23 8.44928 22.6313 7.60143 21.9749 6.97631C21.3185 6.35119 20.4283 6 19.5 6H16ZM9 9.33333C9 10.2174 9.36875 11.0652 10.0251 11.6904C10.6815 12.3155 11.5717 12.6667 12.5 12.6667H16V6H12.5C11.5717 6 10.6815 6.35119 10.0251 6.97631C9.36875 7.60143 9 8.44928 9 9.33333ZM9 16C9 16.8841 9.36875 17.7319 10.0251 18.357C10.6815 18.9821 11.5717 19.3333 12.5 19.3333H16V12.6667H12.5C11.5717 12.6667 10.6815 13.0179 10.0251 13.643C9.36875 14.2681 9 15.1159 9 16Z"
              fill="#ABB2BF"/>
    </g>

    <g id="github">
        <path d="M15.5 6C9.69875 6 5 10.5882 5 16.2529C5 20.7899 8.00562 24.6219 12.1794 25.9804C12.7044 26.0701 12.9012 25.7625 12.9012 25.4934C12.9012 25.2499 12.8881 24.4425 12.8881 23.5838C10.25 24.058 9.5675 22.9558 9.3575 22.3791C9.23938 22.0843 8.7275 21.1743 8.28125 20.9308C7.91375 20.7386 7.38875 20.2644 8.26813 20.2516C9.095 20.2388 9.68563 20.9949 9.8825 21.3025C10.8275 22.8533 12.3369 22.4175 12.9406 22.1484C13.0325 21.4819 13.3081 21.0334 13.61 20.777C11.2737 20.5207 8.8325 19.6364 8.8325 15.7147C8.8325 14.5997 9.23938 13.6769 9.90875 12.9592C9.80375 12.7029 9.43625 11.6519 10.0138 10.2422C10.0138 10.2422 10.8931 9.97301 12.9012 11.2931C13.7413 11.0624 14.6338 10.947 15.5263 10.947C16.4188 10.947 17.3113 11.0624 18.1513 11.2931C20.1594 9.9602 21.0387 10.2422 21.0387 10.2422C21.6163 11.6519 21.2488 12.7029 21.1438 12.9592C21.8131 13.6769 22.22 14.5868 22.22 15.7147C22.22 19.6492 19.7656 20.5207 17.4294 20.777C17.81 21.0975 18.1381 21.7126 18.1381 22.6738C18.1381 24.0452 18.125 25.1474 18.125 25.4934C18.125 25.7625 18.3219 26.0829 18.8469 25.9804C20.9314 25.2935 22.7428 23.9854 24.026 22.2403C25.3092 20.4953 25.9996 18.4012 26 16.2529C26 10.5882 21.3013 6 15.5 6Z"
              fill="#ABB2BF"/>
    </g>

    <g id="square">
        <circle cx="2" cy="2" r="2" fill="#ABB2BF"/>
        <circle cx="22" cy="2" r="2" fill="#ABB2BF"/>
        <circle cx="42" cy="2" r="2" fill="#ABB2BF"/>
        <circle cx="62" cy="2" r="2" fill="#ABB2BF"/>
        <circle cx="82" cy="2" r="2" fill="#ABB2BF"/>
        <circle cx="2" cy="22" r="2" fill="#ABB2BF"/>
        <circle cx="22" cy="22" r="2" fill="#ABB2BF"/>
        <circle cx="42" cy="22" r="2" fill="#ABB2BF"/>
        <circle cx="62" cy="22" r="2" fill="#ABB2BF"/>
        <circle cx="82" cy="22" r="2" fill="#ABB2BF"/>
        <circle cx="2" cy="42" r="2" fill="#ABB2BF"/>
        <circle cx="22" cy="42" r="2" fill="#ABB2BF"/>
        <circle cx="42" cy="42" r="2" fill="#ABB2BF"/>
        <circle cx="62" cy="42" r="2" fill="#ABB2BF"/>
        <circle cx="82" cy="42" r="2" fill="#ABB2BF"/>
        <circle cx="2" cy="62" r="2" fill="#ABB2BF"/>
        <circle cx="22" cy="62" r="2" fill="#ABB2BF"/>
        <circle cx="42" cy="62" r="2" fill="#ABB2BF"/>
        <circle cx="62" cy="62" r="2" fill="#ABB2BF"/>
        <circle cx="82" cy="62" r="2" fill="#ABB2BF"/>
        <circle cx="2" cy="82" r="2" fill="#ABB2BF"/>
        <circle cx="22" cy="82" r="2" fill="#ABB2BF"/>
        <circle cx="42" cy="82" r="2" fill="#ABB2BF"/>
        <circle cx="62" cy="82" r="2" fill="#ABB2BF"/>
        <circle cx="82" cy="82" r="2" fill="#ABB2BF"/>
    </g>

    <g id="dribble">
        <path fill-rule="evenodd" clip-rule="evenodd"
              d="M16.5 4C10.152 4 5 9.152 5 15.5C5 21.848 10.152 27 16.5 27C22.8365 27 28 21.848 28 15.5C28 9.152 22.8365 4 16.5 4ZM24.0958 9.3015C25.5115 11.0255 26.2951 13.1817 26.3167 15.4123C25.9918 15.3505 22.7488 14.6892 19.4814 15.1004C19.4066 14.9394 19.3434 14.764 19.2686 14.5901C19.0688 14.1157 18.8446 13.6298 18.6203 13.1669C22.2371 11.6964 23.8844 9.57606 24.0972 9.30006L24.0958 9.3015ZM16.5 5.69625C18.9941 5.69625 21.2768 6.63063 23.0119 8.16587C22.8365 8.416 21.3516 10.3983 17.8599 11.7079C16.2499 8.75238 14.4674 6.33162 14.1928 5.95788C14.9491 5.78129 15.7234 5.69349 16.5 5.69625ZM12.3212 6.61913C13.6375 8.44338 14.8535 10.3379 15.9638 12.2944C11.3739 13.5162 7.32012 13.4918 6.88312 13.4918C7.19917 12.005 7.85438 10.6114 8.79766 9.41949C9.74094 8.22761 10.9468 7.26973 12.3212 6.62056V6.61913ZM6.67181 15.5144V15.2125C7.09588 15.2269 11.8612 15.2887 16.7631 13.8167C17.0491 14.3644 17.3108 14.9264 17.5609 15.4871L17.1728 15.5992C12.1099 17.2336 9.416 21.6985 9.19031 22.0737C7.56856 20.2734 6.67131 17.936 6.67181 15.5129V15.5144ZM16.5 25.3282C14.3172 25.3316 12.1964 24.6027 10.4769 23.2582C10.6494 22.8959 12.6461 19.0549 18.1833 17.1215C18.2092 17.1086 18.2207 17.1086 18.2466 17.0971C19.1801 19.5068 19.8814 22.0002 20.341 24.5433C19.1277 25.0646 17.8205 25.3318 16.5 25.3282ZM21.9769 23.6449C21.8763 23.0454 21.3516 20.1776 20.0679 16.6471C23.1484 16.1613 25.8423 16.9591 26.1787 17.0712C25.9692 18.3975 25.4876 19.6662 24.7643 20.7974C24.0409 21.9287 23.0914 22.8982 21.9754 23.6449H21.9769Z"
              fill="#ABB2BF"/>
    </g>

    <g id="logoSquare">
        <mask id="path-1-inside-1_1103_3692" fill="white">
            <path fill-rule="evenodd" clip-rule="evenodd"
                  d="M0 39.75H38.75H77.5V78.5H38.75V117.25H77.5V156H38.75H0V117.25V78.5V39.75Z"/>
        </mask>
        <path d="M0 39.75V38.75H-1V39.75H0ZM77.5 39.75H78.5V38.75H77.5V39.75ZM77.5 78.5V79.5H78.5V78.5H77.5ZM38.75 78.5V77.5H37.75V78.5H38.75ZM38.75 117.25H37.75V118.25H38.75V117.25ZM77.5 117.25H78.5V116.25H77.5V117.25ZM77.5 156V157H78.5V156H77.5ZM0 156H-1V157H0V156ZM38.75 38.75H0V40.75H38.75V38.75ZM77.5 38.75H38.75V40.75H77.5V38.75ZM78.5 78.5V39.75H76.5V78.5H78.5ZM38.75 79.5H77.5V77.5H38.75V79.5ZM39.75 117.25V78.5H37.75V117.25H39.75ZM38.75 118.25H77.5V116.25H38.75V118.25ZM76.5 117.25V156H78.5V117.25H76.5ZM77.5 155H38.75V157H77.5V155ZM0 157H38.75V155H0V157ZM-1 117.25V156H1V117.25H-1ZM-1 78.5V117.25H1V78.5H-1ZM-1 39.75V78.5H1V39.75H-1Z"
              fill="#C778DD" mask="url(#path-1-inside-1_1103_3692)"/>
        <mask id="path-3-outside-2_1103_3692" maskUnits="userSpaceOnUse" x="76.5" y="0" width="80" height="119"
              fill="black">
            <rect fill="white" x="76.5" width="80" height="119"/>
            <path fill-rule="evenodd" clip-rule="evenodd"
                  d="M77.5 1H116.25H155V39.75V78.5V117.25H116.25H77.5V78.5H116.25V39.75H77.5V1Z"/>
        </mask>
        <path d="M77.5 1V0H76.5V1H77.5ZM155 1H156V0H155V1ZM155 117.25V118.25H156V117.25H155ZM77.5 117.25H76.5V118.25H77.5V117.25ZM77.5 78.5V77.5H76.5V78.5H77.5ZM116.25 78.5V79.5H117.25V78.5H116.25ZM116.25 39.75H117.25V38.75H116.25V39.75ZM77.5 39.75H76.5V40.75H77.5V39.75ZM116.25 0H77.5V2H116.25V0ZM155 0H116.25V2H155V0ZM156 39.75V1H154V39.75H156ZM156 78.5V39.75H154V78.5H156ZM156 117.25V78.5H154V117.25H156ZM116.25 118.25H155V116.25H116.25V118.25ZM116.25 116.25H77.5V118.25H116.25V116.25ZM78.5 117.25V78.5H76.5V117.25H78.5ZM77.5 79.5H116.25V77.5H77.5V79.5ZM115.25 39.75V78.5H117.25V39.75H115.25ZM77.5 40.75H116.25V38.75H77.5V40.75ZM76.5 1V39.75H78.5V1H76.5Z"
              fill="#C778DD" mask="url(#path-3-outside-2_1103_3692)"/>
    </g>

    <g id="iconColor">
        <rect x="0.5" y="1" width="15" height="15" fill="#C778DD" stroke="#C778DD"/>
    </g>

    <g id="qutes">
        <rect width="41.472" height="28.704" fill="#282C33"/>
        <path d="M18.56 19.616C18.56 21.0453 18.0373 22.2507 16.992 23.232C15.968 24.2133 14.72 24.704 13.248 24.704C11.7333 24.704 10.4747 24.2133 9.472 23.232C8.49067 22.2507 8 21.0453 8 19.616C8 18.9333 8.096 18.208 8.288 17.44C8.48 16.672 8.864 15.68 9.44 14.464L14.4 4H19.2L16.544 15.584C17.1413 16.0107 17.6213 16.576 17.984 17.28C18.368 17.9627 18.56 18.7413 18.56 19.616ZM32.8 19.616C32.8 21.0453 32.2773 22.2507 31.232 23.232C30.1867 24.2133 28.9387 24.704 27.488 24.704C26.016 24.704 24.768 24.2133 23.744 23.232C22.7413 22.2507 22.24 21.0453 22.24 19.616C22.24 18.9333 22.336 18.208 22.528 17.44C22.72 16.672 23.1147 15.68 23.712 14.464L28.704 4H33.472L30.784 15.584C31.4027 16.0107 31.8933 16.576 32.256 17.28C32.6187 17.9627 32.8 18.7413 32.8 19.616Z"
              fill="#ABB2BF"/>
    </g>
    <g id="rectangle">
        <rect x="0.5" y="0.5" width="85" height="85" stroke="#ABB2BF"/>
    </g>
    <g id="rectangleMini">
        <rect x="0.5" y="0.5" width="51" height="51" stroke="#ABB2BF"/>
    </g>
    <g id="javascript">
        <g clip-path="url(#clip0_1_405)">
            <path d="M35.4167 1.61203e-05H164.583C169.236 -0.00448106 173.843 0.932018 178.142 2.75592C182.441 4.57981 186.347 7.25531 189.636 10.6293C192.926 14.0032 195.535 18.0094 197.313 22.4186C199.091 26.8277 200.004 31.5533 200 36.3248V163.675C200.004 168.447 199.091 173.172 197.313 177.581C195.535 181.991 192.926 185.997 189.636 189.371C186.347 192.745 182.441 195.42 178.142 197.244C173.843 199.068 169.236 200.004 164.583 200H35.4167C30.7645 200.004 26.157 199.068 21.8581 197.244C17.5592 195.42 13.6532 192.745 10.3635 189.371C7.07392 185.997 4.46532 181.991 2.68702 177.581C0.908717 173.172 -0.00436903 168.447 1.57173e-05 163.675V36.3248C-0.00436903 31.5533 0.908717 26.8277 2.68702 22.4186C4.46532 18.0094 7.07392 14.0032 10.3635 10.6293C13.6532 7.25531 17.5592 4.57981 21.8581 2.75592C26.157 0.932018 30.7645 -0.00448106 35.4167 1.61203e-05Z"
                  fill="#F7DF1E"/>
            <path d="M134.689 156.492C138.717 163.07 143.959 167.905 153.229 167.905C161.016 167.905 165.99 164.013 165.99 158.635C165.99 152.19 160.879 149.908 152.308 146.159L147.61 144.143C134.048 138.365 125.038 131.127 125.038 115.825C125.038 101.73 135.778 91 152.562 91C164.511 91 173.102 95.1587 179.292 106.048L164.657 115.444C161.435 109.667 157.959 107.39 152.562 107.39C147.057 107.39 143.568 110.883 143.568 115.444C143.568 121.083 147.06 123.365 155.124 126.857L159.822 128.87C175.79 135.717 184.806 142.698 184.806 158.394C184.806 175.314 171.514 184.584 153.663 184.584C136.21 184.584 124.933 176.267 119.416 165.365L134.689 156.492ZM68.2984 158.121C71.2508 163.359 73.9365 167.787 80.3937 167.787C86.5683 167.787 90.4635 165.371 90.4635 155.978V92.073H109.257V156.232C109.257 175.692 97.8476 184.549 81.1937 184.549C66.146 184.549 57.4317 176.762 53 167.383L68.2984 158.121Z"
                  fill="black"/>
        </g>
        <defs>
            <clipPath id="clip0_1_405">
                <rect width="200" height="200" fill="white"/>
            </clipPath>
        </defs>
    </g>
    <g id="html">
        <g clip-path="url(#clip0_7_116)">
            <path d="M35.4167 1.61203e-05H164.583C169.236 -0.00448106 173.843 0.932018 178.142 2.75592C182.441 4.57981 186.347 7.25531 189.636 10.6293C192.926 14.0032 195.535 18.0094 197.313 22.4186C199.091 26.8277 200.004 31.5533 200 36.3248V163.675C200.004 168.447 199.091 173.172 197.313 177.581C195.535 181.991 192.926 185.997 189.636 189.371C186.347 192.745 182.441 195.42 178.142 197.244C173.843 199.068 169.236 200.004 164.583 200H35.4167C30.7645 200.004 26.157 199.068 21.8581 197.244C17.5592 195.42 13.6532 192.745 10.3635 189.371C7.07392 185.997 4.46532 181.991 2.68702 177.581C0.908717 173.172 -0.00436903 168.447 1.57173e-05 163.675V36.3248C-0.00436903 31.5533 0.908717 26.8277 2.68702 22.4186C4.46532 18.0094 7.07392 14.0032 10.3635 10.6293C13.6532 7.25531 17.5592 4.57981 21.8581 2.75592C26.157 0.932018 30.7645 -0.00448106 35.4167 1.61203e-05Z"
                  fill="#F16529"/>
            <path d="M68.9996 59.9601H100.066V38H45L45.5253 43.8914L50.9231 104.408H100.066V82.4476H71.0067L68.9996 59.9601ZM73.949 115.388H51.9043L54.9806 149.869L99.9646 162.356L100.066 162.328V139.481L99.9694 139.506L75.5126 132.902L73.949 115.388Z"
                  fill="#EBEBEB"/>
            <path d="M99.9901 104.408H127.032L124.482 132.888L99.9894 139.499V162.346L145.009 149.869L145.339 146.159L150.5 88.3446L151.036 82.4476H99.9901V104.408ZM99.9901 59.9065V59.9601H153.034L153.474 55.0245L154.475 43.8914L155 38H99.9901V59.9072V59.9065Z"
                  fill="white"/>
        </g>
        <defs>
            <clipPath id="clip0_7_116">
                <rect width="200" height="200" fill="white"/>
            </clipPath>
        </defs>
    </g>
    <g id="css">
        <g clip-path="url(#clip0_7_123)">
            <path d="M35.4167 1.61203e-05H164.583C169.236 -0.00448106 173.843 0.932018 178.142 2.75592C182.441 4.57981 186.347 7.25531 189.636 10.6293C192.926 14.0032 195.535 18.0094 197.313 22.4186C199.091 26.8277 200.004 31.5533 200 36.3248V163.675C200.004 168.447 199.091 173.172 197.313 177.581C195.535 181.991 192.926 185.997 189.636 189.371C186.347 192.745 182.441 195.42 178.142 197.244C173.843 199.068 169.236 200.004 164.583 200H35.4167C30.7645 200.004 26.157 199.068 21.8581 197.244C17.5592 195.42 13.6532 192.745 10.3635 189.371C7.07392 185.997 4.46532 181.991 2.68702 177.581C0.908717 173.172 -0.00436903 168.447 1.57173e-05 163.675V36.3248C-0.00436903 31.5533 0.908717 26.8277 2.68702 22.4186C4.46532 18.0094 7.07392 14.0032 10.3635 10.6293C13.6532 7.25531 17.5592 4.57981 21.8581 2.75592C26.157 0.932018 30.7645 -0.00448106 35.4167 1.61203e-05Z"
                  fill="#2965F1"/>
            <path d="M48.9551 82.4476L50.9231 104.408H100.066V82.4476H48.9551ZM45 38L46.9961 59.9601H100.066V38H45ZM100.066 139.481L99.9694 139.506L75.5126 132.902L73.949 115.388H51.9043L54.9806 149.869L99.9646 162.356L100.066 162.328V139.481Z"
                  fill="#EBEBEB"/>
            <path d="M151.036 82.4476L155 38H99.9901V59.9601H130.934L128.936 82.4476H99.9901V104.408H127.032L124.482 132.888L99.9894 139.499V162.346L145.009 149.869L145.339 146.159L150.5 88.3446L151.036 82.4476Z"
                  fill="white"/>
        </g>
        <defs>
            <clipPath id="clip0_7_123">
                <rect width="200" height="200" fill="white"/>
            </clipPath>
        </defs>
    </g>
    <g id="sass">
        <g clip-path="url(#clip0_1_451)">
            <path d="M35.4167 1.61203e-05H164.583C169.236 -0.00448106 173.843 0.932018 178.142 2.75592C182.441 4.57981 186.347 7.25531 189.636 10.6293C192.926 14.0032 195.535 18.0094 197.313 22.4186C199.091 26.8277 200.004 31.5533 200 36.3248V163.675C200.004 168.447 199.091 173.172 197.313 177.581C195.535 181.991 192.926 185.997 189.636 189.371C186.347 192.745 182.441 195.42 178.142 197.244C173.843 199.068 169.236 200.004 164.583 200H35.4167C30.7645 200.004 26.157 199.068 21.8581 197.244C17.5592 195.42 13.6532 192.745 10.3635 189.371C7.07392 185.997 4.46532 181.991 2.68702 177.581C0.908717 173.172 -0.00436903 168.447 1.57173e-05 163.675V36.3248C-0.00436903 31.5533 0.908717 26.8277 2.68702 22.4186C4.46532 18.0094 7.07392 14.0032 10.3635 10.6293C13.6532 7.25531 17.5592 4.57981 21.8581 2.75592C26.157 0.932018 30.7645 -0.00448106 35.4167 1.61203e-05Z"
                  fill="#000B1D"/>
            <g clip-path="url(#clip1_1_451)">
                <path d="M154.801 109.098C149.501 109.126 144.895 110.415 141.038 112.319C139.623 109.49 138.208 106.97 137.958 105.121C137.681 102.965 137.348 101.648 137.681 99.0714C138.014 96.4947 139.512 92.8257 139.484 92.5456C139.457 92.2655 139.151 90.9492 136.099 90.9212C133.047 90.8932 130.411 91.5093 130.106 92.3215C129.801 93.1338 129.218 94.9823 128.829 96.8868C128.302 99.6876 122.725 109.686 119.534 114.924C118.507 112.879 117.62 111.087 117.425 109.658C117.148 107.502 116.815 106.185 117.148 103.609C117.481 101.032 118.979 97.3629 118.951 97.0829C118.924 96.8028 118.618 95.4864 115.566 95.4584C112.514 95.4304 109.878 96.0466 109.573 96.8588C109.268 97.671 108.935 99.5756 108.296 101.424C107.658 103.273 100.25 119.965 98.3074 124.278C97.3085 126.491 96.4483 128.256 95.8378 129.46C95.8378 129.46 95.8101 129.544 95.7269 129.684C95.1997 130.72 94.8944 131.28 94.8944 131.28C94.8944 131.28 94.8944 131.28 94.8944 131.308C94.4782 132.065 94.0343 132.765 93.8123 132.765C93.6458 132.765 93.3406 130.748 93.8678 128.003C94.9777 122.206 97.6137 113.187 97.5859 112.879C97.5859 112.711 98.0854 111.143 95.8656 110.331C93.7013 109.518 92.9244 110.863 92.7301 110.863C92.5359 110.863 92.3972 111.339 92.3972 111.339C92.3972 111.339 94.8112 101.2 87.7911 101.2C83.407 101.2 77.3581 106.045 74.3614 110.415C72.4746 111.451 68.4512 113.663 64.1504 116.044C62.5133 116.968 60.8207 117.893 59.2391 118.761C59.1281 118.649 59.0171 118.509 58.9061 118.397C50.4154 109.238 34.7104 102.768 35.3764 90.473C35.6261 85.9918 37.1522 74.2285 65.5377 59.9445C88.901 48.3213 107.492 51.5422 110.71 58.6842C115.316 68.879 100.749 87.8123 76.6089 90.5571C67.3968 91.5933 62.5688 88.0083 61.3479 86.664C60.0715 85.2636 59.8773 85.1796 59.4056 85.4596C58.6287 85.8798 59.1281 87.1401 59.4056 87.8683C60.127 89.7728 63.096 93.1338 68.1182 94.7862C72.5578 96.2426 83.3515 97.0549 96.4205 91.9574C111.043 86.2439 122.475 70.3634 119.118 57.0597C115.76 43.56 93.5626 39.1067 72.5578 46.6408C60.0715 51.1221 46.5308 58.18 36.7915 67.3666C25.2208 78.2896 23.3895 87.7843 24.1387 91.7614C26.8302 105.877 46.1146 115.064 53.8284 121.87C53.4399 122.094 53.0792 122.29 52.774 122.458C48.9171 124.39 34.211 132.149 30.5483 140.355C26.3862 149.653 31.2143 156.319 34.4052 157.216C44.311 159.988 54.4943 155.003 59.9605 146.769C65.4268 138.534 64.7608 127.835 62.2358 122.934C62.2081 122.878 62.1803 122.822 62.1248 122.766C63.1237 122.178 64.1504 121.562 65.1493 120.974C67.1193 119.797 69.0616 118.705 70.7265 117.809C69.7831 120.413 69.0894 123.522 68.7564 128.003C68.3402 133.269 70.4768 140.103 73.2793 142.792C74.5279 143.968 75.9985 143.996 76.9419 143.996C80.2161 143.996 81.6867 141.251 83.3238 138.002C85.3216 134.025 87.1252 129.404 87.1252 129.404C87.1252 129.404 84.8776 141.895 90.9821 141.895C93.2019 141.895 95.4494 138.983 96.4483 137.498C96.4483 137.526 96.4483 137.526 96.4483 137.526C96.4483 137.526 96.5038 137.442 96.6148 137.246C96.8368 136.882 96.9755 136.658 96.9755 136.658C96.9755 136.658 96.9755 136.63 96.9755 136.602C97.8634 135.033 99.8612 131.476 102.83 125.567C106.659 117.949 110.35 108.426 110.35 108.426C110.35 108.426 110.683 110.751 111.82 114.616C112.486 116.884 113.874 119.377 114.984 121.786C114.096 123.046 113.541 123.746 113.541 123.746C113.541 123.746 113.541 123.746 113.568 123.774C112.847 124.727 112.07 125.763 111.21 126.771C108.185 130.412 104.578 134.585 104.079 135.79C103.496 137.218 103.635 138.254 104.745 139.095C105.549 139.711 106.992 139.795 108.463 139.711C111.182 139.515 113.097 138.842 114.04 138.422C115.511 137.89 117.231 137.078 118.84 135.874C121.809 133.661 123.613 130.496 123.446 126.323C123.363 124.026 122.614 121.73 121.698 119.573C121.976 119.181 122.226 118.789 122.503 118.397C127.192 111.479 130.827 103.889 130.827 103.889C130.827 103.889 131.16 106.213 132.298 110.078C132.853 112.039 133.99 114.168 134.989 116.24C130.578 119.853 127.858 124.054 126.887 126.799C125.139 131.897 126.499 134.193 129.079 134.725C130.245 134.977 131.909 134.417 133.13 133.885C134.684 133.381 136.515 132.513 138.264 131.224C141.233 129.012 144.09 125.931 143.924 121.758C143.841 119.853 143.341 117.977 142.648 116.156C146.394 114.588 151.222 113.719 157.381 114.448C170.589 116.016 173.197 124.334 172.698 127.835C172.199 131.336 169.424 133.241 168.508 133.829C167.593 134.417 167.287 134.613 167.371 135.033C167.482 135.65 167.925 135.622 168.702 135.51C169.785 135.313 175.639 132.681 175.889 126.239C176.305 118.005 168.536 109.014 154.801 109.098ZM52.9127 143.772C48.5286 148.589 42.4242 150.41 39.7882 148.869C36.958 147.217 38.0679 140.103 43.4508 135.005C46.725 131.897 50.9426 129.012 53.7451 127.247C54.3833 126.855 55.3267 126.295 56.4644 125.595C56.6586 125.483 56.7696 125.427 56.7696 125.427C56.9916 125.287 57.2135 125.147 57.4355 125.007C59.4056 132.289 57.5188 138.702 52.9127 143.772ZM84.8221 121.87C83.296 125.623 80.1051 135.229 78.1628 134.697C76.4979 134.249 75.4713 126.967 77.8298 119.769C79.023 116.156 81.548 111.843 83.0186 110.163C85.4048 107.474 88.0408 106.578 88.679 107.67C89.4837 109.098 85.7656 119.517 84.8221 121.87ZM111.154 134.585C110.516 134.921 109.906 135.145 109.628 134.977C109.434 134.865 109.906 134.417 109.906 134.417C109.906 134.417 113.208 130.832 114.512 129.208C115.261 128.256 116.149 127.135 117.092 125.875C117.092 125.987 117.092 126.127 117.092 126.239C117.092 130.524 112.986 133.409 111.154 134.585ZM131.465 129.908C130.994 129.572 131.077 128.452 132.659 124.951C133.269 123.578 134.712 121.282 137.181 119.069C137.459 119.965 137.653 120.833 137.625 121.646C137.598 127.051 133.768 129.068 131.465 129.908Z"
                      fill="#CD6799"/>
            </g>
        </g>
        <defs>
            <clipPath id="clip0_1_451">
                <rect width="200" height="200" fill="white"/>
            </clipPath>
            <clipPath id="clip1_1_451">
                <rect width="152" height="115" fill="white" transform="translate(24 43)"/>
            </clipPath>
        </defs>
    </g>
    <g id="ts">
        <g clip-path="url(#clip0_126_1545)">
            <path d="M158.904 2.73972H41.0959C19.9124 2.73972 2.73975 19.9124 2.73975 41.0959V158.904C2.73975 180.088 19.9124 197.26 41.0959 197.26H158.904C180.088 197.26 197.26 180.088 197.26 158.904V41.0959C197.26 19.9124 180.088 2.73972 158.904 2.73972Z"
                  fill="white" stroke="#003355" stroke-width="21.9178"/>
            <path d="M158.904 2.73972H41.0959C19.9124 2.73972 2.73975 19.9124 2.73975 41.0959V158.904C2.73975 180.088 19.9124 197.26 41.0959 197.26H158.904C180.088 197.26 197.26 180.088 197.26 158.904V41.0959C197.26 19.9124 180.088 2.73972 158.904 2.73972Z"
                  stroke="#003355" stroke-width="21.9178"/>
            <mask id="mask0_126_1545" style="mask-type:luminance" maskUnits="userSpaceOnUse" x="5" y="5" width="190"
                  height="190">
                <path d="M156.164 5.47943H43.8357C22.6521 5.47943 5.47949 22.6521 5.47949 43.8356V156.164C5.47949 177.348 22.6521 194.521 43.8357 194.521H156.164C177.348 194.521 194.521 177.348 194.521 156.164V43.8356C194.521 22.6521 177.348 5.47943 156.164 5.47943Z"
                      fill="white"/>
            </mask>
            <g mask="url(#mask0_126_1545)">
                <path d="M-5.47949 94.5205L-5.47949 194.521H94.5205H194.521L194.521 94.5205L194.521 -5.47946H94.5205H-5.47949L-5.47949 94.5205ZM155.695 86.5523C160.774 87.8221 164.647 90.0761 168.203 93.7586C170.044 95.7269 172.774 99.3142 172.997 100.171C173.06 100.425 164.362 106.267 159.092 109.536C158.901 109.663 158.14 108.838 157.282 107.568C154.711 103.822 152.013 102.203 147.886 101.917C141.822 101.505 137.917 104.679 137.949 109.981C137.949 111.536 138.171 112.457 138.806 113.727C140.14 116.489 142.616 118.14 150.394 121.505C164.711 127.663 170.838 131.727 174.647 137.505C178.901 143.949 179.854 154.235 176.965 161.886C173.79 170.203 165.917 175.854 154.838 177.727C151.409 178.33 143.282 178.235 139.6 177.568C131.568 176.14 123.949 172.171 119.251 166.965C117.409 164.933 113.822 159.632 114.044 159.251C114.14 159.124 114.965 158.616 115.886 158.076C116.774 157.568 120.14 155.632 123.314 153.79L129.06 150.457L130.267 152.235C131.949 154.806 135.632 158.33 137.854 159.505C144.235 162.87 152.997 162.394 157.314 158.521C159.155 156.838 159.917 155.092 159.917 152.521C159.917 150.203 159.632 149.187 158.425 147.441C156.87 145.219 153.695 143.346 144.679 139.441C134.362 134.997 129.917 132.235 125.854 127.854C123.505 125.314 121.282 121.251 120.362 117.854C119.6 115.028 119.409 107.949 120.013 105.092C122.14 95.1237 129.663 88.1713 140.521 86.1078C144.044 85.4412 152.235 85.6951 155.695 86.5523ZM108.743 94.9015L108.806 103.092H95.7904H82.7745L82.7745 140.076L82.7745 177.06H73.5681H64.3618L64.3618 140.076L64.3618 103.092H51.3459H38.33L38.33 95.0602C38.33 90.6158 38.4253 86.9015 38.5523 86.8062C38.6475 86.6793 54.4888 86.6158 73.6951 86.6475L108.647 86.7428L108.743 94.9015Z"
                      fill="#007ACC"/>
            </g>
        </g>
        <defs>
            <clipPath id="clip0_126_1545">
                <rect width="200" height="200" fill="white"/>
            </clipPath>
        </defs>
    </g>
    <g id="bootstrap">
        <g clip-path="url(#clip0_126_1556)">
            <path d="M0 174.212C0 188.456 11.5457 200 25.7881 200H174.212C188.456 200 200 188.454 200 174.212V25.7881C200 11.5442 188.454 0 174.212 0H25.7881C11.5442 0 0 11.5457 0 25.7881V174.212Z"
                  fill="#563D7C"/>
            <path d="M82.9357 88.4673V60.1442H107.867C110.241 60.1442 112.531 60.3421 114.735 60.7378C116.94 61.1335 118.891 61.8402 120.587 62.8578C122.283 63.8754 123.639 65.2887 124.657 67.0978C125.675 68.9068 126.183 71.2247 126.183 74.0513C126.183 79.1393 124.657 82.814 121.604 85.0753C118.551 87.3366 114.651 88.4673 109.902 88.4673H82.9357ZM56.3086 39.4531V160.547H114.99C120.417 160.547 125.703 159.868 130.847 158.512C135.992 157.155 140.571 155.063 144.585 152.237C148.599 149.41 151.793 145.764 154.167 141.297C156.542 136.831 157.729 131.545 157.729 125.44C157.729 117.864 155.892 111.391 152.217 106.021C148.542 100.65 142.974 96.8907 135.511 94.7424C140.939 92.1419 145.037 88.8065 147.807 84.7361C150.577 80.6657 151.962 75.5778 151.962 69.4722C151.962 63.8188 151.03 59.0701 149.164 55.2258C147.299 51.3816 144.67 48.3006 141.278 45.9827C137.886 43.6648 133.815 41.9971 129.067 40.9795C124.318 39.9619 119.06 39.4531 113.294 39.4531H56.3086ZM82.9357 139.856V106.614H111.937C117.703 106.614 122.339 107.943 125.844 110.6C129.349 113.257 131.102 117.695 131.102 123.913C131.102 127.079 130.565 129.68 129.491 131.715C128.416 133.75 126.975 135.361 125.166 136.549C123.357 137.736 121.265 138.584 118.891 139.093C116.516 139.601 114.029 139.856 111.428 139.856H82.9357Z"
                  fill="white"/>
        </g>
        <defs>
            <clipPath id="clip0_126_1556">
                <rect width="200" height="200" fill="white"/>
            </clipPath>
        </defs>
    </g>
    <g id="view">
        <path d="M4.84 11.24L7.48 1.96H9.36L5.864 13H3.736L0.24 1.96H2.224L4.84 11.24ZM15.6338 4.552V11.688H17.9298V13H11.3138V11.688H13.8418V5.864H11.3938V4.552H15.6338ZM14.3858 0.415999C14.7378 0.415999 15.0204 0.522666 15.2338 0.735999C15.4524 0.949333 15.5618 1.216 15.5618 1.536C15.5618 1.856 15.4524 2.12533 15.2338 2.344C15.0204 2.56267 14.7378 2.672 14.3858 2.672C14.0444 2.672 13.7644 2.56267 13.5458 2.344C13.3271 2.12533 13.2178 1.856 13.2178 1.536C13.2178 1.216 13.3271 0.949333 13.5458 0.735999C13.7644 0.522666 14.0444 0.415999 14.3858 0.415999ZM22.0995 9.352C22.1368 9.928 22.2595 10.4 22.4675 10.768C22.6755 11.1307 22.9475 11.3973 23.2835 11.568C23.6248 11.7387 23.9982 11.824 24.4035 11.824C24.8195 11.824 25.2035 11.76 25.5555 11.632C25.9075 11.504 26.2622 11.3227 26.6195 11.088L27.3955 12.16C27.0008 12.48 26.5395 12.736 26.0115 12.928C25.4835 13.12 24.9182 13.216 24.3155 13.216C23.4408 13.216 22.6995 13.0293 22.0915 12.656C21.4888 12.2827 21.0302 11.7627 20.7155 11.096C20.4008 10.4293 20.2435 9.65867 20.2435 8.784C20.2435 7.936 20.3982 7.17867 20.7075 6.512C21.0168 5.84 21.4595 5.30933 22.0355 4.92C22.6115 4.52533 23.2995 4.328 24.0995 4.328C24.8515 4.328 25.4968 4.49867 26.0355 4.84C26.5795 5.18133 26.9982 5.66667 27.2915 6.296C27.5902 6.92 27.7395 7.672 27.7395 8.552C27.7395 8.696 27.7342 8.84 27.7235 8.984C27.7182 9.12267 27.7102 9.24533 27.6995 9.352H22.0995ZM24.1155 5.656C23.5555 5.656 23.0915 5.856 22.7235 6.256C22.3608 6.656 22.1502 7.28 22.0915 8.128H26.0035C25.9875 7.33333 25.8168 6.72267 25.4915 6.296C25.1715 5.86933 24.7128 5.656 24.1155 5.656ZM36.8133 13H34.5733L33.6213 7L32.5973 13H30.4053L28.9733 4.552H30.7013L31.5813 11.888L32.7573 5.624H34.5493L35.6453 11.888L36.5253 4.552H38.1892L36.8133 13ZM55.8488 10.928C55.8488 11.2587 55.8994 11.5013 56.0008 11.656C56.1021 11.8053 56.2648 11.9173 56.4888 11.992L56.0888 13.208C55.6728 13.16 55.3154 13.0453 55.0168 12.864C54.7181 12.6827 54.4914 12.408 54.3368 12.04C54.0274 12.4293 53.6354 12.7227 53.1608 12.92C52.6861 13.1173 52.1794 13.216 51.6408 13.216C50.7874 13.216 50.1101 12.976 49.6088 12.496C49.1128 12.0107 48.8648 11.376 48.8648 10.592C48.8648 9.70133 49.2114 9.016 49.9048 8.536C50.5981 8.056 51.5901 7.816 52.8808 7.816H54.0888V7.264C54.0888 6.72 53.9234 6.328 53.5928 6.088C53.2674 5.848 52.8061 5.728 52.2088 5.728C51.9314 5.728 51.5954 5.76533 51.2008 5.84C50.8061 5.90933 50.3928 6.01867 49.9608 6.168L49.5208 4.904C50.0488 4.70667 50.5661 4.56267 51.0728 4.472C51.5794 4.376 52.0488 4.328 52.4808 4.328C53.6114 4.328 54.4541 4.57867 55.0088 5.08C55.5688 5.58133 55.8488 6.27467 55.8488 7.16V10.928ZM52.1848 11.896C52.5474 11.896 52.9021 11.8 53.2488 11.608C53.5954 11.416 53.8754 11.1467 54.0888 10.8V8.936H53.0968C52.2541 8.936 51.6514 9.07733 51.2888 9.36C50.9261 9.63733 50.7448 10.0213 50.7448 10.512C50.7448 10.96 50.8648 11.304 51.1048 11.544C51.3501 11.7787 51.7101 11.896 52.1848 11.896ZM62.6985 1.16V10.696C62.6985 11.0853 62.8158 11.3627 63.0505 11.528C63.2905 11.688 63.5998 11.768 63.9785 11.768C64.2238 11.768 64.4558 11.7413 64.6745 11.688C64.8932 11.6347 65.1065 11.568 65.3145 11.488L65.7705 12.736C65.5198 12.864 65.2105 12.976 64.8425 13.072C64.4798 13.168 64.0638 13.216 63.5945 13.216C62.7465 13.216 62.0852 12.9787 61.6105 12.504C61.1412 12.024 60.9065 11.368 60.9065 10.536V2.48H58.3545V1.16H62.6985ZM72.2923 1.16V10.696C72.2923 11.0853 72.4096 11.3627 72.6443 11.528C72.8843 11.688 73.1936 11.768 73.5723 11.768C73.8176 11.768 74.0496 11.7413 74.2683 11.688C74.4869 11.6347 74.7003 11.568 74.9083 11.488L75.3643 12.736C75.1136 12.864 74.8043 12.976 74.4363 13.072C74.0736 13.168 73.6576 13.216 73.1883 13.216C72.3403 13.216 71.6789 12.9787 71.2043 12.504C70.7349 12.024 70.5003 11.368 70.5003 10.536V2.48H67.9483V1.16H72.2923ZM109.283 8.088C109.491 8.088 109.67 8.04 109.819 7.944C109.969 7.848 110.115 7.728 110.259 7.584C110.409 7.44 110.579 7.30133 110.771 7.168C110.963 7.02933 111.203 6.92 111.491 6.84C111.779 6.75467 112.142 6.72533 112.579 6.752V8.376C112.307 8.38133 112.083 8.42933 111.907 8.52C111.731 8.60533 111.569 8.712 111.419 8.84C111.27 8.96267 111.107 9.088 110.931 9.216C110.755 9.33867 110.537 9.44267 110.275 9.528C110.019 9.61333 109.689 9.656 109.283 9.656C108.889 9.656 108.555 9.6 108.283 9.488C108.017 9.37067 107.787 9.22933 107.595 9.064C107.409 8.89333 107.238 8.72533 107.083 8.56C106.934 8.38933 106.779 8.248 106.619 8.136C106.465 8.01867 106.286 7.96 106.083 7.96C105.881 7.96 105.702 8.01333 105.547 8.12C105.393 8.22667 105.238 8.36 105.083 8.52C104.929 8.68 104.758 8.84 104.571 9C104.379 9.16 104.15 9.29333 103.883 9.4C103.617 9.50667 103.283 9.56 102.883 9.56C102.483 9.56 102.147 9.50933 101.875 9.408C101.598 9.30667 101.366 9.184 101.179 9.04C100.993 8.89067 100.827 8.74133 100.683 8.592C100.534 8.44267 100.382 8.32 100.227 8.224C100.073 8.12267 99.8912 8.072 99.6832 8.072C99.4752 8.072 99.2939 8.12533 99.1392 8.232C98.9792 8.33867 98.8246 8.472 98.6752 8.632C98.5206 8.78667 98.3499 8.944 98.1632 9.104C97.9712 9.25867 97.7446 9.38933 97.4832 9.496C97.2166 9.60267 96.8832 9.656 96.4832 9.656C96.0886 9.656 95.7579 9.6 95.4912 9.488C95.2192 9.37067 94.9899 9.22933 94.8032 9.064C94.6112 8.89333 94.4406 8.72533 94.2912 8.56C94.1366 8.38933 93.9819 8.248 93.8272 8.136C93.6672 8.01867 93.4859 7.96 93.2832 7.96C93.0806 7.96 92.9019 8.01333 92.7472 8.12C92.5926 8.22667 92.4379 8.36 92.2832 8.52C92.1286 8.68 91.9579 8.84 91.7712 9C91.5792 9.16 91.3499 9.29333 91.0832 9.4C90.8166 9.50667 90.4832 9.56 90.0832 9.56C89.6992 9.56 89.3126 9.45867 88.9232 9.256C88.5339 9.048 88.1872 8.78667 87.8832 8.472C87.5792 8.152 87.3632 7.82133 87.2352 7.48L88.6432 6.816C88.8032 7.16267 89.0166 7.46133 89.2832 7.712C89.5446 7.96267 89.8112 8.088 90.0832 8.088C90.2912 8.088 90.4726 8.03467 90.6272 7.928C90.7766 7.82133 90.9286 7.688 91.0832 7.528C91.2379 7.368 91.4112 7.208 91.6032 7.048C91.7899 6.888 92.0192 6.75467 92.2912 6.648C92.5579 6.54133 92.8886 6.488 93.2832 6.488C93.6832 6.488 94.0166 6.54133 94.2832 6.648C94.5499 6.75467 94.7792 6.888 94.9712 7.048C95.1579 7.208 95.3286 7.368 95.4832 7.528C95.6379 7.688 95.7926 7.82133 95.9472 7.928C96.1019 8.03467 96.2806 8.088 96.4832 8.088C96.6859 8.088 96.8646 8.03467 97.0192 7.928C97.1739 7.82133 97.3286 7.688 97.4832 7.528C97.6379 7.368 97.8112 7.208 98.0032 7.048C98.1899 6.888 98.4192 6.75467 98.6912 6.648C98.9579 6.54133 99.2886 6.488 99.6832 6.488C100.089 6.488 100.427 6.54133 100.699 6.648C100.971 6.75467 101.201 6.888 101.387 7.048C101.574 7.208 101.742 7.368 101.891 7.528C102.041 7.688 102.193 7.82133 102.347 7.928C102.497 8.03467 102.675 8.088 102.883 8.088C103.091 8.088 103.273 8.03467 103.427 7.928C103.577 7.82133 103.729 7.688 103.883 7.528C104.038 7.368 104.211 7.208 104.403 7.048C104.59 6.888 104.819 6.75467 105.091 6.648C105.358 6.54133 105.689 6.488 106.083 6.488C106.478 6.488 106.809 6.54133 107.075 6.648C107.347 6.75467 107.577 6.888 107.763 7.048C107.955 7.208 108.129 7.368 108.283 7.528C108.438 7.688 108.593 7.82133 108.747 7.928C108.902 8.03467 109.081 8.088 109.283 8.088ZM109.963 2.928L114.499 7.992L109.963 13.056L108.715 11.992L110.563 9.968C110.819 9.69067 111.046 9.45867 111.243 9.272C111.446 9.08 111.673 8.90667 111.923 8.752V7.232C111.673 7.07733 111.446 6.90667 111.243 6.72C111.046 6.528 110.819 6.29333 110.563 6.016L108.715 3.992L109.963 2.928Z"
              fill="white"/>
    </g>
    <g id="Buttom">
        <path d="M0.912 13V1.96H2.768V11.448H7.712L7.512 13H0.912ZM14.6338 4.552V11.688H16.9298V13H10.3138V11.688H12.8418V5.864H10.3938V4.552H14.6338ZM13.3858 0.415999C13.7378 0.415999 14.0204 0.522666 14.2338 0.735999C14.4524 0.949333 14.5618 1.216 14.5618 1.536C14.5618 1.856 14.4524 2.12533 14.2338 2.344C14.0204 2.56267 13.7378 2.672 13.3858 2.672C13.0444 2.672 12.7644 2.56267 12.5458 2.344C12.3271 2.12533 12.2178 1.856 12.2178 1.536C12.2178 1.216 12.3271 0.949333 12.5458 0.735999C12.7644 0.522666 13.0444 0.415999 13.3858 0.415999ZM27.0115 4.552L24.0355 13H21.9395L18.9635 4.552H20.8835L23.0275 11.512L25.1795 4.552H27.0115ZM30.6933 9.352C30.7306 9.928 30.8533 10.4 31.0613 10.768C31.2693 11.1307 31.5413 11.3973 31.8773 11.568C32.2186 11.7387 32.5919 11.824 32.9973 11.824C33.4133 11.824 33.7973 11.76 34.1493 11.632C34.5013 11.504 34.8559 11.3227 35.2133 11.088L35.9893 12.16C35.5946 12.48 35.1333 12.736 34.6053 12.928C34.0773 13.12 33.5119 13.216 32.9093 13.216C32.0346 13.216 31.2933 13.0293 30.6853 12.656C30.0826 12.2827 29.6239 11.7627 29.3093 11.096C28.9946 10.4293 28.8372 9.65867 28.8372 8.784C28.8372 7.936 28.9919 7.17867 29.3013 6.512C29.6106 5.84 30.0533 5.30933 30.6293 4.92C31.2053 4.52533 31.8933 4.328 32.6933 4.328C33.4453 4.328 34.0906 4.49867 34.6293 4.84C35.1733 5.18133 35.5919 5.66667 35.8853 6.296C36.1839 6.92 36.3333 7.672 36.3333 8.552C36.3333 8.696 36.3279 8.84 36.3173 8.984C36.3119 9.12267 36.3039 9.24533 36.2933 9.352H30.6933ZM32.7093 5.656C32.1493 5.656 31.6853 5.856 31.3173 6.256C30.9546 6.656 30.7439 7.28 30.6853 8.128H34.5973C34.5813 7.33333 34.4106 6.72267 34.0853 6.296C33.7653 5.86933 33.3066 5.656 32.7093 5.656ZM56.0442 3.384L56.8682 4.68L51.3962 7.984L56.8682 11.288L55.9882 12.576L49.8522 8.752V7.216L56.0442 3.384ZM66.6842 3.384L72.8683 7.208V8.752L66.7323 12.576L65.8522 11.312L71.3323 7.984L65.8522 4.704L66.6842 3.384ZM67.5163 6.696L68.6523 7.24C68.4709 7.61867 68.2576 7.976 68.0123 8.312C67.7723 8.648 67.4843 8.92267 67.1483 9.136C66.8176 9.34933 66.4149 9.456 65.9402 9.456C65.5616 9.456 65.2336 9.376 64.9562 9.216C64.6736 9.056 64.4202 8.86933 64.1962 8.656C63.9669 8.44267 63.7456 8.256 63.5322 8.096C63.3136 7.936 63.0789 7.856 62.8282 7.856C62.5829 7.856 62.3589 7.936 62.1562 8.096C61.9482 8.256 61.7376 8.44267 61.5242 8.656C61.3109 8.86933 61.0709 9.056 60.8042 9.216C60.5322 9.376 60.2069 9.456 59.8282 9.456C59.4496 9.456 59.1216 9.376 58.8442 9.216C58.5616 9.056 58.3082 8.86933 58.0842 8.656C57.8549 8.44267 57.6336 8.256 57.4202 8.096C57.2016 7.936 56.9669 7.856 56.7162 7.856C56.3856 7.856 56.1029 7.98133 55.8682 8.232C55.6282 8.47733 55.4042 8.792 55.1962 9.176L54.0602 8.64C54.2469 8.272 54.4602 7.92 54.7002 7.584C54.9349 7.24267 55.2202 6.96267 55.5562 6.744C55.8922 6.52 56.2976 6.408 56.7722 6.408C57.1722 6.408 57.5136 6.488 57.7962 6.648C58.0789 6.808 58.3322 6.99467 58.5562 7.208C58.7802 7.42133 58.9962 7.608 59.2042 7.768C59.4122 7.928 59.6389 8.008 59.8842 8.008C60.1242 8.008 60.3429 7.928 60.5402 7.768C60.7376 7.608 60.9429 7.42133 61.1562 7.208C61.3642 6.99467 61.6042 6.808 61.8762 6.648C62.1482 6.488 62.4842 6.408 62.8842 6.408C63.2842 6.408 63.6256 6.488 63.9082 6.648C64.1909 6.808 64.4442 6.99467 64.6682 7.208C64.8922 7.42133 65.1082 7.608 65.3162 7.768C65.5242 7.928 65.7509 8.008 65.9962 8.008C66.3163 8.008 66.5963 7.888 66.8363 7.648C67.0816 7.40267 67.3083 7.08533 67.5163 6.696Z"
              fill="white"/>
    </g>
    <g id="group36">
        <circle cx="2" cy="40" r="2" fill="#ABB2BF"/>
        <circle cx="16.75" cy="40" r="2" fill="#ABB2BF"/>
        <circle cx="31.5" cy="40" r="2" fill="#ABB2BF"/>
        <circle cx="46.25" cy="40" r="2" fill="#ABB2BF"/>
        <circle cx="61" cy="40" r="2" fill="#ABB2BF"/>
        <circle cx="2" cy="54.75" r="2" fill="#ABB2BF"/>
        <circle cx="16.75" cy="54.75" r="2" fill="#ABB2BF"/>
        <circle cx="31.5" cy="54.75" r="2" fill="#ABB2BF"/>
        <circle cx="46.25" cy="54.75" r="2" fill="#ABB2BF"/>
        <circle cx="61" cy="54.75" r="2" fill="#ABB2BF"/>
        <circle cx="2" cy="69.5" r="2" fill="#ABB2BF"/>
        <circle cx="16.75" cy="69.5" r="2" fill="#ABB2BF"/>
        <circle cx="31.5" cy="69.5" r="2" fill="#ABB2BF"/>
        <circle cx="46.25" cy="69.5" r="2" fill="#ABB2BF"/>
        <circle cx="61" cy="69.5" r="2" fill="#ABB2BF"/>
        <circle cx="2" cy="84.25" r="2" fill="#ABB2BF"/>
        <circle cx="16.75" cy="84.25" r="2" fill="#ABB2BF"/>
        <circle cx="31.5" cy="84.25" r="2" fill="#ABB2BF"/>
        <circle cx="46.25" cy="84.25" r="2" fill="#ABB2BF"/>
        <circle cx="61" cy="84.25" r="2" fill="#ABB2BF"/>
        <circle cx="2" cy="99" r="2" fill="#ABB2BF"/>
        <circle cx="16.75" cy="99" r="2" fill="#ABB2BF"/>
        <circle cx="31.5" cy="99" r="2" fill="#ABB2BF"/>
        <circle cx="46.25" cy="99" r="2" fill="#ABB2BF"/>
        <circle cx="61" cy="99" r="2" fill="#ABB2BF"/>
        <circle cx="179" cy="145" r="2" fill="#ABB2BF"/>
        <circle cx="193.75" cy="145" r="2" fill="#ABB2BF"/>
        <circle cx="208.5" cy="145" r="2" fill="#ABB2BF"/>
        <circle cx="223.25" cy="145" r="2" fill="#ABB2BF"/>
        <circle cx="238" cy="145" r="2" fill="#ABB2BF"/>
        <circle cx="179" cy="159.75" r="2" fill="#ABB2BF"/>
        <circle cx="193.75" cy="159.75" r="2" fill="#ABB2BF"/>
        <circle cx="208.5" cy="159.75" r="2" fill="#ABB2BF"/>
        <circle cx="223.25" cy="159.75" r="2" fill="#ABB2BF"/>
        <circle cx="238" cy="159.75" r="2" fill="#ABB2BF"/>
        <circle cx="179" cy="174.5" r="2" fill="#ABB2BF"/>
        <circle cx="193.75" cy="174.5" r="2" fill="#ABB2BF"/>
        <circle cx="208.5" cy="174.5" r="2" fill="#ABB2BF"/>
        <circle cx="223.25" cy="174.5" r="2" fill="#ABB2BF"/>
        <circle cx="238" cy="174.5" r="2" fill="#ABB2BF"/>
        <circle cx="179" cy="189.25" r="2" fill="#ABB2BF"/>
        <circle cx="193.75" cy="189.25" r="2" fill="#ABB2BF"/>
        <circle cx="208.5" cy="189.25" r="2" fill="#ABB2BF"/>
        <circle cx="223.25" cy="189.25" r="2" fill="#ABB2BF"/>
        <circle cx="238" cy="189.25" r="2" fill="#ABB2BF"/>
        <circle cx="179" cy="204" r="2" fill="#ABB2BF"/>
        <circle cx="193.75" cy="204" r="2" fill="#ABB2BF"/>
        <circle cx="208.5" cy="204" r="2" fill="#ABB2BF"/>
        <circle cx="223.25" cy="204" r="2" fill="#ABB2BF"/>
        <circle cx="238" cy="204" r="2" fill="#ABB2BF"/>
        <rect x="297.5" y="193.5" width="51" height="51" stroke="#ABB2BF"/>
        <rect x="227.5" y="0.5" width="85" height="85" stroke="#ABB2BF"/>
        <mask id="path-53-inside-1_29_201" fill="white">
            <path fill-rule="evenodd" clip-rule="evenodd"
                  d="M71.5 169H99.75H128V197.25V225.5V253.75H99.75H71.5V225.5H99.75V197.25H71.5V169Z"/>
        </mask>
        <path d="M71.5 169V168H70.5V169H71.5ZM128 169H129V168H128V169ZM128 253.75V254.75H129V253.75H128ZM71.5 253.75H70.5V254.75H71.5V253.75ZM71.5 225.5V224.5H70.5V225.5H71.5ZM99.75 225.5V226.5H100.75V225.5H99.75ZM99.75 197.25H100.75V196.25H99.75V197.25ZM71.5 197.25H70.5V198.25H71.5V197.25ZM99.75 168H71.5V170H99.75V168ZM128 168H99.75V170H128V168ZM129 197.25V169H127V197.25H129ZM129 225.5V197.25H127V225.5H129ZM129 253.75V225.5H127V253.75H129ZM99.75 254.75H128V252.75H99.75V254.75ZM99.75 252.75H71.5V254.75H99.75V252.75ZM72.5 253.75V225.5H70.5V253.75H72.5ZM71.5 226.5H99.75V224.5H71.5V226.5ZM98.75 197.25V225.5H100.75V197.25H98.75ZM71.5 198.25H99.75V196.25H71.5V198.25ZM70.5 169V197.25H72.5V169H70.5Z"
              fill="#C778DD" mask="url(#path-53-inside-1_29_201)"/>
        <mask id="path-55-outside-2_29_201" maskUnits="userSpaceOnUse" x="14" y="196.25" width="59" height="87"
              fill="black">
            <rect fill="white" x="14" y="196.25" width="59" height="87"/>
            <path fill-rule="evenodd" clip-rule="evenodd"
                  d="M15 197.25H43.25H71.5V225.5H43.25V253.75H71.5V282H43.25H15V253.75V225.5V197.25Z"/>
        </mask>
        <path d="M15 197.25V196.25H14V197.25H15ZM71.5 197.25H72.5V196.25H71.5V197.25ZM71.5 225.5V226.5H72.5V225.5H71.5ZM43.25 225.5V224.5H42.25V225.5H43.25ZM43.25 253.75H42.25V254.75H43.25V253.75ZM71.5 253.75H72.5V252.75H71.5V253.75ZM71.5 282V283H72.5V282H71.5ZM15 282H14V283H15V282ZM43.25 196.25H15V198.25H43.25V196.25ZM71.5 196.25H43.25V198.25H71.5V196.25ZM72.5 225.5V197.25H70.5V225.5H72.5ZM43.25 226.5H71.5V224.5H43.25V226.5ZM44.25 253.75V225.5H42.25V253.75H44.25ZM43.25 254.75H71.5V252.75H43.25V254.75ZM70.5 253.75V282H72.5V253.75H70.5ZM71.5 281H43.25V283H71.5V281ZM15 283H43.25V281H15V283ZM14 253.75V282H16V253.75H14ZM14 225.5V253.75H16V225.5H14ZM14 197.25V225.5H16V197.25H14Z"
              fill="#C778DD" mask="url(#path-55-outside-2_29_201)"/>
    </g>
</svg>




