<svg width="34" height="21" viewBox="0 0 34 21" fill="none" xmlns="http://www.w3.org/2000/svg">
    <g id="netto">
        <path d="M3.864 6.552V9.584H7.784V11.176H3.864V14.392H8.624V16H1.672V4.936H8.568L8.344 6.552H3.864ZM15.4338 16L12.1778 6.808C12.2044 7.01067 12.2364 7.272 12.2738 7.592C12.3111 7.912 12.3458 8.27467 12.3778 8.68C12.4151 9.08533 12.4444 9.51467 12.4658 9.968C12.4924 10.4213 12.5058 10.88 12.5058 11.344V16H10.6018V4.936H13.3858L16.6098 14.112C16.5671 13.84 16.5191 13.48 16.4658 13.032C16.4178 12.584 16.3751 12.0693 16.3378 11.488C16.3004 10.9067 16.2818 10.288 16.2818 9.632V4.936H18.1858V16H15.4338Z"
              fill="#ABB2BF"/>
        <line x1="24.7071" y1="7.29289" x2="29.7071" y2="12.2929" stroke="#ABB2BF" stroke-width="2"/>
        <line x1="28.2929" y1="12.2929" x2="33.2929" y2="7.29289" stroke="#ABB2BF" stroke-width="2"/>
    </g>
</svg>
